<svg width="131.367188" height="172.000000" viewBox="0 0 131.367 172" fill="none" xmlns="http://www.w3.org/2000/svg" xmlns:xlink="http://www.w3.org/1999/xlink">
	<desc>
			Created with Pixso.
	</desc>
	<defs/>
	<path id="2" d="M2.46 172L131.36 172L131.36 138.98L57.77 138.98L57.77 137.57L90.82 109.47C118.82 85.23 129.25 72.24 129.25 50.69L129.25 50.46C129.25 20.49 103.47 0 65.03 0C26.95 0 0 22.83 0 55.96L0 57.02L39.37 57.02L39.49 55.73C40.19 42.15 49.92 32.43 65.15 32.43C78.39 32.43 87.65 40.98 87.65 52.92L87.65 53.15C87.65 63.69 83.55 71.42 62.34 90.15L2.46 142.72L2.46 172Z" fill="#71AF1C" fill-opacity="0.040000" fill-rule="nonzero"/>
</svg>
