<svg width="138.632812" height="172.000000" viewBox="0 0 138.633 172" fill="none" xmlns="http://www.w3.org/2000/svg" xmlns:xlink="http://www.w3.org/1999/xlink">
	<desc>
			Created with Pixso.
	</desc>
	<defs/>
	<path id="3" d="M69.02 172C111.56 172 138.63 152.21 138.63 121.49L138.63 121.26C138.63 99.28 122.34 85.48 96.91 82.95L96.91 82.14C116.13 78.34 131.95 65.11 131.95 44.29L131.95 44.06C131.95 17.48 107.34 0 68.67 0C31.17 0 6.32 19.32 4.1 49.01L3.98 50.62L43 50.62L43.12 49.58C44.29 38.77 53.9 31.4 68.67 31.4C83.32 31.4 91.99 38.42 91.99 49.81L91.99 50.04C91.99 61.78 81.91 69.49 65.39 69.49L47.22 69.49L47.22 98.13L65.62 98.13C84.37 98.13 94.92 105.5 94.92 118.84L94.92 119.07C94.92 130.58 84.96 138.75 68.9 138.75C52.85 138.75 42.65 131.15 41.25 121.72L41.01 120.45L0 120.45L0.11 121.83C2.57 151.75 29.06 172 69.02 172Z" fill="#71AF1C" fill-opacity="0.040000" fill-rule="nonzero"/>
</svg>
