<svg width="134.296875" height="172.000000" viewBox="0 0 134.297 172" fill="none" xmlns="http://www.w3.org/2000/svg" xmlns:xlink="http://www.w3.org/1999/xlink">
	<desc>
			Created with Pixso.
	</desc>
	<defs/>
	<path id="5" d="M66.26 172C106.66 172 134.29 147.76 134.29 111.7L134.29 111.46C134.29 79.85 111.23 57.02 79.38 57.02C61.82 57.02 48 64.39 41.33 75.75L40.51 75.75L43.9 33.01L123.76 33.01L123.76 0L10.07 0L2.8 100.69L40.04 100.69C41.8 97.29 44.6 94.13 48.12 91.67C52.92 88.16 59.12 86.17 66.26 86.17C82.31 86.17 93.78 96.83 93.78 112.28L93.78 112.52C93.78 128.09 82.42 138.98 66.26 138.98C52.1 138.98 41.91 130.66 39.22 120.13L38.98 119.31L0 119.31L0.11 121.3C1.99 149.87 27.04 172 66.26 172Z" fill="#71AF1C" fill-opacity="0.040000" fill-rule="nonzero"/>
</svg>
