<svg width="139.441406" height="172.000000" viewBox="0 0 139.441 172" fill="none" xmlns="http://www.w3.org/2000/svg" xmlns:xlink="http://www.w3.org/1999/xlink">
	<desc>
			Created with Pixso.
	</desc>
	<defs/>
	<path id="6" d="M72.71 172C111.13 172 139.44 147.6 139.44 112.97L139.44 112.75C139.44 81.91 118.15 59.48 85.82 59.48C63.39 59.48 47.51 70.41 40.95 86.17L40.15 86.17C40.15 83.75 40.26 80.99 40.38 78.34C41.99 52 51.54 32.44 72.36 32.44C84.21 32.44 92.03 38.42 95.6 46.48L95.95 47.28L137.25 47.28L137.14 46.36C132.3 19.9 106.65 0 72.36 0C27.72 0 0 32.78 0 86.4L0 86.63C0 140.13 27.61 172 72.71 172ZM45.55 114.24L45.55 114.12C45.55 99.4 57.29 89.04 72.48 89.04C87.2 89.04 98.71 99.4 98.71 114.35L98.71 114.59C98.71 128.62 86.74 139.44 72.13 139.44C57.17 139.44 45.55 128.62 45.55 114.24Z" fill="#71AF1C" fill-opacity="0.040000" fill-rule="nonzero"/>
</svg>
