<svg width="48.000000" height="48.000000" viewBox="0 0 48 48" fill="none" xmlns="http://www.w3.org/2000/svg" xmlns:xlink="http://www.w3.org/1999/xlink">
	<desc>
			Created with Pixso.
	</desc>
	<defs>
		<clipPath id="clip298_2851">
			<rect id="application" rx="-0.500000" width="47.000000" height="47.000000" transform="translate(0.500000 0.500000)" fill="white" fill-opacity="0"/>
		</clipPath>
	</defs>
	<rect id="application" rx="-0.500000" width="47.000000" height="47.000000" transform="translate(0.500000 0.500000)" fill="#FFFFFF" fill-opacity="0"/>
	<g clip-path="url(#clip298_2851)">
		<path id="Vector" d="M22.5 23.25L31.5 23.25L31.5 24.75L22.5 24.75L22.5 23.25Z" fill="#80A948" fill-opacity="1.000000" fill-rule="nonzero"/>
		<path id="Vector" d="M16.5 23.25L21 23.25L21 24.75L16.5 24.75L16.5 23.25Z" fill="#80A948" fill-opacity="1.000000" fill-rule="nonzero"/>
		<path id="Vector" d="M16.5 26.25L31.5 26.25L31.5 27.75L16.5 27.75L16.5 26.25Z" fill="#80A948" fill-opacity="1.000000" fill-rule="nonzero"/>
		<path id="Vector" d="M16.5 20.25L31.5 20.25L31.5 21.75L16.5 21.75L16.5 20.25Z" fill="#80A948" fill-opacity="1.000000" fill-rule="nonzero"/>
		<path id="Vector" d="M25.5 7.5L27 7.5L27 9L25.5 9L25.5 7.5Z" fill="#80A948" fill-opacity="1.000000" fill-rule="nonzero"/>
		<path id="Vector" d="M22.5 10.5L24 10.5L24 12L22.5 12L22.5 10.5Z" fill="#80A948" fill-opacity="1.000000" fill-rule="nonzero"/>
		<path id="Vector" d="M24 36L25.5 36L25.5 37.5L24 37.5L24 36Z" fill="#80A948" fill-opacity="1.000000" fill-rule="nonzero"/>
		<path id="Vector" d="M21 39L22.5 39L22.5 40.5L21 40.5L21 39Z" fill="#80A948" fill-opacity="1.000000" fill-rule="nonzero"/>
		<path id="Vector" d="M45.83 33.08L44.03 32.84L45.15 31.41C45.26 31.27 45.32 31.09 45.31 30.91C45.3 30.72 45.22 30.55 45.09 30.42L43.07 28.4C42.94 28.27 42.76 28.19 42.58 28.18C42.4 28.17 42.22 28.23 42.08 28.34L40.64 29.46L40.41 27.66C40.39 27.47 40.3 27.31 40.17 27.18C40.03 27.06 39.85 27 39.67 27L37.5 27L37.5 3.75C37.5 3.15 37.26 2.58 36.83 2.16C36.41 1.74 35.84 1.5 35.25 1.5L12.75 1.5C12.15 1.5 11.58 1.74 11.16 2.16C10.73 2.58 10.5 3.15 10.5 3.75L10.5 4.5L8.32 4.5C8.14 4.5 7.96 4.56 7.82 4.68C7.69 4.81 7.6 4.97 7.58 5.16L7.35 6.96L5.91 5.84C5.77 5.73 5.59 5.67 5.41 5.68C5.23 5.69 5.05 5.77 4.92 5.9L2.9 7.92C2.77 8.05 2.69 8.22 2.68 8.41C2.67 8.59 2.73 8.77 2.84 8.91L3.96 10.34L2.16 10.58C1.97 10.6 1.81 10.69 1.68 10.82C1.56 10.96 1.5 11.14 1.5 11.32L1.5 14.17C1.5 14.35 1.56 14.53 1.68 14.67C1.81 14.8 1.97 14.89 2.16 14.91L3.96 15.15L2.84 16.58C2.73 16.72 2.67 16.9 2.68 17.08C2.69 17.27 2.77 17.44 2.9 17.57L4.92 19.59C5.05 19.72 5.23 19.8 5.41 19.81C5.59 19.82 5.77 19.76 5.91 19.65L7.35 18.53L7.58 20.33C7.6 20.52 7.69 20.68 7.82 20.81C7.96 20.93 8.14 21 8.32 21L10.5 21L10.5 44.25C10.5 44.84 10.73 45.41 11.16 45.83C11.58 46.25 12.15 46.49 12.75 46.5L35.25 46.5C35.84 46.49 36.41 46.25 36.83 45.83C37.26 45.41 37.5 44.84 37.5 44.25L37.5 43.5L39.67 43.5C39.85 43.5 40.03 43.43 40.17 43.31C40.3 43.18 40.39 43.02 40.41 42.83L40.64 41.03L42.08 42.15C42.22 42.26 42.4 42.32 42.58 42.31C42.76 42.3 42.94 42.22 43.07 42.09L45.09 40.07C45.22 39.94 45.3 39.77 45.31 39.58C45.32 39.4 45.26 39.22 45.15 39.08L44.03 37.65L45.83 37.41C46.02 37.39 46.18 37.3 46.31 37.17C46.43 37.03 46.5 36.85 46.5 36.67L46.5 33.82C46.5 33.64 46.43 33.46 46.31 33.32C46.18 33.19 46.02 33.1 45.83 33.08ZM10.5 14.84C10.26 14.94 10 14.99 9.75 15C9.15 15 8.58 14.76 8.16 14.34C7.73 13.91 7.5 13.34 7.5 12.75C7.5 12.15 7.73 11.58 8.16 11.15C8.58 10.73 9.15 10.5 9.75 10.5C10 10.5 10.26 10.55 10.5 10.65L10.5 14.84ZM10.5 9.08C10.25 9.03 10 9 9.75 9C8.75 9 7.8 9.39 7.09 10.09C6.39 10.8 6 11.75 6 12.75C6 13.74 6.39 14.69 7.09 15.4C7.8 16.1 8.75 16.5 9.75 16.5C10 16.49 10.25 16.46 10.5 16.41L10.5 19.5L8.98 19.5L8.76 17.71C8.74 17.57 8.68 17.43 8.58 17.33C8.5 17.21 8.37 17.13 8.24 17.09C8.06 17.03 7.88 16.96 7.71 16.88C7.59 16.82 7.45 16.79 7.31 16.81C7.17 16.82 7.04 16.87 6.93 16.96L5.51 18.06L4.43 16.98L5.53 15.56C5.62 15.45 5.67 15.32 5.68 15.18C5.7 15.04 5.67 14.9 5.61 14.78C5.53 14.61 5.46 14.43 5.4 14.25C5.36 14.12 5.28 14 5.17 13.91C5.05 13.81 4.92 13.75 4.78 13.74L3 13.51L3 11.98L4.78 11.75C4.92 11.74 5.05 11.68 5.17 11.58C5.28 11.49 5.36 11.37 5.4 11.24C5.46 11.06 5.53 10.88 5.61 10.71C5.67 10.59 5.7 10.45 5.68 10.31C5.67 10.17 5.62 10.04 5.53 9.93L4.43 8.51L5.51 7.43L6.93 8.53C7.04 8.62 7.17 8.67 7.31 8.68C7.45 8.7 7.59 8.67 7.71 8.61C7.88 8.53 8.06 8.46 8.24 8.4C8.37 8.36 8.5 8.28 8.58 8.16C8.68 8.06 8.74 7.92 8.76 7.78L8.98 6L10.5 6L10.5 9.08ZM16.5 3L31.5 3L31.5 3.75C31.5 3.94 31.42 4.14 31.28 4.28C31.14 4.42 30.94 4.5 30.75 4.5L17.25 4.5C17.05 4.5 16.85 4.42 16.71 4.28C16.57 4.14 16.5 3.94 16.5 3.75L16.5 3ZM36 13.5L30.75 13.5L30.75 11.25C30.75 11.05 30.67 10.85 30.53 10.71C30.39 10.57 30.19 10.5 30 10.5L25.5 10.5L25.5 12L29.25 12L29.25 14.25C29.25 14.44 29.32 14.64 29.46 14.78C29.6 14.92 29.8 15 30 15L36 15L36 34.5L28.5 34.5C28.3 34.5 28.1 34.57 27.96 34.71C27.82 34.85 27.75 35.05 27.75 35.25L27.75 39L24 39L24 40.5L28.5 40.5C28.69 40.5 28.89 40.42 29.03 40.28C29.17 40.14 29.25 39.94 29.25 39.75L29.25 36L36 36L36 44.25C36 44.44 35.92 44.64 35.78 44.78C35.64 44.92 35.44 45 35.25 45L12.75 45C12.55 45 12.35 44.92 12.21 44.78C12.07 44.64 12 44.44 12 44.25L12 34.5L17.25 34.5L17.25 36.75C17.25 36.94 17.32 37.14 17.46 37.28C17.6 37.42 17.8 37.5 18 37.5L22.5 37.5L22.5 36L18.75 36L18.75 33.75C18.75 33.55 18.67 33.35 18.53 33.21C18.39 33.07 18.19 33 18 33L12 33L12 13.5L19.5 13.5C19.69 13.5 19.89 13.42 20.03 13.28C20.17 13.14 20.25 12.94 20.25 12.75L20.25 9L24 9L24 7.5L19.5 7.5C19.3 7.5 19.1 7.57 18.96 7.71C18.82 7.85 18.75 8.05 18.75 8.25L18.75 12L12 12L12 3.75C12 3.55 12.07 3.35 12.21 3.21C12.35 3.07 12.55 3 12.75 3L15 3L15 3.75C15 4.34 15.23 4.91 15.66 5.33C16.08 5.75 16.65 5.99 17.25 6L30.75 6C31.34 5.99 31.91 5.75 32.33 5.33C32.76 4.91 33 4.34 33 3.75L33 3L35.25 3C35.44 3 35.64 3.07 35.78 3.21C35.92 3.35 36 3.55 36 3.75L36 13.5ZM37.5 33.15C37.73 33.05 37.99 33 38.25 33C38.84 33 39.41 33.23 39.83 33.65C40.26 34.08 40.5 34.65 40.5 35.25C40.5 35.84 40.26 36.41 39.83 36.84C39.41 37.26 38.84 37.5 38.25 37.5C37.99 37.49 37.73 37.44 37.5 37.34L37.5 33.15ZM45 36.01L43.21 36.24C43.07 36.25 42.94 36.31 42.82 36.41C42.71 36.5 42.63 36.62 42.59 36.75C42.53 36.93 42.46 37.11 42.38 37.28C42.32 37.4 42.29 37.54 42.31 37.68C42.32 37.82 42.37 37.95 42.46 38.06L43.56 39.48L42.48 40.56L41.06 39.46C40.95 39.37 40.82 39.32 40.68 39.31C40.54 39.29 40.4 39.32 40.28 39.38C40.11 39.46 39.93 39.53 39.75 39.59C39.62 39.63 39.5 39.71 39.41 39.83C39.31 39.93 39.25 40.07 39.23 40.21L39.01 42L37.5 42L37.5 38.91C37.74 38.96 37.99 38.99 38.25 39C39.24 39 40.19 38.6 40.9 37.9C41.6 37.19 42 36.24 42 35.25C42 34.25 41.6 33.3 40.9 32.59C40.19 31.89 39.24 31.5 38.25 31.5C37.99 31.5 37.74 31.53 37.5 31.58L37.5 28.5L39.01 28.5L39.23 30.28C39.25 30.42 39.31 30.56 39.41 30.66C39.5 30.78 39.62 30.86 39.75 30.9C39.93 30.96 40.11 31.03 40.28 31.11C40.4 31.17 40.54 31.2 40.68 31.18C40.82 31.17 40.95 31.12 41.06 31.03L42.48 29.93L43.56 31.01L42.46 32.43C42.37 32.54 42.32 32.67 42.31 32.81C42.29 32.95 42.32 33.09 42.38 33.21C42.46 33.38 42.53 33.56 42.59 33.74C42.63 33.87 42.71 33.99 42.82 34.08C42.94 34.18 43.07 34.24 43.21 34.25L45 34.48L45 36.01Z" fill="#80A948" fill-opacity="1.000000" fill-rule="nonzero"/>
		<path id="Vector" d="M32.25 17.25L15.75 17.25C15.15 17.25 14.58 17.49 14.16 17.91C13.73 18.33 13.5 18.9 13.5 19.5L13.5 28.5C13.5 29.09 13.73 29.66 14.16 30.08C14.58 30.5 15.15 30.74 15.75 30.75L32.25 30.75C32.84 30.74 33.41 30.5 33.83 30.08C34.26 29.66 34.5 29.09 34.5 28.5L34.5 19.5C34.5 18.9 34.26 18.33 33.83 17.91C33.41 17.49 32.84 17.25 32.25 17.25ZM33 28.5C33 28.69 32.92 28.89 32.78 29.03C32.64 29.17 32.44 29.25 32.25 29.25L15.75 29.25C15.55 29.25 15.35 29.17 15.21 29.03C15.07 28.89 15 28.69 15 28.5L15 19.5C15 19.3 15.07 19.1 15.21 18.96C15.35 18.82 15.55 18.75 15.75 18.75L32.25 18.75C32.44 18.75 32.64 18.82 32.78 18.96C32.92 19.1 33 19.3 33 19.5L33 28.5Z" fill="#80A948" fill-opacity="1.000000" fill-rule="nonzero"/>
	</g>
</svg>
