<svg width="52.000000" height="52.000000" viewBox="0 0 52 52" fill="none" xmlns="http://www.w3.org/2000/svg" xmlns:xlink="http://www.w3.org/1999/xlink">
	<desc>
			Created with Pixso.
	</desc>
	<defs>
		<filter id="filter_298_2606_dd" x="0.000000" y="0.000000" width="52.000000" height="52.000000" filterUnits="userSpaceOnUse" color-interpolation-filters="sRGB">
			<feFlood flood-opacity="0" result="BackgroundImageFix"/>
			<feColorMatrix in="SourceAlpha" type="matrix" values="0 0 0 0 0 0 0 0 0 0 0 0 0 0 0 0 0 0 127 0" result="hardAlpha"/>
			<feOffset dx="0" dy="2"/>
			<feGaussianBlur stdDeviation="1.33333"/>
			<feComposite in2="hardAlpha" operator="out" k2="-1" k3="1"/>
			<feColorMatrix type="matrix" values="0 0 0 0 0 0 0 0 0 0 0 0 0 0 0 0 0 0 0.078 0"/>
			<feBlend mode="normal" in2="BackgroundImageFix" result="effect_dropShadow_1"/>
			<feBlend mode="normal" in="SourceGraphic" in2="effect_dropShadow_1" result="shape"/>
		</filter>
		<clipPath id="clip298_2607">
			<rect id="live_outline_24" rx="-0.500000" width="23.000000" height="23.000000" transform="translate(14.500000 12.500000)" fill="white" fill-opacity="0"/>
		</clipPath>
	</defs>
	<g filter="url(#filter_298_2606_dd)">
		<rect id="ar" rx="21.500000" width="43.000000" height="43.000000" transform="translate(4.500000 2.500000)" fill="#FFFFFF" fill-opacity="1.000000"/>
		<g clip-path="url(#clip298_2607)">
			<path id="↳ Icon Color" d="M19 17C20.79 15.2 23.26 14.09 26 14.09C28.73 14.09 31.21 15.2 33 17C34.79 18.78 35.9 21.26 35.9 24C35.9 26.73 34.79 29.2 33 31C31.21 32.79 28.73 33.9 26 33.9C23.26 33.9 20.79 32.79 19 31C17.21 29.2 16.1 26.73 16.1 24C16.1 21.26 17.21 18.78 19 17ZM26 15.9C23.76 15.9 21.74 16.8 20.27 18.27C18.8 19.73 17.9 21.76 17.9 24C17.9 26.23 18.8 28.25 20.27 29.72C21.74 31.19 23.76 32.09 26 32.09C28.23 32.09 30.26 31.19 31.73 29.72C33.19 28.25 34.1 26.23 34.1 24C34.1 21.76 33.19 19.73 31.73 18.27C30.26 16.8 28.23 15.9 26 15.9ZM21.82 19.82C22.89 18.76 24.37 18.09 26 18.09C27.62 18.09 29.1 18.76 30.17 19.82C31.23 20.89 31.9 22.37 31.9 24C31.9 25.62 31.23 27.1 30.17 28.17C29.1 29.23 27.62 29.9 26 29.9C24.37 29.9 22.89 29.23 21.82 28.17C20.76 27.1 20.1 25.62 20.1 24C20.1 22.37 20.76 20.89 21.82 19.82ZM26 19.9C24.86 19.9 23.84 20.35 23.1 21.09C22.35 21.84 21.9 22.86 21.9 24C21.9 25.13 22.35 26.15 23.1 26.89C23.84 27.64 24.86 28.09 26 28.09C27.13 28.09 28.15 27.64 28.9 26.89C29.64 26.15 30.1 25.13 30.1 24C30.1 22.86 29.64 21.84 28.9 21.09C28.15 20.35 27.13 19.9 26 19.9ZM26 22.09C26.52 22.09 27 22.31 27.34 22.65C27.68 22.99 27.9 23.47 27.9 24C27.9 24.52 27.68 25 27.34 25.34C27 25.68 26.52 25.9 26 25.9C25.47 25.9 25 25.68 24.65 25.34C24.31 25 24.1 24.52 24.1 24C24.1 23.47 24.31 22.99 24.65 22.65C25 22.31 25.47 22.09 26 22.09Z" fill="#FFBA00" fill-opacity="1.000000" fill-rule="evenodd"/>
		</g>
	</g>
</svg>
