<svg width="52.000000" height="52.000000" viewBox="0 0 52 52" fill="none" xmlns="http://www.w3.org/2000/svg" xmlns:xlink="http://www.w3.org/1999/xlink">
	<desc>
			Created with Pixso.
	</desc>
	<defs>
		<filter id="filter_298_2572_dd" x="0.000000" y="0.000000" width="52.000000" height="52.000000" filterUnits="userSpaceOnUse" color-interpolation-filters="sRGB">
			<feFlood flood-opacity="0" result="BackgroundImageFix"/>
			<feColorMatrix in="SourceAlpha" type="matrix" values="0 0 0 0 0 0 0 0 0 0 0 0 0 0 0 0 0 0 127 0" result="hardAlpha"/>
			<feOffset dx="0" dy="2"/>
			<feGaussianBlur stdDeviation="1.33333"/>
			<feComposite in2="hardAlpha" operator="out" k2="-1" k3="1"/>
			<feColorMatrix type="matrix" values="0 0 0 0 0 0 0 0 0 0 0 0 0 0 0 0 0 0 0.078 0"/>
			<feBlend mode="normal" in2="BackgroundImageFix" result="effect_dropShadow_1"/>
			<feBlend mode="normal" in="SourceGraphic" in2="effect_dropShadow_1" result="shape"/>
		</filter>
		<clipPath id="clip298_2573">
			<rect id="bank_outline_24" rx="-0.500000" width="23.000000" height="23.000000" transform="translate(14.500000 12.500000)" fill="white" fill-opacity="0"/>
		</clipPath>
	</defs>
	<g filter="url(#filter_298_2572_dd)">
		<rect id="bank" rx="21.500000" width="43.000000" height="43.000000" transform="translate(4.500000 2.500000)" fill="#FFFFFF" fill-opacity="1.000000"/>
		<g clip-path="url(#clip298_2573)">
			<path id="↳ Icon Color" d="M25.73 16.83C25.91 16.78 26.1 16.78 26.28 16.83C26.45 16.87 26.63 16.99 27.38 17.55L33.55 22.16C33.95 22.46 34.51 22.38 34.81 21.98C35.11 21.58 35.03 21.01 34.63 20.72L28.46 16.11L28.34 16.02C27.77 15.59 27.29 15.24 26.74 15.09C26.26 14.96 25.75 14.96 25.27 15.09C24.72 15.23 24.24 15.59 23.67 16.02L23.55 16.1L17.37 20.72C16.97 21.01 16.89 21.58 17.18 21.98C17.48 22.38 18.04 22.46 18.44 22.16L24.63 17.55C25.38 16.99 25.56 16.87 25.73 16.83ZM26.9 22.89C26.9 22.39 26.5 21.99 26 21.99C25.5 21.99 25.1 22.39 25.1 22.89L25.1 31.09L22.9 31.09L22.9 22.89C22.9 22.39 22.5 21.99 22 21.99C21.5 21.99 21.1 22.39 21.1 22.89L21.1 31.09L17.9 31.09C17.4 31.09 17 31.5 17 32C17 32.49 17.4 32.9 17.9 32.9L34.09 32.9C34.59 32.9 35 32.49 35 32C35 31.5 34.59 31.09 34.09 31.09L30.9 31.09L30.9 22.89C30.9 22.39 30.5 21.99 30 21.99C29.5 21.99 29.1 22.39 29.1 22.89L29.1 31.09L26.9 31.09L26.9 22.89Z" fill="#FFBA00" fill-opacity="1.000000" fill-rule="evenodd"/>
		</g>
	</g>
</svg>
