<svg width="48.000000" height="48.000000" viewBox="0 0 48 48" fill="none" xmlns="http://www.w3.org/2000/svg" xmlns:xlink="http://www.w3.org/1999/xlink">
	<desc>
			Created with Pixso.
	</desc>
	<defs>
		<clipPath id="clip298_2803">
			<rect id="coding-language" rx="-0.500000" width="47.000000" height="47.000000" transform="translate(0.500000 0.500000)" fill="white" fill-opacity="0"/>
		</clipPath>
	</defs>
	<rect id="coding-language" rx="-0.500000" width="47.000000" height="47.000000" transform="translate(0.500000 0.500000)" fill="#FFFFFF" fill-opacity="0"/>
	<g clip-path="url(#clip298_2803)">
		<path id="Vector" d="M44.25 10.5L39 10.5L39 3.75C39 3.15 38.76 2.58 38.33 2.16C37.91 1.74 37.34 1.5 36.75 1.5L11.25 1.5C10.65 1.5 10.08 1.74 9.66 2.16C9.23 2.58 9 3.15 9 3.75L9 10.5L3.75 10.5C3.15 10.5 2.58 10.74 2.16 11.16C1.73 11.58 1.5 12.15 1.5 12.75L1.5 36.75C1.5 37.34 1.73 37.91 2.16 38.33C2.58 38.75 3.15 38.99 3.75 39L18.61 39L18.11 42L15.75 42C15.63 42 15.51 42.02 15.41 42.08C15.31 42.13 15.21 42.2 15.14 42.3L12.89 45.3C12.81 45.41 12.76 45.54 12.75 45.68C12.74 45.82 12.76 45.96 12.83 46.08C12.89 46.21 12.98 46.31 13.1 46.39C13.22 46.46 13.35 46.5 13.5 46.5L34.5 46.5C34.64 46.5 34.77 46.46 34.89 46.39C35.01 46.31 35.1 46.21 35.16 46.08C35.23 45.96 35.25 45.82 35.24 45.68C35.23 45.54 35.18 45.41 35.1 45.3L32.85 42.3C32.78 42.2 32.68 42.13 32.58 42.08C32.48 42.02 32.36 42 32.25 42L29.88 42L29.38 39L44.25 39C44.84 38.99 45.41 38.75 45.83 38.33C46.26 37.91 46.5 37.34 46.5 36.75L46.5 12.75C46.5 12.15 46.26 11.58 45.83 11.16C45.41 10.74 44.84 10.5 44.25 10.5ZM10.5 3.75C10.5 3.55 10.57 3.35 10.71 3.21C10.85 3.07 11.05 3 11.25 3L36.75 3C36.94 3 37.14 3.07 37.28 3.21C37.42 3.35 37.5 3.55 37.5 3.75L37.5 7.5L10.5 7.5L10.5 3.75ZM10.5 9L37.5 9L37.5 26.25C37.5 26.44 37.42 26.64 37.28 26.78C37.14 26.92 36.94 27 36.75 27L11.25 27C11.05 27 10.85 26.92 10.71 26.78C10.57 26.64 10.5 26.44 10.5 26.25L10.5 9ZM31.87 43.5L33 45L15 45L16.12 43.5L31.87 43.5ZM19.63 42L20.13 39L27.86 39L28.36 42L19.63 42ZM45 36.75C45 36.94 44.92 37.14 44.78 37.28C44.64 37.42 44.44 37.5 44.25 37.5L3.75 37.5C3.55 37.5 3.35 37.42 3.21 37.28C3.07 37.14 3 36.94 3 36.75L3 34.5L45 34.5L45 36.75ZM45 33L3 33L3 12.75C3 12.55 3.07 12.35 3.21 12.21C3.35 12.07 3.55 12 3.75 12L9 12L9 26.25C9 26.84 9.23 27.41 9.66 27.83C10.08 28.25 10.65 28.49 11.25 28.5L14.25 28.5L14.25 30L9 30L9 31.5L15 31.5C15.19 31.5 15.39 31.42 15.53 31.28C15.67 31.14 15.75 30.94 15.75 30.75L15.75 28.5L20.25 28.5L20.25 31.5L21.75 31.5L21.75 28.5L26.25 28.5L26.25 31.5L27.75 31.5L27.75 28.5L32.25 28.5L32.25 30.75C32.25 30.94 32.32 31.14 32.46 31.28C32.6 31.42 32.8 31.5 33 31.5L39 31.5L39 30L33.75 30L33.75 28.5L36.75 28.5C37.34 28.49 37.91 28.25 38.33 27.83C38.76 27.41 39 26.84 39 26.25L39 12L44.25 12C44.44 12 44.64 12.07 44.78 12.21C44.92 12.35 45 12.55 45 12.75L45 33Z" fill="#80A948" fill-opacity="1.000000" fill-rule="nonzero"/>
		<path id="Vector" d="M34.5 4.5L36 4.5L36 6L34.5 6L34.5 4.5Z" fill="#80A948" fill-opacity="1.000000" fill-rule="nonzero"/>
		<path id="Vector" d="M31.5 4.5L33 4.5L33 6L31.5 6L31.5 4.5Z" fill="#80A948" fill-opacity="1.000000" fill-rule="nonzero"/>
		<path id="Vector" d="M28.5 4.5L30 4.5L30 6L28.5 6L28.5 4.5Z" fill="#80A948" fill-opacity="1.000000" fill-rule="nonzero"/>
		<path id="Vector" d="M19.71 12.96L15.21 17.46C15.07 17.6 15 17.8 15 17.99C15 18.19 15.07 18.38 15.21 18.52L19.71 23.02L20.78 21.96L16.8 17.99L20.78 14.02L19.71 12.96Z" fill="#80A948" fill-opacity="1.000000" fill-rule="nonzero"/>
		<path id="Vector" d="M28.27 12.96L27.21 14.02L31.18 17.99L27.21 21.96L28.27 23.02L32.77 18.52C32.91 18.38 33 18.19 33 17.99C33 17.8 32.91 17.6 32.77 17.46L28.27 12.96Z" fill="#80A948" fill-opacity="1.000000" fill-rule="nonzero"/>
		<path id="Vector" d="M21.03 24.5L25.53 10.99L26.96 11.46L22.46 24.97L21.03 24.5Z" fill="#80A948" fill-opacity="1.000000" fill-rule="nonzero"/>
	</g>
</svg>
