<svg width="52.000000" height="52.000000" viewBox="0 0 52 52" fill="none" xmlns="http://www.w3.org/2000/svg" xmlns:xlink="http://www.w3.org/1999/xlink">
	<desc>
			Created with Pixso.
	</desc>
	<defs>
		<filter id="filter_298_2576_dd" x="0.000000" y="0.000000" width="52.000000" height="52.000000" filterUnits="userSpaceOnUse" color-interpolation-filters="sRGB">
			<feFlood flood-opacity="0" result="BackgroundImageFix"/>
			<feColorMatrix in="SourceAlpha" type="matrix" values="0 0 0 0 0 0 0 0 0 0 0 0 0 0 0 0 0 0 127 0" result="hardAlpha"/>
			<feOffset dx="0" dy="2"/>
			<feGaussianBlur stdDeviation="1.33333"/>
			<feComposite in2="hardAlpha" operator="out" k2="-1" k3="1"/>
			<feColorMatrix type="matrix" values="0 0 0 0 0 0 0 0 0 0 0 0 0 0 0 0 0 0 0.078 0"/>
			<feBlend mode="normal" in2="BackgroundImageFix" result="effect_dropShadow_1"/>
			<feBlend mode="normal" in="SourceGraphic" in2="effect_dropShadow_1" result="shape"/>
		</filter>
		<clipPath id="clip298_2577">
			<rect id="employee_outline_24" rx="-0.500000" width="23.000000" height="23.000000" transform="translate(14.500000 12.500000)" fill="white" fill-opacity="0"/>
		</clipPath>
	</defs>
	<g filter="url(#filter_298_2576_dd)">
		<rect id="construction" rx="21.500000" width="43.000000" height="43.000000" transform="translate(4.500000 2.500000)" fill="#FFFFFF" fill-opacity="1.000000"/>
		<g clip-path="url(#clip298_2577)">
			<path id="↳ Icon Color" d="M26.9 14C26.9 13.5 26.5 13.09 26 13.09C25.5 13.09 25.1 13.5 25.1 14L25.1 14.17C22.8 14.55 21 16.39 20.66 18.7L20.58 18.68C20.45 18.66 20.34 18.64 20.27 18.63C20.24 18.62 20.21 18.62 20.19 18.62L20.17 18.61L20.17 18.61C19.69 18.51 19.21 18.83 19.11 19.32C19.02 19.81 19.33 20.28 19.82 20.38L19.82 20.38L19.82 20.38L19.83 20.38L19.86 20.38C19.88 20.39 19.91 20.39 19.95 20.4C20.03 20.42 20.15 20.44 20.3 20.46C20.56 20.5 20.92 20.56 21.36 20.61C21.35 20.72 21.35 20.83 21.35 20.94C21.35 23.51 23.43 25.59 26 25.59C28.57 25.59 30.65 23.51 30.65 20.94C30.65 20.83 30.64 20.72 30.64 20.61C31.08 20.56 31.44 20.5 31.69 20.46C31.85 20.44 31.96 20.42 32.04 20.4C32.08 20.39 32.12 20.39 32.14 20.38L32.16 20.38L32.17 20.38L32.17 20.38L32.17 20.38C32.66 20.28 32.98 19.81 32.88 19.32C32.78 18.83 32.31 18.51 31.82 18.61L31.82 18.61L31.8 18.62C31.78 18.62 31.76 18.62 31.72 18.63C31.65 18.64 31.55 18.66 31.41 18.68L31.34 18.7C31 16.39 29.19 14.55 26.9 14.17L26.9 14ZM25.1 16.01C25.1 16.5 25.5 16.9 26 16.9C26.49 16.9 26.89 16.5 26.9 16.01C28.27 16.36 29.32 17.5 29.55 18.92C28.59 19.01 27.37 19.09 26 19.09C24.62 19.09 23.41 19.01 22.44 18.92C22.67 17.5 23.73 16.36 25.1 16.01ZM23.15 20.79C23.15 20.84 23.15 20.89 23.15 20.94C23.15 22.52 24.42 23.79 26 23.79C27.57 23.79 28.85 22.52 28.85 20.94C28.85 20.89 28.85 20.84 28.84 20.79C28.01 20.85 27.05 20.9 26 20.9C24.95 20.9 23.99 20.85 23.15 20.79ZM19.92 32.08C19.89 32.04 19.89 31.96 19.89 31.76C19.89 31.67 19.9 31.56 19.9 31.42C19.9 29.53 22.67 28.4 26 28.4C29.32 28.4 32.1 29.53 32.1 31.42C32.1 31.56 32.1 31.67 32.1 31.76C32.11 31.96 32.11 32.04 32.07 32.08C32.04 32.1 31.98 32.1 31.89 32.1C31.85 32.1 31.81 32.09 31.76 32.09L20.23 32.09C20.18 32.09 20.14 32.1 20.1 32.1C20.01 32.1 19.96 32.1 19.92 32.08ZM26 26.59C21.77 26.59 18.1 28.1 18.1 31.42C18.1 33.16 18.78 33.9 20.23 33.9L31.76 33.9C33.21 33.9 33.9 33.16 33.9 31.42C33.9 28.1 30.23 26.59 26 26.59Z" fill="#FFBA00" fill-opacity="1.000000" fill-rule="evenodd"/>
		</g>
	</g>
</svg>
