<svg width="60.000000" height="60.000000" viewBox="0 0 60 60" fill="none" xmlns="http://www.w3.org/2000/svg" xmlns:xlink="http://www.w3.org/1999/xlink">
	<desc>
			Created with Pixso.
	</desc>
	<defs/>
	<path id="↳ Icon Color" d="M32.12 30L38.48 36.36C39.07 36.94 39.07 37.9 38.48 38.48C37.9 39.07 36.95 39.07 36.36 38.48L30 32.12L23.63 38.48C23.05 39.07 22.1 39.07 21.51 38.48C20.92 37.9 20.92 36.94 21.51 36.36L27.87 30L21.51 23.63C20.92 23.05 20.92 22.09 21.51 21.51C22.1 20.92 23.05 20.92 23.63 21.51L30 27.87L36.36 21.51C36.95 20.92 37.9 20.92 38.48 21.51C39.07 22.09 39.07 23.05 38.48 23.63L32.12 30Z" fill="#98A2B3" fill-opacity="1.000000" fill-rule="nonzero"/>
</svg>
