<svg width="24.000000" height="24.000000" viewBox="0 0 24 24" fill="none" xmlns="http://www.w3.org/2000/svg" xmlns:xlink="http://www.w3.org/1999/xlink">
	<desc>
			Created with Pixso.
	</desc>
	<defs>
		<clipPath id="clip298_2654">
			<rect id="estate" rx="-0.428571" width="23.142857" height="23.142857" transform="translate(0.428571 0.428571)" fill="white" fill-opacity="0"/>
		</clipPath>
	</defs>
	<g clip-path="url(#clip298_2654)">
		<path id="↳ Icon Color" d="M11.16 3.09L11.2 3.09L12.8 3.09L12.83 3.09L12.83 3.09C13.36 3.09 13.81 3.09 14.18 3.12C14.57 3.16 14.95 3.23 15.31 3.41C15.86 3.69 16.3 4.13 16.58 4.68C16.76 5.04 16.83 5.42 16.87 5.81C16.89 6.16 16.9 6.59 16.9 7.09L17.8 7.09L17.83 7.09C18.36 7.09 18.81 7.09 19.18 7.12C19.57 7.16 19.95 7.23 20.31 7.41C20.86 7.69 21.3 8.13 21.58 8.68C21.76 9.04 21.83 9.42 21.87 9.81C21.9 10.18 21.9 10.63 21.9 11.16L21.9 11.16L21.9 11.16L21.9 11.19L21.9 12.59L21.9 12.63C21.9 13.02 21.9 13.37 21.87 13.65C21.85 13.96 21.79 14.28 21.64 14.58C21.41 15.04 21.04 15.4 20.58 15.63C20.36 15.75 20.12 15.81 19.9 15.84L19.9 16.4L19.9 16.43C19.9 17.03 19.9 17.53 19.86 17.95C19.83 18.38 19.75 18.79 19.55 19.17C19.25 19.77 18.77 20.25 18.17 20.55C17.79 20.75 17.38 20.83 16.95 20.86C16.53 20.9 16.03 20.9 15.43 20.9L15.43 20.9L15.4 20.9L8.6 20.9L8.56 20.9L8.56 20.9C7.96 20.9 7.46 20.9 7.05 20.86C6.62 20.83 6.21 20.75 5.82 20.55C5.23 20.25 4.74 19.77 4.44 19.17C4.24 18.79 4.17 18.38 4.13 17.95C4.1 17.53 4.1 17.03 4.1 16.43L4.1 16.4L4.1 15.84C3.87 15.81 3.64 15.75 3.41 15.63C2.96 15.4 2.59 15.04 2.36 14.58C2.2 14.28 2.14 13.96 2.12 13.65C2.1 13.37 2.1 13.02 2.1 12.63L2.1 12.63L2.1 12.59L2.1 11.19L2.1 11.16L2.1 11.16C2.1 10.63 2.1 10.18 2.13 9.81C2.16 9.42 2.23 9.04 2.41 8.68C2.69 8.13 3.14 7.69 3.68 7.41C4.04 7.23 4.42 7.16 4.81 7.12C5.18 7.09 5.63 7.09 6.16 7.09L6.2 7.09L7.1 7.09C7.1 6.59 7.1 6.16 7.13 5.81C7.16 5.42 7.23 5.04 7.41 4.68C7.69 4.13 8.14 3.69 8.68 3.41C9.04 3.23 9.42 3.16 9.81 3.12C10.18 3.09 10.63 3.09 11.16 3.09L11.16 3.09ZM5.4 14.09L18.6 14.09C19.03 14.09 19.3 14.09 19.51 14.08C19.7 14.06 19.76 14.04 19.77 14.03C19.88 13.97 19.98 13.88 20.03 13.77C20.04 13.75 20.06 13.7 20.08 13.51C20.1 13.3 20.1 13.03 20.1 12.59L20.1 11.19C20.1 10.62 20.1 10.24 20.07 9.95C20.05 9.68 20.01 9.56 19.98 9.5C19.87 9.29 19.7 9.12 19.5 9.01C19.43 8.98 19.32 8.94 19.04 8.92C18.75 8.9 18.37 8.9 17.8 8.9L16.9 8.9L16.9 8.9L16 8.9L8 8.9L7.1 8.9L7.1 8.9L6.2 8.9C5.62 8.9 5.25 8.9 4.96 8.92C4.68 8.94 4.56 8.98 4.5 9.01C4.29 9.12 4.12 9.29 4.01 9.5C3.98 9.56 3.94 9.68 3.92 9.95C3.9 10.24 3.9 10.62 3.9 11.19L3.9 12.59C3.9 13.03 3.9 13.3 3.91 13.51C3.93 13.7 3.96 13.75 3.96 13.77C4.02 13.88 4.11 13.97 4.23 14.03C4.24 14.04 4.29 14.06 4.48 14.08C4.69 14.09 4.96 14.09 5.4 14.09ZM5.9 15.9L5.9 16.4C5.9 17.04 5.9 17.47 5.92 17.8C5.95 18.12 6 18.26 6.04 18.36C6.17 18.61 6.38 18.82 6.64 18.95C6.73 19 6.87 19.04 7.19 19.07C7.52 19.09 7.95 19.09 8.6 19.09L15.4 19.09C16.04 19.09 16.47 19.09 16.8 19.07C17.12 19.04 17.27 19 17.36 18.95C17.61 18.82 17.82 18.61 17.95 18.36C18 18.26 18.04 18.12 18.07 17.8C18.1 17.47 18.1 17.04 18.1 16.4L18.1 15.9L5.9 15.9ZM15.07 5.95C15.09 6.23 15.1 6.58 15.1 7.09L8.9 7.09C8.9 6.58 8.9 6.23 8.92 5.95C8.94 5.68 8.98 5.56 9.01 5.5C9.12 5.29 9.29 5.12 9.5 5.01C9.56 4.98 9.68 4.94 9.96 4.92C10.25 4.9 10.62 4.9 11.2 4.9L12.8 4.9C13.37 4.9 13.75 4.9 14.04 4.92C14.32 4.94 14.43 4.98 14.5 5.01C14.7 5.12 14.87 5.29 14.98 5.5C15.01 5.56 15.05 5.68 15.07 5.95Z" fill="#FFBA00" fill-opacity="1.000000" fill-rule="evenodd"/>
	</g>
</svg>
