<svg width="52.000000" height="52.000000" viewBox="0 0 52 52" fill="none" xmlns="http://www.w3.org/2000/svg" xmlns:xlink="http://www.w3.org/1999/xlink">
	<desc>
			Created with Pixso.
	</desc>
	<defs>
		<filter id="filter_298_2580_dd" x="0.000000" y="0.000000" width="52.000000" height="52.000000" filterUnits="userSpaceOnUse" color-interpolation-filters="sRGB">
			<feFlood flood-opacity="0" result="BackgroundImageFix"/>
			<feColorMatrix in="SourceAlpha" type="matrix" values="0 0 0 0 0 0 0 0 0 0 0 0 0 0 0 0 0 0 127 0" result="hardAlpha"/>
			<feOffset dx="0" dy="2"/>
			<feGaussianBlur stdDeviation="1.33333"/>
			<feComposite in2="hardAlpha" operator="out" k2="-1" k3="1"/>
			<feColorMatrix type="matrix" values="0 0 0 0 0 0 0 0 0 0 0 0 0 0 0 0 0 0 0.078 0"/>
			<feBlend mode="normal" in2="BackgroundImageFix" result="effect_dropShadow_1"/>
			<feBlend mode="normal" in="SourceGraphic" in2="effect_dropShadow_1" result="shape"/>
		</filter>
		<clipPath id="clip298_2581">
			<rect id="game_outline_24" rx="-0.500000" width="23.000000" height="23.000000" transform="translate(14.500000 12.500000)" fill="white" fill-opacity="0"/>
		</clipPath>
	</defs>
	<g filter="url(#filter_298_2580_dd)">
		<rect id="game" rx="21.500000" width="43.000000" height="43.000000" transform="translate(4.500000 2.500000)" fill="#FFFFFF" fill-opacity="1.000000"/>
		<g clip-path="url(#clip298_2581)">
			<path id="↳ Icon Color" d="M31.12 16.19C34.02 16.19 35.95 18.03 37.01 21.07C37.72 23.1 38 25.47 38 27.81C38 31.22 37.16 32.57 34.6 32.57C33.35 32.57 32.49 31.77 30.97 29.81C29.75 28.23 29.28 27.75 29.12 27.75L22.87 27.75C22.67 27.75 22.03 28.36 20.83 29.81L20.82 29.83C19.03 31.98 18.43 32.57 17.39 32.57C14.83 32.57 14 31.22 14 27.81C14 25.47 14.27 23.1 14.98 21.07C16.04 18.03 17.97 16.19 20.87 16.19L31.12 16.19ZM31.12 18L20.87 18C17.26 18 15.8 22.2 15.8 27.81C15.8 30.35 16.05 30.77 17.39 30.77C17.58 30.77 18.21 30.15 19.43 28.68L19.44 28.66C21.19 26.55 21.82 25.94 22.87 25.94L29.12 25.94C30.19 25.94 30.53 26.3 32.39 28.7C33.51 30.15 34.18 30.77 34.6 30.77C35.94 30.77 36.19 30.35 36.19 27.81C36.19 22.2 34.73 18 31.12 18ZM21.14 19.71C21.45 19.71 21.71 19.97 21.71 20.28L21.71 21.42L22.85 21.42C23.17 21.42 23.42 21.68 23.42 22L23.42 22.56C23.42 22.88 23.17 23.14 22.85 23.14L21.71 23.14L21.71 24.28C21.71 24.59 21.45 24.85 21.14 24.85L20.57 24.85C20.25 24.85 20 24.59 20 24.28L20 23.14L18.85 23.14C18.54 23.14 18.28 22.88 18.28 22.56L18.28 22C18.28 21.68 18.54 21.42 18.85 21.42L20 21.42L20 20.28C20 19.97 20.25 19.71 20.57 19.71L21.14 19.71ZM31.42 23.14C31.74 23.14 32 23.39 32 23.71L32 24.28C32 24.59 31.74 24.85 31.42 24.85L30.85 24.85C30.54 24.85 30.28 24.59 30.28 24.28L30.28 23.71C30.28 23.39 30.54 23.14 30.85 23.14L31.42 23.14ZM29.71 21.42C30.02 21.42 30.28 21.68 30.28 22L30.28 22.56C30.28 22.88 30.02 23.14 29.71 23.14L29.14 23.14C28.82 23.14 28.57 22.88 28.57 22.56L28.57 22C28.57 21.68 28.82 21.42 29.14 21.42L29.71 21.42ZM33.14 21.42C33.45 21.42 33.71 21.68 33.71 22L33.71 22.56C33.71 22.88 33.45 23.14 33.14 23.14L32.57 23.14C32.25 23.14 32 22.88 32 22.56L32 22C32 21.68 32.25 21.42 32.57 21.42L33.14 21.42ZM31.42 19.71C31.74 19.71 32 19.97 32 20.28L32 20.85C32 21.16 31.74 21.42 31.42 21.42L30.85 21.42C30.54 21.42 30.28 21.16 30.28 20.85L30.28 20.28C30.28 19.97 30.54 19.71 30.85 19.71L31.42 19.71Z" fill="#FFBA00" fill-opacity="1.000000" fill-rule="nonzero"/>
		</g>
	</g>
</svg>
