<svg width="136.000000" height="40.000000" viewBox="0 0 136 40" fill="none" xmlns="http://www.w3.org/2000/svg" xmlns:xlink="http://www.w3.org/1999/xlink">
	<desc>
			Created with Pixso.
	</desc>
	<defs>
		<linearGradient x1="18.023365" y1="8.710794" x2="13.437468" y2="25.493315" id="paint_linear_298_2717_0" gradientUnits="userSpaceOnUse">
			<stop stop-color="#00A0FF"/>
			<stop offset="0.006570" stop-color="#00A1FF"/>
			<stop offset="0.260100" stop-color="#00BEFF"/>
			<stop offset="0.512200" stop-color="#00D2FF"/>
			<stop offset="0.760400" stop-color="#00DFFF"/>
			<stop offset="1.000000" stop-color="#00E3FF"/>
		</linearGradient>
		<linearGradient x1="34.083389" y1="19.930223" x2="9.707170" y2="19.930223" id="paint_linear_298_2718_0" gradientUnits="userSpaceOnUse">
			<stop stop-color="#FFE000"/>
			<stop offset="0.408700" stop-color="#FFBD00"/>
			<stop offset="0.775400" stop-color="#FFA500"/>
			<stop offset="1.000000" stop-color="#FF9C00"/>
		</linearGradient>
		<linearGradient x1="25.018219" y1="23.928549" x2="2.185377" y2="37.299301" id="paint_linear_298_2719_0" gradientUnits="userSpaceOnUse">
			<stop stop-color="#FF3A44"/>
			<stop offset="1.000000" stop-color="#C31162"/>
		</linearGradient>
		<linearGradient x1="7.369068" y1="5.773706" x2="17.549271" y2="11.744109" id="paint_linear_298_2720_0" gradientUnits="userSpaceOnUse">
			<stop stop-color="#32A071"/>
			<stop offset="0.068500" stop-color="#2DA771"/>
			<stop offset="0.476200" stop-color="#15CF74"/>
			<stop offset="0.800900" stop-color="#06E775"/>
			<stop offset="1.000000" stop-color="#00F076"/>
		</linearGradient>
		<linearGradient x1="25.009768" y1="26.794235" x2="2.082858" y2="33.042759" id="paint_linear_298_2721_0" gradientUnits="userSpaceOnUse">
			<stop stop-color="#CC2E36"/>
			<stop offset="1.000000" stop-color="#9C0E4E"/>
		</linearGradient>
		<linearGradient x1="11.709614" y1="8.710365" x2="9.688198" y2="25.492966" id="paint_linear_298_2722_0" gradientUnits="userSpaceOnUse">
			<stop stop-color="#008DE0"/>
			<stop offset="0.006570" stop-color="#008DE0"/>
			<stop offset="0.260100" stop-color="#00A7E0"/>
			<stop offset="0.512200" stop-color="#00B8E0"/>
			<stop offset="0.760400" stop-color="#00C4E0"/>
			<stop offset="1.000000" stop-color="#00C7E0"/>
		</linearGradient>
		<linearGradient x1="34.086407" y1="20.000950" x2="9.710102" y2="20.000950" id="paint_linear_298_2723_0" gradientUnits="userSpaceOnUse">
			<stop stop-color="#E0C500"/>
			<stop offset="0.408700" stop-color="#E0A600"/>
			<stop offset="0.775400" stop-color="#E09100"/>
			<stop offset="1.000000" stop-color="#E08900"/>
		</linearGradient>
		<linearGradient x1="34.086815" y1="20.000988" x2="9.710562" y2="20.000988" id="paint_linear_298_2724_0" gradientUnits="userSpaceOnUse">
			<stop stop-color="#FFE840"/>
			<stop offset="0.408700" stop-color="#FFCE40"/>
			<stop offset="0.775400" stop-color="#FFBC40"/>
			<stop offset="1.000000" stop-color="#FFB540"/>
		</linearGradient>
		<linearGradient x1="11.699322" y1="8.727030" x2="9.692011" y2="24.758415" id="paint_linear_298_2725_0" gradientUnits="userSpaceOnUse">
			<stop stop-color="#40B8FF"/>
			<stop offset="0.006570" stop-color="#40B9FF"/>
			<stop offset="0.260100" stop-color="#40CEFF"/>
			<stop offset="0.512200" stop-color="#40DDFF"/>
			<stop offset="0.760400" stop-color="#40E7FF"/>
			<stop offset="1.000000" stop-color="#40EAFF"/>
		</linearGradient>
		<linearGradient x1="7.350264" y1="8.395422" x2="17.588043" y2="11.185859" id="paint_linear_298_2726_0" gradientUnits="userSpaceOnUse">
			<stop stop-color="#65B895"/>
			<stop offset="0.068500" stop-color="#62BD95"/>
			<stop offset="0.476200" stop-color="#50DB97"/>
			<stop offset="0.800900" stop-color="#44ED98"/>
			<stop offset="1.000000" stop-color="#40F498"/>
		</linearGradient>
	</defs>
	<rect id="Frame 10782" rx="-0.500000" width="135.000000" height="39.000000" transform="translate(0.500000 0.500000)" fill="#FFFFFF" fill-opacity="0"/>
	<path id="Vector" d="M130.96 40L5.03 40C2.26 40 0 37.75 0 35L0 5C0 2.25 2.26 0 5.03 0L130.96 0C133.73 0 136 2.25 136 5L136 35C136 37.75 133.73 40 130.96 40Z" fill="#000000" fill-opacity="1.000000" fill-rule="nonzero"/>
	<path id="Vector" d="M130.96 0L5.03 0C2.26 0 0 2.25 0 5L0 35C0 37.75 2.26 40 5.03 40L130.96 40C133.73 40 136 37.75 136 35L136 5C136 2.25 133.73 0 130.96 0L130.96 0ZM130.96 0.8C133.29 0.8 135.19 2.68 135.19 5L135.19 35C135.19 37.31 133.29 39.2 130.96 39.2L5.03 39.2C2.7 39.2 0.8 37.31 0.8 35L0.8 5C0.8 2.68 2.7 0.8 5.03 0.8L130.96 0.8Z" fill="#A6A6A6" fill-opacity="1.000000" fill-rule="nonzero"/>
	<path id="Vector" d="M47.77 10.24C47.77 11.08 47.52 11.74 47.01 12.24C46.45 12.83 45.71 13.13 44.8 13.13C43.92 13.13 43.18 12.83 42.57 12.23C41.96 11.63 41.66 10.88 41.66 10C41.66 9.11 41.96 8.36 42.57 7.76C43.18 7.16 43.92 6.86 44.8 6.86C45.23 6.86 45.64 6.94 46.04 7.11C46.43 7.28 46.75 7.5 46.98 7.78L46.45 8.31C46.05 7.83 45.5 7.6 44.8 7.6C44.16 7.6 43.61 7.82 43.14 8.26C42.68 8.71 42.45 9.29 42.45 10C42.45 10.7 42.68 11.28 43.14 11.73C43.61 12.17 44.16 12.39 44.8 12.39C45.47 12.39 46.03 12.17 46.48 11.72C46.78 11.43 46.94 11.03 46.99 10.51L44.8 10.51L44.8 9.79L47.73 9.79C47.75 9.94 47.76 10.09 47.76 10.24L47.77 10.24Z" fill="#FFFFFF" fill-opacity="1.000000" fill-rule="nonzero"/>
	<path id="Vector" d="M47.76 10.24L47.66 10.24C47.66 11.06 47.42 11.69 46.94 12.17L46.94 12.17L46.94 12.17C46.39 12.74 45.68 13.03 44.8 13.03C43.94 13.03 43.23 12.74 42.64 12.16C42.05 11.57 41.76 10.86 41.76 10C41.76 9.13 42.05 8.42 42.64 7.83C43.23 7.25 43.94 6.96 44.8 6.96C45.21 6.96 45.62 7.04 46 7.2C46.38 7.37 46.68 7.58 46.91 7.85L46.98 7.78L46.91 7.71L46.38 8.24L46.45 8.31L46.53 8.25C46.11 7.75 45.52 7.5 44.8 7.5C44.14 7.5 43.55 7.73 43.07 8.19C42.59 8.66 42.35 9.26 42.35 10C42.35 10.73 42.59 11.33 43.07 11.8C43.55 12.26 44.14 12.49 44.8 12.49C45.49 12.49 46.08 12.26 46.55 11.79C46.87 11.48 47.04 11.05 47.09 10.51L47.1 10.41L44.89 10.41L44.89 9.89L47.72 9.89L47.72 9.79L47.62 9.8C47.65 9.95 47.66 10.1 47.66 10.24L47.87 10.24C47.87 10.09 47.85 9.93 47.82 9.77L47.81 9.69L44.69 9.69L44.69 10.61L46.99 10.61L46.99 10.51L46.89 10.5C46.85 11 46.68 11.38 46.41 11.65C45.98 12.08 45.45 12.29 44.8 12.29C44.18 12.29 43.66 12.08 43.21 11.65C42.77 11.23 42.55 10.68 42.55 10C42.55 9.31 42.77 8.76 43.21 8.34C43.66 7.91 44.18 7.7 44.8 7.7C45.48 7.7 45.99 7.92 46.37 8.37L46.44 8.46L47.05 7.85L47.12 7.79L47.06 7.72C46.81 7.42 46.48 7.19 46.07 7.02C45.67 6.85 45.24 6.76 44.8 6.76C43.9 6.76 43.13 7.07 42.5 7.69C41.87 8.31 41.55 9.08 41.55 10C41.55 10.91 41.87 11.68 42.5 12.3C43.13 12.92 43.9 13.23 44.8 13.23C45.73 13.23 46.5 12.92 47.09 12.31L47.01 12.24L47.08 12.31C47.61 11.79 47.87 11.09 47.87 10.24L47.76 10.24L47.76 10.24ZM52.41 7.73L49.66 7.73L49.66 9.63L52.14 9.63L52.14 10.36L49.66 10.36L49.66 12.26L52.41 12.26L52.41 13L48.88 13L48.88 7L52.41 7L52.41 7.73Z" fill="#FFFFFF" fill-opacity="1.000000" fill-rule="nonzero"/>
	<path id="Vector" d="M52.41 7.73L52.41 7.63L49.56 7.63L49.56 9.74L52.04 9.74L52.04 10.25L49.56 10.26L49.56 12.36L52.31 12.36L52.31 12.9L48.98 12.9L48.98 7.09L52.31 7.09L52.31 7.73L52.41 7.73L52.41 7.63L52.41 7.73L52.51 7.73L52.51 6.9L48.78 6.9L48.78 13.09L52.51 13.09L52.51 12.16L49.76 12.16L49.76 10.46L52.24 10.46L52.24 9.53L49.76 9.53L49.76 7.83L52.51 7.83L52.51 7.73L52.41 7.73ZM55.69 13L54.91 13L54.91 7.73L53.22 7.73L53.22 7L57.37 7L57.37 7.73L55.69 7.73L55.69 13Z" fill="#FFFFFF" fill-opacity="1.000000" fill-rule="nonzero"/>
	<path id="Vector" d="M55.68 13L55.68 12.9L55.01 12.9L55.01 7.63L53.32 7.63L53.32 7.09L57.27 7.09L57.27 7.63L55.58 7.63L55.58 13L55.68 13L55.68 12.9L55.68 13L55.78 13L55.78 7.83L57.47 7.83L57.47 6.9L53.12 6.9L53.12 7.83L54.8 7.83L54.8 13.09L55.78 13.09L55.78 13L55.68 13L55.68 13ZM60.37 13L60.37 7L61.15 7L61.15 13L60.37 13Z" fill="#FFFFFF" fill-opacity="1.000000" fill-rule="nonzero"/>
	<path id="Vector" d="M60.38 13L60.48 13L60.48 7.09L61.05 7.09L61.05 12.9L60.38 12.9L60.38 13L60.48 13L60.38 13L60.38 13.09L61.25 13.09L61.25 6.9L60.28 6.9L60.28 13.09L60.38 13.09L60.38 13L60.38 13ZM64.6 13L63.82 13L63.82 7.73L62.13 7.73L62.13 7L66.29 7L66.29 7.73L64.6 7.73L64.6 13Z" fill="#FFFFFF" fill-opacity="1.000000" fill-rule="nonzero"/>
	<path id="Vector" d="M64.6 13L64.6 12.9L63.92 12.9L63.92 7.63L62.24 7.63L62.24 7.09L66.19 7.09L66.19 7.63L64.5 7.63L64.5 13L64.6 13L64.6 12.9L64.6 13L64.7 13L64.7 7.83L66.39 7.83L66.39 6.9L62.03 6.9L62.03 7.83L63.72 7.83L63.72 13.09L64.7 13.09L64.7 13L64.6 13L64.6 13ZM70.29 11.72C70.74 12.17 71.29 12.39 71.94 12.39C72.58 12.39 73.13 12.17 73.58 11.72C74.03 11.27 74.25 10.69 74.25 10C74.25 9.3 74.03 8.72 73.58 8.27C73.13 7.82 72.58 7.6 71.94 7.6C71.29 7.6 70.74 7.82 70.29 8.27C69.85 8.72 69.62 9.3 69.62 10C69.62 10.69 69.85 11.27 70.29 11.72ZM74.15 12.22C73.56 12.83 72.82 13.13 71.94 13.13C71.05 13.13 70.31 12.83 69.72 12.22C69.12 11.61 68.83 10.87 68.83 10C68.83 9.12 69.12 8.38 69.72 7.77C70.31 7.16 71.05 6.86 71.94 6.86C72.81 6.86 73.55 7.16 74.15 7.77C74.75 8.38 75.04 9.12 75.04 10C75.04 10.87 74.75 11.61 74.15 12.22Z" fill="#FFFFFF" fill-opacity="1.000000" fill-rule="nonzero"/>
	<path id="Vector" d="M70.29 11.72L70.22 11.79C70.68 12.25 71.26 12.49 71.93 12.49C72.6 12.49 73.18 12.25 73.65 11.79C74.11 11.32 74.35 10.71 74.35 10C74.35 9.28 74.11 8.67 73.65 8.2C73.18 7.74 72.6 7.5 71.93 7.5C71.26 7.5 70.68 7.74 70.22 8.2C69.75 8.67 69.52 9.28 69.52 10C69.52 10.71 69.75 11.32 70.22 11.79L70.29 11.72L70.36 11.65C69.93 11.22 69.72 10.67 69.72 10C69.72 9.32 69.93 8.77 70.36 8.34C70.79 7.91 71.31 7.7 71.93 7.7C72.56 7.7 73.07 7.91 73.5 8.34C73.93 8.77 74.14 9.32 74.14 10C74.14 10.67 73.93 11.22 73.5 11.65C73.07 12.08 72.56 12.29 71.93 12.29C71.31 12.29 70.79 12.08 70.36 11.65L70.29 11.72ZM74.15 12.22L74.08 12.15C73.5 12.74 72.79 13.03 71.93 13.03C71.07 13.03 70.37 12.74 69.79 12.15L69.78 12.15L69.79 12.15C69.21 11.56 68.93 10.85 68.93 10C68.93 9.14 69.21 8.43 69.79 7.84C70.37 7.25 71.07 6.96 71.93 6.96C72.79 6.96 73.49 7.25 74.07 7.84C74.65 8.44 74.94 9.15 74.94 10C74.94 10.85 74.65 11.56 74.08 12.15L74.15 12.22L74.22 12.29C74.83 11.67 75.14 10.89 75.14 10C75.14 9.1 74.83 8.33 74.22 7.7C73.6 7.08 72.83 6.76 71.93 6.76C71.03 6.76 70.25 7.08 69.64 7.7L69.64 7.7C69.03 8.32 68.73 9.1 68.73 10C68.73 10.89 69.03 11.67 69.64 12.29L69.65 12.29L69.64 12.29C70.25 12.91 71.03 13.23 71.93 13.23C72.84 13.23 73.61 12.91 74.22 12.29L74.15 12.22ZM76.13 13L76.13 7L77.07 7L80.01 11.66L80.05 11.66L80.01 10.51L80.01 7L80.79 7L80.79 13L79.98 13L76.91 8.1L76.87 8.1L76.91 9.26L76.91 13L76.13 13Z" fill="#FFFFFF" fill-opacity="1.000000" fill-rule="nonzero"/>
	<path id="Vector" d="M76.13 13L76.23 13L76.23 7.09L77.02 7.09L79.96 11.76L80.15 11.76L80.12 10.5L80.12 7.09L80.69 7.09L80.69 12.9L80.04 12.9L76.96 8L76.77 8L76.81 9.26L76.81 12.9L76.13 12.9L76.13 13L76.23 13L76.13 13L76.13 13.09L77.01 13.09L77.01 9.26L76.98 8.1L76.87 8.1L76.87 8.2L76.91 8.2L76.91 8.1L76.82 8.16L79.92 13.09L80.89 13.09L80.89 6.9L79.91 6.9L79.91 10.51L79.95 11.66L80.05 11.66L80.05 11.56L80.01 11.56L80.01 11.66L80.1 11.61L77.13 6.9L76.03 6.9L76.03 13.09L76.13 13.09L76.13 13L76.13 13ZM107.73 30L109.6 30L109.6 17.5L107.73 17.5L107.73 30ZM124.66 22L122.5 27.42L122.44 27.42L120.2 22L118.18 22L121.53 29.57L119.62 33.79L121.58 33.79L126.75 22L124.66 22ZM114 28.58C113.38 28.58 112.52 28.27 112.52 27.51C112.52 26.55 113.59 26.18 114.52 26.18C115.34 26.18 115.73 26.36 116.23 26.6C116.09 27.75 115.08 28.58 114 28.58ZM114.22 21.72C112.86 21.72 111.45 22.32 110.87 23.64L112.54 24.33C112.89 23.64 113.56 23.41 114.26 23.41C115.23 23.41 116.21 23.99 116.23 25.02L116.23 25.15C115.89 24.96 115.16 24.67 114.27 24.67C112.47 24.67 110.64 25.65 110.64 27.48C110.64 29.16 112.12 30.23 113.77 30.23C115.03 30.23 115.73 29.67 116.17 29.01L116.23 29.01L116.23 29.98L118.05 29.98L118.05 25.18C118.05 22.96 116.38 21.72 114.22 21.72ZM102.6 23.52L99.93 23.52L99.93 19.23L102.6 19.23C104.01 19.23 104.81 20.39 104.81 21.38C104.81 22.34 104.01 23.52 102.6 23.52ZM102.56 17.5L98.05 17.5L98.05 30L99.93 30L99.93 25.26L102.56 25.26C104.64 25.26 106.69 23.76 106.69 21.38C106.69 18.99 104.64 17.5 102.56 17.5ZM78 28.58C76.7 28.58 75.61 27.5 75.61 26.02C75.61 24.52 76.7 23.42 78 23.42C79.28 23.42 80.28 24.52 80.28 26.02C80.28 27.5 79.28 28.58 78 28.58L78 28.58ZM80.16 22.7L80.09 22.7C79.67 22.2 78.85 21.75 77.83 21.75C75.69 21.75 73.73 23.62 73.73 26.02C73.73 28.4 75.69 30.25 77.83 30.25C78.85 30.25 79.67 29.8 80.09 29.29L80.16 29.29L80.16 29.9C80.16 31.53 79.28 32.4 77.87 32.4C76.71 32.4 76 31.58 75.71 30.88L74.07 31.56C74.54 32.69 75.79 34.07 77.87 34.07C80.07 34.07 81.94 32.78 81.94 29.64L81.94 22L80.16 22L80.16 22.7ZM83.24 30L85.12 30L85.12 17.49L83.24 17.49L83.24 30ZM87.9 25.87C87.85 24.23 89.18 23.39 90.14 23.39C90.88 23.39 91.51 23.76 91.73 24.29L87.9 25.87ZM93.74 24.45C93.38 23.5 92.29 21.75 90.07 21.75C87.86 21.75 86.03 23.47 86.03 26C86.03 28.38 87.85 30.25 90.28 30.25C92.25 30.25 93.38 29.06 93.85 28.37L92.39 27.4C91.91 28.11 91.24 28.58 90.28 28.58C89.32 28.58 88.64 28.14 88.2 27.29L93.93 24.94L93.74 24.45ZM48.09 23.05L48.09 24.86L52.44 24.86C52.32 25.87 51.97 26.61 51.45 27.13C50.82 27.76 49.83 28.45 48.09 28.45C45.42 28.45 43.32 26.31 43.32 23.65C43.32 20.99 45.42 18.85 48.09 18.85C49.54 18.85 50.59 19.41 51.37 20.14L52.66 18.86C51.57 17.83 50.12 17.04 48.09 17.04C44.42 17.04 41.34 20.01 41.34 23.65C41.34 27.29 44.42 30.25 48.09 30.25C50.07 30.25 51.57 29.61 52.74 28.4C53.94 27.21 54.31 25.53 54.31 24.18C54.31 23.76 54.28 23.37 54.21 23.05L48.09 23.05ZM59.26 28.58C57.96 28.58 56.83 27.51 56.83 26C56.83 24.47 57.96 23.42 59.26 23.42C60.55 23.42 61.67 24.47 61.67 26C61.67 27.51 60.55 28.58 59.26 28.58ZM59.26 21.75C56.89 21.75 54.96 23.54 54.96 26C54.96 28.45 56.89 30.25 59.26 30.25C61.62 30.25 63.56 28.45 63.56 26C63.56 23.54 61.62 21.75 59.26 21.75ZM68.64 28.58C67.34 28.58 66.22 27.51 66.22 26C66.22 24.47 67.34 23.42 68.64 23.42C69.94 23.42 71.06 24.47 71.06 26C71.06 27.51 69.94 28.58 68.64 28.58L68.64 28.58ZM68.64 21.75C66.27 21.75 64.33 23.54 64.33 26C64.33 28.45 66.27 30.25 68.64 30.25C71.01 30.25 72.94 28.45 72.94 26C72.94 23.54 71.01 21.75 68.64 21.75L68.64 21.75Z" fill="#FFFFFF" fill-opacity="1.000000" fill-rule="nonzero"/>
	<path id="Vector" d="M10.58 7.61C10.25 7.91 10.04 8.41 10.04 9.08L10.04 8.93L10.04 31.05L10.04 30.91C10.04 31.53 10.21 32.01 10.51 32.31L10.58 32.39L10.58 32.39C10.82 32.6 11.12 32.71 11.47 32.71C11.82 32.71 12.2 32.6 12.6 32.37L27.23 24.13L32.25 21.29C32.89 20.93 33.25 20.47 33.3 20L33.3 20C33.25 19.52 32.89 19.06 32.25 18.7L27.23 15.87L12.6 7.62C12.2 7.39 11.81 7.28 11.47 7.28C11.12 7.28 10.82 7.4 10.58 7.61L10.58 7.61Z" fill="#34C998" fill-opacity="1.000000" fill-rule="nonzero"/>
	<path id="Vector" d="M10.58 32.39L10.51 32.32C10.21 32.01 10.04 31.53 10.04 30.91L10.04 31.06L10.04 8.94L10.04 9.08C10.04 8.41 10.25 7.91 10.58 7.61L23.06 20L10.58 32.39Z" fill="url(#paint_linear_298_2717_0)" fill-opacity="1.000000" fill-rule="nonzero"/>
	<path id="Vector" d="M27.22 24.13L23.06 20L27.22 15.87L32.25 18.7C32.88 19.06 33.24 19.52 33.3 20L33.3 20C33.24 20.47 32.88 20.93 32.25 21.29L27.22 24.13Z" fill="url(#paint_linear_298_2718_0)" fill-opacity="1.000000" fill-rule="nonzero"/>
	<path id="Vector" d="M11.47 32.71C11.12 32.71 10.82 32.6 10.58 32.39L10.58 32.38L23.06 20L27.22 24.13L12.6 32.37C12.19 32.6 11.81 32.71 11.47 32.71Z" fill="url(#paint_linear_298_2719_0)" fill-opacity="1.000000" fill-rule="nonzero"/>
	<path id="Vector" d="M23.06 20L10.58 7.61C10.82 7.39 11.12 7.28 11.47 7.28C11.81 7.28 12.19 7.39 12.6 7.62L27.22 15.86L23.06 20Z" fill="url(#paint_linear_298_2720_0)" fill-opacity="1.000000" fill-rule="nonzero"/>
	<path id="Vector" d="M11.47 32.86C11.12 32.86 10.82 32.74 10.58 32.53L10.58 32.53C10.58 32.53 10.58 32.53 10.58 32.53L10.51 32.47C10.51 32.46 10.51 32.46 10.51 32.46L10.58 32.39C10.82 32.6 11.12 32.71 11.47 32.71C11.81 32.71 12.19 32.6 12.6 32.37L27.22 24.13L27.32 24.22L27.22 24.27L12.6 32.52C12.23 32.73 11.88 32.84 11.57 32.85C11.53 32.86 11.5 32.86 11.47 32.86Z" fill="url(#paint_linear_298_2721_0)" fill-opacity="1.000000" fill-rule="nonzero"/>
	<path id="Vector" d="M10.51 32.46C10.21 32.15 10.04 31.67 10.04 31.06L10.04 30.91C10.04 31.53 10.21 32.01 10.51 32.31L10.58 32.39L10.51 32.46Z" fill="url(#paint_linear_298_2722_0)" fill-opacity="1.000000" fill-rule="nonzero"/>
	<path id="Vector" d="M27.32 24.22L27.23 24.13L32.25 21.29C32.89 20.93 33.25 20.47 33.3 20C33.3 20.17 33.26 20.34 33.19 20.51C33.03 20.85 32.72 21.17 32.25 21.44L27.32 24.22Z" fill="url(#paint_linear_298_2723_0)" fill-opacity="1.000000" fill-rule="nonzero"/>
	<path id="Vector" d="M33.3 20C33.25 19.52 32.89 19.06 32.25 18.7L27.23 15.86L27.32 15.77L27.32 15.77L32.25 18.55C32.95 18.95 33.3 19.47 33.3 20Z" fill="url(#paint_linear_298_2724_0)" fill-opacity="1.000000" fill-rule="nonzero"/>
	<path id="Vector" d="M10.04 9.08L10.04 8.93C10.04 8.88 10.04 8.82 10.05 8.77L10.05 8.77C10.05 8.77 10.05 8.77 10.05 8.77L10.05 8.76C10.08 8.23 10.25 7.81 10.51 7.53L10.58 7.61C10.25 7.91 10.04 8.41 10.04 9.08Z" fill="url(#paint_linear_298_2725_0)" fill-opacity="1.000000" fill-rule="nonzero"/>
	<path id="Vector" d="M27.22 15.87L12.6 7.62C12.19 7.39 11.81 7.28 11.47 7.28C11.12 7.28 10.82 7.4 10.58 7.61L10.51 7.53C10.53 7.51 10.55 7.49 10.58 7.46C10.58 7.46 10.58 7.46 10.58 7.46C10.82 7.25 11.12 7.14 11.46 7.14L11.47 7.14C11.81 7.14 12.19 7.25 12.6 7.47L27.32 15.77L27.32 15.77L27.22 15.87Z" fill="url(#paint_linear_298_2726_0)" fill-opacity="1.000000" fill-rule="nonzero"/>
</svg>
