<svg width="48.000000" height="48.000000" viewBox="0 0 48 48" fill="none" xmlns="http://www.w3.org/2000/svg" xmlns:xlink="http://www.w3.org/1999/xlink">
	<desc>
			Created with Pixso.
	</desc>
	<defs>
		<clipPath id="clip298_2788">
			<rect id="graphic-design" rx="-0.500000" width="47.000000" height="47.000000" transform="translate(0.500000 0.500000)" fill="white" fill-opacity="0"/>
		</clipPath>
	</defs>
	<rect id="graphic-design" rx="-0.500000" width="47.000000" height="47.000000" transform="translate(0.500000 0.500000)" fill="#FFFFFF" fill-opacity="0"/>
	<g clip-path="url(#clip298_2788)">
		<path id="Vector" d="M45.75 9L40.48 9C40.01 8.36 39.36 7.89 38.62 7.66C37.87 7.43 37.07 7.44 36.32 7.7C34.9 5.78 33.04 4.21 30.9 3.13C28.76 2.06 26.39 1.5 24 1.5C21.6 1.5 19.23 2.06 17.09 3.13C14.95 4.21 13.09 5.78 11.67 7.7C10.92 7.44 10.12 7.43 9.37 7.66C8.63 7.89 7.98 8.36 7.51 9L2.25 9C2.05 9 1.85 9.07 1.71 9.21C1.57 9.35 1.5 9.55 1.5 9.75L1.5 38.25C1.5 38.44 1.57 38.63 1.71 38.77C1.85 38.91 2.05 39 2.25 39L21.75 39L21.75 42L17.25 42C17.05 42 16.85 42.07 16.71 42.21L13.71 45.21C13.61 45.32 13.54 45.45 13.51 45.6C13.48 45.75 13.5 45.9 13.55 46.03C13.61 46.17 13.71 46.29 13.83 46.37C13.95 46.45 14.1 46.5 14.25 46.5L33.75 46.5C33.89 46.5 34.04 46.45 34.16 46.37C34.28 46.29 34.38 46.17 34.44 46.03C34.5 45.9 34.51 45.75 34.48 45.6C34.45 45.45 34.38 45.32 34.28 45.21L31.28 42.21C31.14 42.07 30.94 42 30.75 42L26.25 42L26.25 39L45.75 39C45.94 39 46.14 38.91 46.28 38.77C46.42 38.63 46.5 38.44 46.5 38.25L46.5 9.75C46.5 9.55 46.42 9.35 46.28 9.21C46.14 9.07 45.94 9 45.75 9ZM39.75 11.25C39.75 11.69 39.61 12.12 39.37 12.5C39.12 12.86 38.77 13.15 38.35 13.32C37.94 13.49 37.49 13.54 37.06 13.45C36.62 13.36 36.22 13.15 35.91 12.84C35.59 12.52 35.37 12.12 35.29 11.68C35.2 11.25 35.25 10.8 35.42 10.38C35.58 9.97 35.87 9.62 36.25 9.37C36.62 9.13 37.05 9 37.5 9C38.09 9 38.66 9.23 39.08 9.65C39.51 10.08 39.75 10.65 39.75 11.25ZM24 3C26.13 3 28.23 3.49 30.15 4.43C32.06 5.38 33.73 6.76 35.02 8.45C34.62 8.8 34.31 9.22 34.09 9.7C33.87 10.17 33.75 10.69 33.74 11.21C33.73 11.74 33.84 12.26 34.05 12.74C34.25 13.22 34.56 13.66 34.94 14.01C35.33 14.37 35.78 14.64 36.28 14.81C36.78 14.97 37.3 15.03 37.82 14.99C38.35 14.94 38.85 14.78 39.31 14.52C39.76 14.27 40.16 13.91 40.48 13.5L42 13.5L42 34.5L29.08 34.5L27.94 29.95C28.1 29.91 28.24 29.82 28.34 29.69C28.44 29.57 28.5 29.41 28.5 29.25L28.5 26.98C28.89 26.94 29.27 26.8 29.59 26.57C29.91 26.33 30.16 26.02 30.33 25.66L32.58 20.59C32.74 20.23 32.8 19.83 32.76 19.44C32.71 19.05 32.57 18.67 32.33 18.35L24.6 7.8C24.53 7.71 24.44 7.64 24.33 7.59C24.23 7.54 24.11 7.51 24 7.51C23.88 7.51 23.76 7.54 23.66 7.59C23.55 7.64 23.46 7.71 23.39 7.8L15.66 18.35C15.42 18.67 15.28 19.05 15.23 19.44C15.19 19.83 15.25 20.23 15.41 20.59L17.66 25.66C17.82 26.02 18.08 26.33 18.4 26.57C18.72 26.8 19.1 26.94 19.5 26.98L19.5 29.25C19.5 29.41 19.55 29.57 19.65 29.69C19.75 29.82 19.89 29.91 20.05 29.95L18.91 34.5L6 34.5L6 13.5L7.51 13.5C7.83 13.91 8.23 14.27 8.68 14.52C9.14 14.78 9.64 14.94 10.17 14.99C10.69 15.03 11.21 14.97 11.71 14.81C12.21 14.64 12.66 14.37 13.05 14.01C13.43 13.66 13.74 13.22 13.94 12.74C14.15 12.26 14.26 11.74 14.25 11.21C14.24 10.69 14.12 10.17 13.9 9.7C13.68 9.22 13.37 8.8 12.97 8.45C14.26 6.76 15.93 5.38 17.84 4.43C19.76 3.49 21.86 3 24 3ZM24 18C24.29 18 24.58 18.08 24.83 18.25C25.07 18.41 25.27 18.65 25.38 18.92C25.5 19.19 25.52 19.5 25.47 19.79C25.41 20.08 25.26 20.35 25.06 20.56C24.85 20.76 24.58 20.91 24.29 20.97C24 21.02 23.69 21 23.42 20.88C23.15 20.77 22.91 20.58 22.75 20.33C22.58 20.08 22.5 19.79 22.5 19.5C22.5 19.1 22.65 18.72 22.93 18.43C23.21 18.15 23.6 18 24 18ZM23.25 16.6C22.54 16.78 21.92 17.22 21.51 17.82C21.1 18.43 20.93 19.16 21.02 19.88C21.11 20.61 21.46 21.27 22.01 21.76C22.56 22.24 23.26 22.51 24 22.51C24.73 22.51 25.43 22.24 25.98 21.76C26.53 21.27 26.88 20.61 26.97 19.88C27.06 19.16 26.89 18.43 26.48 17.82C26.07 17.22 25.45 16.78 24.75 16.6L24.75 10.54L31.13 19.24C31.21 19.34 31.25 19.47 31.27 19.6C31.28 19.73 31.26 19.87 31.21 19.99L28.96 25.05C28.9 25.18 28.8 25.3 28.68 25.37C28.56 25.45 28.42 25.5 28.27 25.5L19.72 25.5C19.57 25.5 19.43 25.45 19.31 25.37C19.19 25.29 19.09 25.18 19.03 25.05L16.78 19.99C16.73 19.86 16.71 19.73 16.72 19.6C16.74 19.47 16.79 19.34 16.87 19.24L23.25 10.54L23.25 16.6ZM27 27L27 28.5L21 28.5L21 27L27 27ZM21.58 30L26.41 30L27.53 34.5L20.46 34.5L21.58 30ZM10.5 9C10.94 9 11.37 9.13 11.75 9.37C12.12 9.62 12.41 9.97 12.57 10.38C12.75 10.8 12.79 11.25 12.7 11.68C12.62 12.12 12.4 12.52 12.08 12.84C11.77 13.15 11.37 13.36 10.93 13.45C10.5 13.54 10.05 13.49 9.64 13.32C9.22 13.15 8.87 12.86 8.62 12.5C8.38 12.12 8.25 11.69 8.25 11.25C8.25 10.65 8.48 10.08 8.91 9.65C9.33 9.23 9.9 9 10.5 9ZM31.94 45L16.05 45L17.55 43.5L30.44 43.5L31.94 45ZM24.75 42L23.25 42L23.25 39L24.75 39L24.75 42ZM45 37.5L3 37.5L3 10.5L6.82 10.5C6.72 10.99 6.72 11.5 6.82 12L5.25 12C5.05 12 4.85 12.07 4.71 12.21C4.57 12.35 4.5 12.55 4.5 12.75L4.5 35.25C4.5 35.44 4.57 35.63 4.71 35.77C4.85 35.91 5.05 36 5.25 36L42.75 36C42.94 36 43.14 35.91 43.28 35.77C43.42 35.63 43.5 35.44 43.5 35.25L43.5 12.75C43.5 12.55 43.42 12.35 43.28 12.21C43.14 12.07 42.94 12 42.75 12L41.17 12C41.27 11.5 41.27 10.99 41.17 10.5L45 10.5L45 37.5Z" fill="#80A948" fill-opacity="1.000000" fill-rule="nonzero"/>
		<path id="Vector" d="M11.25 28.5L8.25 28.5C8.05 28.5 7.85 28.57 7.71 28.71C7.57 28.85 7.5 29.05 7.5 29.25L7.5 32.25C7.5 32.44 7.57 32.64 7.71 32.78C7.85 32.92 8.05 33 8.25 33L11.25 33C11.44 33 11.64 32.92 11.78 32.78C11.92 32.64 12 32.44 12 32.25L12 29.25C12 29.05 11.92 28.85 11.78 28.71C11.64 28.57 11.44 28.5 11.25 28.5ZM10.5 31.5L9 31.5L9 30L10.5 30L10.5 31.5Z" fill="#80A948" fill-opacity="1.000000" fill-rule="nonzero"/>
		<path id="Vector" d="M11.25 22.5L8.25 22.5C8.05 22.5 7.85 22.57 7.71 22.71C7.57 22.85 7.5 23.05 7.5 23.25L7.5 26.25C7.5 26.44 7.57 26.64 7.71 26.78C7.85 26.92 8.05 27 8.25 27L11.25 27C11.44 27 11.64 26.92 11.78 26.78C11.92 26.64 12 26.44 12 26.25L12 23.25C12 23.05 11.92 22.85 11.78 22.71C11.64 22.57 11.44 22.5 11.25 22.5ZM10.5 25.5L9 25.5L9 24L10.5 24L10.5 25.5Z" fill="#80A948" fill-opacity="1.000000" fill-rule="nonzero"/>
		<path id="Vector" d="M11.25 16.5L8.25 16.5C8.05 16.5 7.85 16.57 7.71 16.71C7.57 16.85 7.5 17.05 7.5 17.25L7.5 20.25C7.5 20.44 7.57 20.64 7.71 20.78C7.85 20.92 8.05 21 8.25 21L11.25 21C11.44 21 11.64 20.92 11.78 20.78C11.92 20.64 12 20.44 12 20.25L12 17.25C12 17.05 11.92 16.85 11.78 16.71C11.64 16.57 11.44 16.5 11.25 16.5ZM10.5 19.5L9 19.5L9 18L10.5 18L10.5 19.5Z" fill="#80A948" fill-opacity="1.000000" fill-rule="nonzero"/>
		<path id="Vector" d="M36.75 33L39.75 33C39.94 33 40.14 32.92 40.28 32.78C40.42 32.64 40.5 32.44 40.5 32.25L40.5 29.25C40.5 29.05 40.42 28.85 40.28 28.71C40.14 28.57 39.94 28.5 39.75 28.5L36.75 28.5C36.55 28.5 36.35 28.57 36.21 28.71C36.07 28.85 36 29.05 36 29.25L36 32.25C36 32.44 36.07 32.64 36.21 32.78C36.35 32.92 36.55 33 36.75 33ZM37.5 30L39 30L39 31.5L37.5 31.5L37.5 30Z" fill="#80A948" fill-opacity="1.000000" fill-rule="nonzero"/>
		<path id="Vector" d="M36.75 27L39.75 27C39.94 27 40.14 26.92 40.28 26.78C40.42 26.64 40.5 26.44 40.5 26.25L40.5 23.25C40.5 23.05 40.42 22.85 40.28 22.71C40.14 22.57 39.94 22.5 39.75 22.5L36.75 22.5C36.55 22.5 36.35 22.57 36.21 22.71C36.07 22.85 36 23.05 36 23.25L36 26.25C36 26.44 36.07 26.64 36.21 26.78C36.35 26.92 36.55 27 36.75 27ZM37.5 24L39 24L39 25.5L37.5 25.5L37.5 24Z" fill="#80A948" fill-opacity="1.000000" fill-rule="nonzero"/>
		<path id="Vector" d="M36.75 21L39.75 21C39.94 21 40.14 20.92 40.28 20.78C40.42 20.64 40.5 20.44 40.5 20.25L40.5 17.25C40.5 17.05 40.42 16.85 40.28 16.71C40.14 16.57 39.94 16.5 39.75 16.5L36.75 16.5C36.55 16.5 36.35 16.57 36.21 16.71C36.07 16.85 36 17.05 36 17.25L36 20.25C36 20.44 36.07 20.64 36.21 20.78C36.35 20.92 36.55 21 36.75 21ZM37.5 18L39 18L39 19.5L37.5 19.5L37.5 18Z" fill="#80A948" fill-opacity="1.000000" fill-rule="nonzero"/>
	</g>
</svg>
