<svg width="52.000000" height="52.000000" viewBox="0 0 52 52" fill="none" xmlns="http://www.w3.org/2000/svg" xmlns:xlink="http://www.w3.org/1999/xlink">
	<desc>
			Created with Pixso.
	</desc>
	<defs>
		<filter id="filter_298_2593_dd" x="0.000000" y="0.000000" width="52.000000" height="52.000000" filterUnits="userSpaceOnUse" color-interpolation-filters="sRGB">
			<feFlood flood-opacity="0" result="BackgroundImageFix"/>
			<feColorMatrix in="SourceAlpha" type="matrix" values="0 0 0 0 0 0 0 0 0 0 0 0 0 0 0 0 0 0 127 0" result="hardAlpha"/>
			<feOffset dx="0" dy="2"/>
			<feGaussianBlur stdDeviation="1.33333"/>
			<feComposite in2="hardAlpha" operator="out" k2="-1" k3="1"/>
			<feColorMatrix type="matrix" values="0 0 0 0 0 0 0 0 0 0 0 0 0 0 0 0 0 0 0.078 0"/>
			<feBlend mode="normal" in2="BackgroundImageFix" result="effect_dropShadow_1"/>
			<feBlend mode="normal" in="SourceGraphic" in2="effect_dropShadow_1" result="shape"/>
		</filter>
		<clipPath id="clip298_2594">
			<rect id="health_outline_24" rx="-0.500000" width="23.000000" height="23.000000" transform="translate(14.500000 12.500000)" fill="white" fill-opacity="0"/>
		</clipPath>
	</defs>
	<g filter="url(#filter_298_2593_dd)">
		<rect id="health" rx="21.500000" width="43.000000" height="43.000000" transform="translate(4.500000 2.500000)" fill="#FFFFFF" fill-opacity="1.000000"/>
		<g clip-path="url(#clip298_2594)">
			<path id="↳ Icon Color" d="M29.99 16C28.53 16.07 27.23 16.64 26.1 17.69L25.99 17.81L25.87 17.69C24.66 16.57 23.27 16 21.73 16C18.57 16 16 18.56 16 21.71C16 24.8 17.12 26.26 22.18 30.26L24.87 32.36C25.53 32.87 26.46 32.87 27.12 32.36L29.49 30.51L30.42 29.77C34.96 26.14 36 24.67 36 21.71C36 18.56 33.42 16 30.26 16L29.99 16ZM30.26 17.8C32.42 17.8 34.19 19.55 34.19 21.71L34.19 22.01C34.12 24.16 33.13 25.35 28.68 28.86L26.02 30.94C26 30.95 25.99 30.95 25.97 30.94L23.61 29.09L22.73 28.4C18.59 25.09 17.8 23.96 17.8 21.71C17.8 19.55 19.57 17.8 21.73 17.8C23.06 17.8 24.24 18.41 25.3 19.71C25.66 20.15 26.34 20.15 26.7 19.7C27.73 18.41 28.91 17.8 30.26 17.8ZM30.39 20.4C30.39 19.9 29.99 19.5 29.5 19.5C29 19.5 28.6 19.9 28.6 20.4L28.6 21.09L27.89 21.09C27.4 21.09 27 21.5 27 22C27 22.49 27.4 22.9 27.89 22.9L28.6 22.9L28.6 23.59C28.6 24.09 29 24.5 29.5 24.5C29.99 24.5 30.39 24.09 30.39 23.59L30.39 22.9L31.1 22.9C31.59 22.9 32 22.49 32 22C32 21.5 31.59 21.09 31.1 21.09L30.39 21.09L30.39 20.4Z" fill="#FFBA00" fill-opacity="1.000000" fill-rule="evenodd"/>
		</g>
	</g>
</svg>
