<svg width="48.000000" height="48.000000" viewBox="0 0 48 48" fill="none" xmlns="http://www.w3.org/2000/svg" xmlns:xlink="http://www.w3.org/1999/xlink">
	<desc>
			Created with Pixso.
	</desc>
	<defs>
		<clipPath id="clip298_2831">
			<rect rx="-0.500000" width="47.000000" height="47.000000" transform="translate(0.500000 0.500000)" fill="white" fill-opacity="0"/>
		</clipPath>
	</defs>
	<rect rx="-0.500000" width="47.000000" height="47.000000" transform="translate(0.500000 0.500000)" fill="#FFFFFF" fill-opacity="0"/>
	<g clip-path="url(#clip298_2831)">
		<path d="M24 14.25C24.59 14.25 25.17 14.07 25.66 13.74C26.16 13.41 26.54 12.94 26.77 12.39C27 11.84 27.05 11.24 26.94 10.66C26.82 10.08 26.53 9.54 26.12 9.12C25.7 8.7 25.16 8.42 24.58 8.3C24 8.19 23.39 8.25 22.85 8.47C22.3 8.7 21.83 9.08 21.5 9.58C21.17 10.07 21 10.65 21 11.25C21 12.04 21.31 12.8 21.87 13.37C22.44 13.93 23.2 14.25 24 14.25ZM24 9.75C24.29 9.75 24.58 9.83 24.83 10C25.07 10.16 25.27 10.4 25.38 10.67C25.5 10.94 25.52 11.25 25.47 11.54C25.41 11.83 25.26 12.1 25.06 12.31C24.85 12.51 24.58 12.66 24.29 12.72C24 12.77 23.69 12.75 23.42 12.63C23.15 12.52 22.91 12.33 22.75 12.08C22.58 11.83 22.5 11.54 22.5 11.25C22.5 10.85 22.65 10.47 22.93 10.18C23.21 9.9 23.6 9.75 24 9.75Z" fill="#80A948" fill-opacity="1.000000" fill-rule="nonzero"/>
		<path d="M23.25 21.75L24.75 21.75L24.75 23.25L23.25 23.25L23.25 21.75Z" fill="#80A948" fill-opacity="1.000000" fill-rule="nonzero"/>
		<path d="M23.25 24.75L24.75 24.75L24.75 30L23.25 30L23.25 24.75Z" fill="#80A948" fill-opacity="1.000000" fill-rule="nonzero"/>
		<path d="M43.23 42.27C43.16 42.19 43.07 42.12 42.98 42.07C42.87 42.02 42.76 42 42.66 42L42 42L42 21.75C42 21.55 41.91 21.36 41.77 21.21C41.63 21.07 41.44 21 41.25 21L36.5 21L35.99 17.15C35.97 17.03 35.92 16.91 35.85 16.81C35.78 16.71 35.69 16.63 35.58 16.58L31.46 14.51C31.19 7.44 24.76 1.91 24.48 1.67C24.35 1.56 24.17 1.5 24 1.5C23.82 1.5 23.64 1.56 23.51 1.67C23.23 1.91 16.8 7.44 16.52 14.51L12.41 16.58C12.3 16.63 12.2 16.71 12.13 16.81C12.06 16.91 12.01 17.03 12 17.15L11.48 21L6.75 21C6.55 21 6.35 21.07 6.21 21.21C6.07 21.36 6 21.55 6 21.75L6 42L5.33 42C5.22 42 5.11 42.02 5.01 42.07C4.91 42.12 4.83 42.19 4.76 42.27C4.69 42.36 4.64 42.46 4.61 42.57C4.58 42.68 4.58 42.79 4.6 42.9L5.26 45.9C5.3 46.07 5.39 46.22 5.52 46.33C5.66 46.44 5.82 46.5 6 46.5L42 46.5C42.17 46.5 42.33 46.44 42.47 46.33C42.6 46.22 42.69 46.07 42.73 45.9L43.38 42.9C43.41 42.79 43.41 42.68 43.38 42.57C43.35 42.46 43.3 42.36 43.23 42.27ZM31.46 16.19L34.55 17.74L35.89 27.75L34.24 27.75L32.18 22.95C32.13 22.82 32.03 22.7 31.91 22.62C31.78 22.54 31.64 22.5 31.5 22.5L30.24 22.5C30.96 20.47 31.37 18.34 31.46 16.19ZM24 3.26C25.5 4.7 30 9.46 30 15C30.05 17.92 29.43 20.83 28.19 23.48C27.53 20.68 25.93 18.75 24 18.75C22.06 18.75 20.45 20.68 19.8 23.48C18.55 20.83 17.94 17.92 18 15C18 9.47 22.49 4.71 24 3.26ZM24 31.98C23.04 31.08 21 28.81 21 26.25C21 22.71 22.58 20.25 24 20.25C25.41 20.25 27 22.71 27 26.25C27 28.81 24.95 31.08 24 31.98ZM31.5 31.5L31.5 39L16.5 39L16.5 31.5L21.54 31.5C22.13 32.26 22.79 32.95 23.52 33.58C23.66 33.69 23.82 33.75 24 33.75C24.17 33.75 24.33 33.69 24.47 33.58C25.2 32.95 25.86 32.26 26.45 31.5L31.5 31.5ZM13.43 17.74L16.53 16.19C16.62 18.34 17.03 20.47 17.75 22.5L16.5 22.5C16.35 22.5 16.2 22.54 16.08 22.62C15.96 22.7 15.86 22.82 15.8 22.95L13.75 27.75L12.1 27.75L13.43 17.74ZM7.5 22.5L11.29 22.5L10.5 28.4C10.49 28.5 10.5 28.61 10.53 28.71C10.56 28.82 10.61 28.91 10.68 28.99C10.75 29.07 10.84 29.14 10.94 29.18C11.03 29.22 11.14 29.25 11.25 29.25L14.25 29.25C14.39 29.25 14.53 29.2 14.66 29.12C14.78 29.04 14.88 28.92 14.93 28.79L16.99 24L18.38 24C18.69 24.64 19.07 25.26 19.51 25.84C19.5 25.98 19.5 26.11 19.5 26.25C19.53 27.56 19.89 28.85 20.55 30L15.75 30C15.55 30 15.35 30.07 15.21 30.21C15.07 30.36 15 30.55 15 30.75L15 39.75C15 39.94 15.07 40.14 15.21 40.28C15.35 40.42 15.55 40.5 15.75 40.5L32.25 40.5C32.44 40.5 32.63 40.42 32.77 40.28C32.91 40.14 33 39.94 33 39.75L33 30.75C33 30.55 32.91 30.36 32.77 30.21C32.63 30.07 32.44 30 32.25 30L27.44 30C28.1 28.85 28.46 27.56 28.5 26.25C28.5 26.11 28.49 25.98 28.48 25.84C28.91 25.26 29.29 24.64 29.61 24L31 24L33.05 28.79C33.11 28.92 33.21 29.04 33.33 29.12C33.45 29.2 33.6 29.25 33.75 29.25L36.75 29.25C36.85 29.25 36.96 29.22 37.05 29.18C37.15 29.14 37.24 29.07 37.31 28.99C37.38 28.91 37.43 28.82 37.46 28.71C37.49 28.61 37.5 28.5 37.49 28.4L36.7 22.5L40.5 22.5L40.5 42L26.25 42C26.05 42 25.85 42.07 25.71 42.21C25.57 42.36 25.5 42.55 25.5 42.75L22.5 42.75C22.5 42.55 22.41 42.36 22.27 42.21C22.13 42.07 21.94 42 21.75 42L7.5 42L7.5 22.5ZM41.39 45L6.59 45L6.27 43.5L21 43.5C21 43.69 21.07 43.89 21.21 44.03C21.35 44.17 21.55 44.25 21.75 44.25L26.25 44.25C26.44 44.25 26.63 44.17 26.77 44.03C26.91 43.89 27 43.69 27 43.5L41.72 43.5L41.39 45Z" fill="#80A948" fill-opacity="1.000000" fill-rule="nonzero"/>
		<path d="M34.5 33L39 33L39 34.5L34.5 34.5L34.5 33Z" fill="#80A948" fill-opacity="1.000000" fill-rule="nonzero"/>
		<path d="M35.25 40.5L38.25 40.5C38.44 40.5 38.64 40.42 38.78 40.28C38.92 40.14 39 39.94 39 39.75L39 36.75C39 36.55 38.92 36.35 38.78 36.21C38.64 36.07 38.44 36 38.25 36L35.25 36C35.05 36 34.85 36.07 34.71 36.21C34.57 36.35 34.5 36.55 34.5 36.75L34.5 39.75C34.5 39.94 34.57 40.14 34.71 40.28C34.85 40.42 35.05 40.5 35.25 40.5ZM36 37.5L37.5 37.5L37.5 39L36 39L36 37.5Z" fill="#80A948" fill-opacity="1.000000" fill-rule="nonzero"/>
		<path d="M9 33L13.5 33L13.5 34.5L9 34.5L9 33Z" fill="#80A948" fill-opacity="1.000000" fill-rule="nonzero"/>
		<path d="M12.75 36L9.75 36C9.55 36 9.35 36.07 9.21 36.21C9.07 36.35 9 36.55 9 36.75L9 39.75C9 39.94 9.07 40.14 9.21 40.28C9.35 40.42 9.55 40.5 9.75 40.5L12.75 40.5C12.94 40.5 13.14 40.42 13.28 40.28C13.42 40.14 13.5 39.94 13.5 39.75L13.5 36.75C13.5 36.55 13.42 36.35 13.28 36.21C13.14 36.07 12.94 36 12.75 36ZM12 39L10.5 39L10.5 37.5L12 37.5L12 39Z" fill="#80A948" fill-opacity="1.000000" fill-rule="nonzero"/>
		<path d="M33 6L34.5 6L34.5 4.5L36 4.5L36 3L34.5 3L34.5 1.5L33 1.5L33 3L31.5 3L31.5 4.5L33 4.5L33 6Z" fill="#80A948" fill-opacity="1.000000" fill-rule="nonzero"/>
		<path d="M39 10.5L40.5 10.5L40.5 9L42 9L42 7.5L40.5 7.5L40.5 6L39 6L39 7.5L37.5 7.5L37.5 9L39 9L39 10.5Z" fill="#80A948" fill-opacity="1.000000" fill-rule="nonzero"/>
		<path d="M13.5 6L15 6L15 4.5L16.5 4.5L16.5 3L15 3L15 1.5L13.5 1.5L13.5 3L12 3L12 4.5L13.5 4.5L13.5 6Z" fill="#80A948" fill-opacity="1.000000" fill-rule="nonzero"/>
		<path d="M7.5 10.5L9 10.5L9 9L10.5 9L10.5 7.5L9 7.5L9 6L7.5 6L7.5 7.5L6 7.5L6 9L7.5 9L7.5 10.5Z" fill="#80A948" fill-opacity="1.000000" fill-rule="nonzero"/>
	</g>
</svg>
