<svg width="148.000000" height="40.000000" viewBox="0 0 148 40" fill="none" xmlns="http://www.w3.org/2000/svg" xmlns:xlink="http://www.w3.org/1999/xlink">
	<desc>
			Created with Pixso.
	</desc>
	<defs>
		<clipPath id="clip298_2672">
			<rect id="ios" rx="-0.500000" width="147.000000" height="39.000000" transform="translate(0.500000 0.500000)" fill="white" fill-opacity="0"/>
		</clipPath>
	</defs>
	<rect id="ios" rx="-0.500000" width="147.000000" height="39.000000" transform="translate(0.500000 0.500000)" fill="#FFFFFF" fill-opacity="0"/>
	<g clip-path="url(#clip298_2672)">
		<path id="Vector" d="M136.21 0L11.79 0C11.33 0 10.89 0 10.43 0C10.05 0 9.68 0 9.3 0.01C8.47 0.02 7.64 0.08 6.82 0.19C6 0.3 5.21 0.51 4.47 0.81C3.73 1.12 3.05 1.52 2.46 1.99C1.87 2.47 1.38 3.01 1.01 3.61C0.63 4.21 0.37 4.85 0.24 5.52C0.1 6.18 0.02 6.85 0.01 7.52C0 7.83 0 8.13 0 8.44L0 31.55C0 31.86 0 32.16 0.01 32.48C0.02 33.15 0.1 33.82 0.24 34.48C0.37 35.14 0.63 35.78 1.01 36.38C1.38 36.98 1.87 37.52 2.46 38C3.05 38.47 3.73 38.87 4.47 39.17C5.21 39.48 6 39.69 6.82 39.81C7.64 39.91 8.47 39.97 9.3 39.98C9.68 39.99 10.05 39.99 10.43 39.99C10.89 40 11.33 40 11.79 40L136.21 40C136.66 40 137.1 40 137.55 39.99C137.93 39.99 138.31 39.99 138.69 39.98C139.52 39.97 140.35 39.91 141.16 39.81C141.98 39.69 142.78 39.48 143.52 39.17C144.27 38.87 144.94 38.47 145.52 38C146.11 37.52 146.6 36.98 146.99 36.38C147.36 35.78 147.62 35.14 147.75 34.48C147.89 33.82 147.96 33.15 147.98 32.48C147.99 32.16 147.99 31.86 147.99 31.55C148 31.19 148 30.83 148 30.46L148 9.53C148 9.16 148 8.8 147.99 8.44C147.99 8.13 147.99 7.83 147.98 7.52C147.96 6.85 147.89 6.18 147.75 5.52C147.62 4.85 147.36 4.21 146.99 3.61C146.22 2.41 145.01 1.43 143.52 0.81C142.78 0.51 141.98 0.3 141.16 0.19C140.35 0.08 139.52 0.02 138.69 0.01C138.31 0 137.93 0 137.55 0C137.1 0 136.66 0 136.21 0L136.21 0Z" fill="#A6A6A6" fill-opacity="1.000000" fill-rule="nonzero"/>
		<path id="Vector" d="M10.44 39.12C10.06 39.12 9.69 39.12 9.32 39.11C8.55 39.1 7.77 39.05 7.01 38.95C6.3 38.85 5.6 38.66 4.96 38.4C4.32 38.14 3.74 37.79 3.23 37.38C2.72 36.98 2.29 36.5 1.97 35.99C1.64 35.46 1.42 34.91 1.3 34.33C1.17 33.71 1.1 33.08 1.09 32.45C1.08 32.24 1.07 31.54 1.07 31.54L1.07 8.44C1.07 8.44 1.08 7.75 1.09 7.54C1.1 6.92 1.17 6.29 1.3 5.67C1.41 5.09 1.64 4.53 1.97 4.01C2.29 3.49 2.71 3.02 3.23 2.61C3.73 2.2 4.32 1.86 4.96 1.59C5.6 1.33 6.29 1.14 7 1.05C7.77 0.94 8.55 0.89 9.32 0.88L10.44 0.87L137.54 0.87L138.67 0.88C139.44 0.89 140.21 0.94 140.97 1.05C141.69 1.14 142.39 1.33 143.04 1.59C144.32 2.13 145.37 2.97 146.02 4.01C146.35 4.53 146.57 5.09 146.69 5.66C146.82 6.29 146.89 6.92 146.9 7.55C146.91 7.83 146.91 8.14 146.91 8.44C146.91 8.82 146.91 9.17 146.91 9.53L146.91 30.46C146.91 30.82 146.91 31.18 146.91 31.53C146.91 31.86 146.91 32.16 146.9 32.46C146.89 33.09 146.82 33.71 146.69 34.32C146.57 34.9 146.35 35.46 146.02 35.99C145.69 36.5 145.27 36.97 144.77 37.37C144.26 37.79 143.67 38.13 143.03 38.4C142.38 38.66 141.69 38.85 140.97 38.95C140.21 39.05 139.43 39.1 138.66 39.11C138.3 39.12 137.92 39.12 137.55 39.12L136.21 39.12L10.44 39.12Z" fill="#000000" fill-opacity="1.000000" fill-rule="nonzero"/>
		<path id="&lt;Path&gt;" d="M27.64 20.76C27.66 19.84 27.91 18.94 28.37 18.14C28.83 17.34 29.49 16.66 30.29 16.18C29.78 15.47 29.11 14.89 28.33 14.47C27.56 14.06 26.69 13.83 25.81 13.8C23.92 13.61 22.1 14.91 21.14 14.91C20.16 14.91 18.68 13.82 17.09 13.85C16.06 13.89 15.05 14.18 14.17 14.71C13.3 15.24 12.57 15.98 12.07 16.86C9.9 20.55 11.52 25.98 13.6 28.96C14.64 30.42 15.85 32.05 17.44 31.99C19 31.93 19.58 31.02 21.46 31.02C23.32 31.02 23.87 31.99 25.49 31.96C27.16 31.93 28.21 30.49 29.21 29.01C29.96 27.97 30.54 26.82 30.92 25.61C29.95 25.2 29.12 24.53 28.54 23.67C27.96 22.8 27.64 21.79 27.64 20.76Z" fill="#FFFFFF" fill-opacity="1.000000" fill-rule="nonzero"/>
		<path id="&lt;Path&gt;" d="M24.67 11.84C25.66 10.77 26.14 9.39 26.03 8C24.51 8.14 23.11 8.79 22.11 9.83C21.62 10.33 21.25 10.91 21 11.55C20.76 12.19 20.67 12.86 20.71 13.53C21.47 13.54 22.22 13.39 22.91 13.09C23.59 12.8 24.19 12.37 24.67 11.84Z" fill="#FFFFFF" fill-opacity="1.000000" fill-rule="nonzero"/>
		<path id="Vector" d="M51.35 26.92L46.05 26.92L44.78 30.31L42.54 30.31L47.56 17.77L49.89 17.77L54.9 30.31L52.62 30.31L51.35 26.92ZM46.6 25.36L50.8 25.36L48.73 19.86L48.67 19.86L46.6 25.36Z" fill="#FFFFFF" fill-opacity="1.000000" fill-rule="nonzero"/>
		<path id="Vector" d="M65.73 25.74C65.73 28.58 64.04 30.41 61.5 30.41C60.86 30.44 60.22 30.3 59.66 30.02C59.09 29.74 58.63 29.32 58.32 28.81L58.27 28.81L58.27 33.34L56.19 33.34L56.19 21.17L58.2 21.17L58.2 22.69L58.24 22.69C58.57 22.18 59.04 21.76 59.6 21.48C60.17 21.2 60.82 21.06 61.46 21.08C64.03 21.08 65.73 22.91 65.73 25.74ZM63.59 25.74C63.59 23.89 62.53 22.67 60.92 22.67C59.33 22.67 58.26 23.92 58.26 25.74C58.26 27.58 59.33 28.82 60.92 28.82C62.53 28.82 63.59 27.61 63.59 25.74Z" fill="#FFFFFF" fill-opacity="1.000000" fill-rule="nonzero"/>
		<path id="Vector" d="M76.87 25.74C76.87 28.58 75.19 30.41 72.65 30.41C72 30.44 71.36 30.3 70.8 30.02C70.24 29.74 69.77 29.32 69.46 28.81L69.41 28.81L69.41 33.34L67.33 33.34L67.33 21.17L69.35 21.17L69.35 22.69L69.39 22.69C69.71 22.18 70.18 21.76 70.75 21.48C71.32 21.2 71.96 21.06 72.61 21.08C75.18 21.08 76.87 22.91 76.87 25.74ZM74.74 25.74C74.74 23.89 73.68 22.67 72.06 22.67C70.47 22.67 69.41 23.92 69.41 25.74C69.41 27.58 70.47 28.82 72.06 28.82C73.68 28.82 74.74 27.61 74.74 25.74L74.74 25.74Z" fill="#FFFFFF" fill-opacity="1.000000" fill-rule="nonzero"/>
		<path id="Vector" d="M84.24 26.82C84.39 28.06 85.73 28.88 87.56 28.88C89.31 28.88 90.57 28.06 90.57 26.94C90.57 25.97 89.81 25.39 88.01 24.99L86.21 24.59C83.66 24.04 82.48 22.96 82.48 21.21C82.48 19.05 84.57 17.57 87.53 17.57C90.46 17.57 92.48 19.05 92.55 21.21L90.45 21.21C90.32 19.96 89.17 19.21 87.5 19.21C85.83 19.21 84.68 19.97 84.68 21.08C84.68 21.97 85.41 22.49 87.2 22.89L88.73 23.23C91.58 23.84 92.77 24.87 92.77 26.71C92.77 29.05 90.7 30.52 87.41 30.52C84.33 30.52 82.25 29.09 82.11 26.82L84.24 26.82Z" fill="#FFFFFF" fill-opacity="1.000000" fill-rule="nonzero"/>
		<path id="Vector" d="M97.25 19.01L97.25 21.17L99.17 21.17L99.17 22.66L97.25 22.66L97.25 27.7C97.25 28.48 97.64 28.84 98.48 28.84C98.71 28.84 98.94 28.83 99.17 28.8L99.17 30.28C98.78 30.34 98.4 30.37 98.01 30.37C95.96 30.37 95.16 29.67 95.16 27.9L95.16 22.66L93.69 22.66L93.69 21.17L95.16 21.17L95.16 19.01L97.25 19.01Z" fill="#FFFFFF" fill-opacity="1.000000" fill-rule="nonzero"/>
		<path id="Vector" d="M100.29 25.74C100.29 22.87 102.17 21.06 105.09 21.06C108.03 21.06 109.9 22.87 109.9 25.74C109.9 28.63 108.04 30.43 105.09 30.43C102.15 30.43 100.29 28.63 100.29 25.74ZM107.78 25.74C107.78 23.77 106.78 22.61 105.09 22.61C103.41 22.61 102.41 23.78 102.41 25.74C102.41 27.72 103.41 28.88 105.09 28.88C106.78 28.88 107.78 27.72 107.78 25.74L107.78 25.74Z" fill="#FFFFFF" fill-opacity="1.000000" fill-rule="nonzero"/>
		<path id="Vector" d="M111.61 21.17L113.59 21.17L113.59 22.73L113.64 22.73C113.77 22.24 114.09 21.81 114.53 21.51C114.98 21.21 115.52 21.06 116.07 21.08C116.32 21.07 116.55 21.1 116.78 21.15L116.78 22.9C116.48 22.82 116.17 22.78 115.85 22.79C115.55 22.78 115.25 22.82 114.97 22.93C114.69 23.03 114.44 23.19 114.23 23.39C114.03 23.59 113.87 23.83 113.78 24.08C113.68 24.34 113.65 24.62 113.69 24.89L113.69 30.31L111.61 30.31L111.61 21.17Z" fill="#FFFFFF" fill-opacity="1.000000" fill-rule="nonzero"/>
		<path id="Vector" d="M126.37 27.63C126.09 29.29 124.3 30.43 122.01 30.43C119.06 30.43 117.23 28.65 117.23 25.79C117.23 22.92 119.07 21.06 121.92 21.06C124.72 21.06 126.48 22.8 126.48 25.57L126.48 26.21L119.33 26.21L119.33 26.33C119.3 26.66 119.35 27 119.47 27.32C119.59 27.64 119.79 27.93 120.05 28.17C120.3 28.42 120.62 28.61 120.96 28.74C121.31 28.87 121.68 28.93 122.05 28.91C122.55 28.96 123.04 28.85 123.46 28.62C123.88 28.39 124.21 28.04 124.39 27.63L126.37 27.63ZM119.34 24.9L124.4 24.9C124.42 24.6 124.37 24.29 124.25 24.01C124.14 23.73 123.96 23.47 123.72 23.25C123.49 23.03 123.21 22.86 122.9 22.75C122.59 22.63 122.26 22.57 121.92 22.58C121.58 22.58 121.25 22.64 120.93 22.75C120.62 22.87 120.34 23.04 120.1 23.25C119.85 23.47 119.67 23.73 119.53 24.01C119.41 24.29 119.34 24.59 119.34 24.9L119.34 24.9Z" fill="#FFFFFF" fill-opacity="1.000000" fill-rule="nonzero"/>
		<path id="Vector" d="M45.15 10.33L46.06 10.33C46.22 10.35 46.38 10.34 46.53 10.3C46.68 10.25 46.82 10.19 46.94 10.09C47.07 10 47.16 9.89 47.23 9.76C47.3 9.63 47.34 9.49 47.35 9.35C47.35 8.78 46.87 8.42 46.07 8.42C45.91 8.4 45.75 8.41 45.59 8.44C45.44 8.48 45.29 8.55 45.16 8.64C45.03 8.73 44.92 8.84 44.85 8.97C44.76 9.09 44.72 9.24 44.7 9.38L43.7 9.38C43.71 9.12 43.79 8.86 43.92 8.62C44.06 8.39 44.24 8.18 44.47 8.01C44.69 7.84 44.96 7.71 45.24 7.64C45.52 7.57 45.82 7.55 46.1 7.58C47.45 7.58 48.39 8.26 48.39 9.24C48.39 9.56 48.27 9.88 48.05 10.14C47.82 10.39 47.51 10.57 47.16 10.64L47.16 10.71C47.57 10.73 47.97 10.9 48.25 11.18C48.53 11.45 48.69 11.82 48.67 12.2C48.64 12.47 48.55 12.74 48.4 12.98C48.26 13.22 48.06 13.43 47.82 13.6C47.58 13.77 47.31 13.9 47.02 13.97C46.73 14.04 46.42 14.07 46.12 14.03C45.82 14.07 45.52 14.05 45.22 13.98C44.93 13.91 44.66 13.78 44.42 13.61C44.18 13.44 43.98 13.23 43.83 12.99C43.69 12.75 43.6 12.48 43.57 12.21L44.58 12.21C44.64 12.8 45.24 13.18 46.12 13.18C47.01 13.18 47.58 12.75 47.58 12.15C47.58 11.54 47.04 11.17 46.09 11.17L45.15 11.17L45.15 10.33Z" fill="#FFFFFF" fill-opacity="1.000000" fill-rule="nonzero"/>
		<path id="Vector" d="M49.82 12.57C49.82 11.74 50.51 11.25 51.74 11.18L53.13 11.11L53.13 10.71C53.13 10.22 52.77 9.94 52.08 9.94C51.51 9.94 51.12 10.13 51 10.46L50.02 10.46C50.12 9.66 50.96 9.15 52.12 9.15C53.41 9.15 54.14 9.73 54.14 10.71L54.14 13.88L53.16 13.88L53.16 13.23L53.08 13.23C52.92 13.46 52.69 13.66 52.42 13.78C52.15 13.91 51.84 13.97 51.54 13.96C51.32 13.98 51.1 13.96 50.9 13.9C50.69 13.84 50.5 13.74 50.34 13.61C50.18 13.48 50.05 13.32 49.96 13.14C49.87 12.96 49.82 12.77 49.82 12.57ZM53.13 12.17L53.13 11.79L51.87 11.86C51.16 11.9 50.84 12.12 50.84 12.53C50.84 12.94 51.25 13.19 51.8 13.19C51.96 13.2 52.12 13.19 52.28 13.15C52.43 13.1 52.58 13.03 52.7 12.94C52.82 12.84 52.92 12.73 53 12.59C53.07 12.46 53.12 12.32 53.13 12.17Z" fill="#FFFFFF" fill-opacity="1.000000" fill-rule="nonzero"/>
		<path id="Vector" d="M56.83 10.01L56.83 13.88L55.82 13.88L55.82 9.24L59.2 9.24L59.2 10.01L56.83 10.01Z" fill="#FFFFFF" fill-opacity="1.000000" fill-rule="nonzero"/>
		<path id="Vector" d="M65.35 11.56C65.35 13.03 64.53 13.96 63.23 13.96C62.91 13.98 62.59 13.91 62.31 13.78C62.03 13.64 61.8 13.43 61.64 13.18L61.57 13.18L61.57 15.42L60.55 15.42L60.55 9.24L61.53 9.24L61.53 10.01L61.6 10.01C61.76 9.75 61.99 9.53 62.28 9.38C62.56 9.23 62.89 9.16 63.22 9.16C64.53 9.16 65.35 10.08 65.35 11.56ZM64.31 11.56C64.31 10.58 63.79 9.99 62.93 9.99C62.08 9.99 61.55 10.59 61.55 11.56C61.55 12.53 62.08 13.14 62.93 13.14C63.79 13.14 64.31 12.54 64.31 11.56Z" fill="#FFFFFF" fill-opacity="1.000000" fill-rule="nonzero"/>
		<path id="Vector" d="M66.7 15.55L66.7 14.76C66.81 14.77 66.92 14.77 67.03 14.77C67.25 14.79 67.46 14.73 67.64 14.61C67.81 14.49 67.92 14.32 67.96 14.13L68.04 13.9L66.18 9.24L67.28 9.24L68.57 12.93L68.65 12.93L69.94 9.24L71.01 9.24L69.1 14.08C68.66 15.2 68.17 15.57 67.12 15.57C67.04 15.57 66.8 15.56 66.7 15.55Z" fill="#FFFFFF" fill-opacity="1.000000" fill-rule="nonzero"/>
		<path id="Vector" d="M71.8 12.57L72.82 12.57C72.91 12.97 73.34 13.19 73.93 13.19C74.61 13.19 75.02 12.92 75.02 12.5C75.02 12.05 74.65 11.84 73.93 11.84L73.16 11.84L73.16 11.13L73.92 11.13C74.53 11.13 74.84 10.91 74.84 10.53C74.84 10.19 74.54 9.93 73.92 9.93C73.35 9.93 72.94 10.14 72.87 10.51L71.89 10.51C71.97 10.09 72.22 9.71 72.6 9.46C72.98 9.2 73.45 9.09 73.92 9.15C75.14 9.15 75.84 9.65 75.84 10.43C75.85 10.65 75.77 10.87 75.62 11.04C75.47 11.21 75.26 11.33 75.03 11.38L75.03 11.46C75.31 11.49 75.57 11.61 75.75 11.81C75.94 12 76.04 12.25 76.03 12.5C76.03 13.38 75.2 13.97 73.93 13.97C72.81 13.97 71.9 13.5 71.8 12.57Z" fill="#FFFFFF" fill-opacity="1.000000" fill-rule="nonzero"/>
		<path id="Vector" d="M77.5 13.88L77.5 9.24L78.5 9.24L78.5 12.43L78.58 12.43L80.95 9.24L81.96 9.24L81.96 13.88L80.95 13.88L80.95 10.67L80.87 10.67L78.5 13.88L77.5 13.88Z" fill="#FFFFFF" fill-opacity="1.000000" fill-rule="nonzero"/>
		<path id="Vector" d="M87.5 10.01L85.87 10.01L85.87 13.88L84.86 13.88L84.86 10.01L83.24 10.01L83.24 9.24L87.5 9.24L87.5 10.01Z" fill="#FFFFFF" fill-opacity="1.000000" fill-rule="nonzero"/>
		<path id="Vector" d="M92.96 12.63C92.82 13.05 92.52 13.42 92.12 13.67C91.71 13.91 91.22 14.02 90.73 13.97C90.39 13.98 90.06 13.92 89.75 13.8C89.43 13.68 89.16 13.5 88.93 13.27C88.7 13.04 88.53 12.77 88.44 12.48C88.34 12.19 88.31 11.88 88.36 11.58C88.31 11.27 88.34 10.96 88.44 10.67C88.54 10.38 88.71 10.11 88.93 9.88C89.16 9.65 89.43 9.46 89.74 9.34C90.05 9.21 90.39 9.15 90.73 9.15C92.16 9.15 93.02 10.03 93.02 11.49L93.02 11.81L89.39 11.81L89.39 11.86C89.37 12.03 89.4 12.2 89.46 12.37C89.52 12.53 89.62 12.68 89.75 12.8C89.88 12.93 90.03 13.03 90.21 13.09C90.38 13.16 90.57 13.19 90.76 13.19C91 13.22 91.25 13.18 91.47 13.08C91.68 12.98 91.86 12.82 91.98 12.63L92.96 12.63ZM89.39 11.13L91.99 11.13C92 10.98 91.98 10.82 91.92 10.67C91.86 10.53 91.77 10.39 91.65 10.28C91.53 10.17 91.39 10.08 91.23 10.02C91.07 9.96 90.9 9.93 90.72 9.93C90.55 9.93 90.37 9.96 90.21 10.02C90.05 10.08 89.9 10.17 89.78 10.28C89.65 10.39 89.55 10.52 89.49 10.67C89.42 10.82 89.39 10.98 89.39 11.13L89.39 11.13Z" fill="#FFFFFF" fill-opacity="1.000000" fill-rule="nonzero"/>
		<path id="Vector" d="M97.26 9.24L99.58 9.24C100.59 9.24 101.18 9.7 101.18 10.42C101.18 10.65 101.09 10.87 100.93 11.05C100.77 11.23 100.55 11.35 100.31 11.4L100.31 11.47C100.6 11.49 100.89 11.61 101.09 11.81C101.3 12.01 101.41 12.27 101.41 12.54C101.41 13.35 100.73 13.88 99.6 13.88L97.26 13.88L97.26 9.24ZM98.26 9.94L98.26 11.15L99.27 11.15C99.89 11.15 100.18 10.93 100.18 10.54C100.18 10.18 99.92 9.94 99.39 9.94L98.26 9.94ZM98.26 11.82L98.26 13.18L99.47 13.18C100.07 13.18 100.39 12.94 100.39 12.5C100.39 12.04 100.03 11.82 99.34 11.82L98.26 11.82Z" fill="#FFFFFF" fill-opacity="1.000000" fill-rule="nonzero"/>
	</g>
</svg>
