<svg width="24.000000" height="24.000000" viewBox="0 0 24 24" fill="none" xmlns="http://www.w3.org/2000/svg" xmlns:xlink="http://www.w3.org/1999/xlink">
	<desc>
			Created with Pixso.
	</desc>
	<defs>
		<clipPath id="clip298_2934">
			<rect id="mail_outline_24" rx="-0.500000" width="23.000000" height="23.000000" transform="translate(0.500000 0.500000)" fill="white" fill-opacity="0"/>
		</clipPath>
	</defs>
	<g clip-path="url(#clip298_2934)">
		<path id="↳ Icon Color" d="M7.8 4.09L7.76 4.09L7.76 4.09C6.95 4.09 6.29 4.09 5.75 4.14C5.2 4.18 4.69 4.28 4.23 4.52C3.49 4.89 2.9 5.49 2.52 6.22C2.28 6.69 2.19 7.19 2.14 7.75C2.1 8.29 2.1 8.95 2.1 9.76L2.1 9.76L2.1 9.79L2.1 14.19L2.1 14.23L2.1 14.23C2.1 15.04 2.1 15.7 2.14 16.24C2.19 16.79 2.28 17.3 2.52 17.76C2.9 18.5 3.49 19.1 4.23 19.47C4.69 19.71 5.2 19.81 5.75 19.85C6.29 19.9 6.95 19.9 7.76 19.9L7.8 19.9L16.2 19.9L16.23 19.9C17.04 19.9 17.7 19.9 18.24 19.85C18.8 19.81 19.3 19.71 19.77 19.47C20.5 19.1 21.1 18.5 21.47 17.76C21.71 17.3 21.81 16.79 21.85 16.24C21.9 15.7 21.9 15.04 21.9 14.23L21.9 14.19L21.9 9.79L21.9 9.76C21.9 8.95 21.9 8.29 21.85 7.75C21.81 7.19 21.71 6.69 21.47 6.22C21.1 5.49 20.5 4.89 19.77 4.52C19.3 4.28 18.8 4.18 18.24 4.14C17.7 4.09 17.04 4.09 16.23 4.09L16.23 4.09L16.2 4.09L7.8 4.09ZM5.38 6.01C5.51 5.98 5.68 5.95 5.9 5.93C6.35 5.9 6.94 5.9 7.8 5.9L16.2 5.9C17.05 5.9 17.64 5.9 18.09 5.93C18.31 5.95 18.48 5.98 18.62 6.01L14.61 9.51C14.03 10.02 13.63 10.37 13.3 10.61C12.98 10.85 12.78 10.96 12.6 11.01C12.21 11.12 11.78 11.12 11.39 11.01C11.21 10.96 11.01 10.85 10.69 10.61C10.36 10.37 9.96 10.02 9.39 9.51L5.38 6.01ZM4.05 7.24C4 7.39 3.96 7.6 3.93 7.9C3.9 8.35 3.9 8.94 3.9 9.79L3.9 14.19C3.9 15.05 3.9 15.64 3.93 16.09C3.97 16.54 4.04 16.77 4.12 16.95C4.33 17.34 4.65 17.66 5.04 17.87C5.22 17.95 5.46 18.02 5.9 18.06C6.35 18.09 6.94 18.09 7.8 18.09L16.2 18.09C17.05 18.09 17.64 18.09 18.09 18.06C18.54 18.02 18.78 17.95 18.95 17.87C19.35 17.66 19.67 17.34 19.87 16.95C19.96 16.77 20.02 16.54 20.06 16.09C20.1 15.64 20.1 15.05 20.1 14.19L20.1 9.79C20.1 8.94 20.1 8.35 20.06 7.9C20.03 7.6 20 7.39 19.94 7.24L15.79 10.87L15.76 10.89C15.22 11.37 14.77 11.76 14.38 12.05C13.98 12.36 13.58 12.6 13.11 12.73C12.39 12.95 11.61 12.95 10.88 12.73C10.42 12.6 10.02 12.36 9.61 12.05C9.22 11.76 8.77 11.37 8.23 10.89L8.2 10.87L4.05 7.24Z" fill="#98A2B3" fill-opacity="1.000000" fill-rule="evenodd"/>
	</g>
</svg>
