<svg width="24.000000" height="24.000000" viewBox="0 0 24 24" fill="none" xmlns="http://www.w3.org/2000/svg" xmlns:xlink="http://www.w3.org/1999/xlink">
	<desc>
			Created with Pixso.
	</desc>
	<defs>
		<clipPath id="clip298_2651">
			<rect id="map" rx="-0.428571" width="23.142857" height="23.142857" transform="translate(0.428571 0.428571)" fill="white" fill-opacity="0"/>
		</clipPath>
	</defs>
	<g clip-path="url(#clip298_2651)">
		<path id="↳ Icon Color" d="M12 2C7.71 2 4.24 5.48 4.24 9.76C4.24 12.73 6.01 16.22 9.24 20.19L9.23 20.19L9.8 20.86C10.83 22.07 12.64 22.23 13.85 21.2C13.97 21.1 14.08 20.99 14.19 20.86C17.78 16.62 19.75 12.9 19.75 9.76C19.75 5.48 16.28 2 12 2ZM12.69 19.83C12.24 20.21 11.56 20.15 11.18 19.7L11.17 19.7C7.63 15.51 6.04 12.22 6.04 9.76C6.04 6.47 8.71 3.8 12 3.8C15.28 3.8 17.95 6.47 17.95 9.76C17.95 12.22 16.36 15.51 12.81 19.7C12.77 19.75 12.73 19.79 12.69 19.83ZM15.5 9.5C15.5 11.43 13.93 13 12 13C10.06 13 8.5 11.43 8.5 9.5C8.5 7.56 10.06 6 12 6C13.93 6 15.5 7.56 15.5 9.5ZM13.69 9.5C13.69 10.43 12.93 11.19 12 11.19C11.05 11.19 10.3 10.43 10.3 9.5C10.3 8.56 11.05 7.8 12 7.8C12.93 7.8 13.69 8.56 13.69 9.5Z" fill="#FFBA00" fill-opacity="1.000000" fill-rule="evenodd"/>
	</g>
</svg>
