<svg width="52.000000" height="52.000000" viewBox="0 0 52 52" fill="none" xmlns="http://www.w3.org/2000/svg" xmlns:xlink="http://www.w3.org/1999/xlink">
	<desc>
			Created with Pixso.
	</desc>
	<defs>
		<filter id="filter_298_2601_dd" x="0.000000" y="0.000000" width="52.000000" height="52.000000" filterUnits="userSpaceOnUse" color-interpolation-filters="sRGB">
			<feFlood flood-opacity="0" result="BackgroundImageFix"/>
			<feColorMatrix in="SourceAlpha" type="matrix" values="0 0 0 0 0 0 0 0 0 0 0 0 0 0 0 0 0 0 127 0" result="hardAlpha"/>
			<feOffset dx="0" dy="2"/>
			<feGaussianBlur stdDeviation="1.33333"/>
			<feComposite in2="hardAlpha" operator="out" k2="-1" k3="1"/>
			<feColorMatrix type="matrix" values="0 0 0 0 0 0 0 0 0 0 0 0 0 0 0 0 0 0 0.078 0"/>
			<feBlend mode="normal" in2="BackgroundImageFix" result="effect_dropShadow_1"/>
			<feBlend mode="normal" in="SourceGraphic" in2="effect_dropShadow_1" result="shape"/>
		</filter>
		<clipPath id="clip298_2602">
			<rect id="market_outline_24" rx="-0.500000" width="23.000000" height="23.000000" transform="translate(14.500000 12.500000)" fill="white" fill-opacity="0"/>
		</clipPath>
	</defs>
	<g filter="url(#filter_298_2601_dd)">
		<rect id="marketplace" rx="21.500000" width="43.000000" height="43.000000" transform="translate(4.500000 2.500000)" fill="#FFFFFF" fill-opacity="1.000000"/>
		<g clip-path="url(#clip298_2602)">
			<path id="↳ Icon Color" d="M26 13.09C28.76 13.09 31 15.33 31 18.09L31.05 18.09C32.39 18.09 32.87 18.23 33.36 18.5C33.85 18.76 34.23 19.14 34.5 19.63C34.76 20.12 34.9 20.6 34.9 21.94L34.9 26.83C34.9 28.92 34.67 29.69 34.26 30.46C33.85 31.24 33.24 31.85 32.47 32.26C31.69 32.67 30.92 32.9 28.83 32.9L23.16 32.9C21.07 32.9 20.3 32.67 19.53 32.26C18.75 31.85 18.14 31.24 17.73 30.46C17.32 29.69 17.1 28.92 17.1 26.83L17.1 21.94C17.1 20.6 17.24 20.12 17.5 19.63C17.76 19.14 18.14 18.76 18.63 18.5C19.12 18.23 19.6 18.09 20.94 18.09L21 18.09C21 15.33 23.23 13.09 26 13.09ZM31.25 19.9L20.94 19.9C20 19.9 19.74 19.94 19.48 20.08C19.3 20.18 19.18 20.3 19.08 20.48C18.94 20.74 18.9 20.99 18.9 21.94L18.9 26.83C18.9 28.46 19.01 29.03 19.32 29.62C19.57 30.08 19.92 30.43 20.37 30.67C20.96 30.98 21.53 31.09 23.16 31.09L28.83 31.09C30.47 31.09 31.03 30.98 31.62 30.67C32.08 30.43 32.43 30.08 32.67 29.62C32.99 29.03 33.1 28.46 33.1 26.83L33.1 21.94C33.1 20.99 33.05 20.74 32.91 20.48C32.82 20.3 32.69 20.18 32.51 20.08C32.27 19.95 32.03 19.9 31.25 19.9ZM29.94 21C30.15 21 30.29 21.03 30.41 21.09C30.53 21.16 30.63 21.26 30.7 21.38C30.76 21.5 30.8 21.64 30.8 21.85L30.8 21.94C30.8 22.15 30.76 22.29 30.7 22.41C30.63 22.53 30.53 22.63 30.41 22.69C30.29 22.76 30.15 22.79 29.94 22.79L29.85 22.79C29.64 22.79 29.5 22.76 29.38 22.69C29.26 22.63 29.16 22.53 29.1 22.41C29.03 22.29 29 22.15 29 21.94L29 21.85C29 21.64 29.03 21.5 29.1 21.38C29.16 21.26 29.26 21.16 29.38 21.09C29.5 21.03 29.64 21 29.85 21L29.94 21ZM21.94 21C22.15 21 22.29 21.03 22.41 21.09C22.53 21.16 22.63 21.26 22.7 21.38C22.76 21.5 22.8 21.64 22.8 21.85L22.8 21.94C22.8 22.15 22.76 22.29 22.7 22.41C22.63 22.53 22.53 22.63 22.41 22.69C22.29 22.76 22.15 22.79 21.94 22.79L21.85 22.79C21.64 22.79 21.5 22.76 21.38 22.69C21.26 22.63 21.16 22.53 21.1 22.41C21.03 22.29 21 22.15 21 21.94L21 21.85C21 21.64 21.03 21.5 21.1 21.38C21.16 21.26 21.26 21.16 21.38 21.09C21.5 21.03 21.64 21 21.85 21L21.94 21ZM26 14.9C24.23 14.9 22.8 16.33 22.8 18.09L29.2 18.09C29.2 16.33 27.76 14.9 26 14.9Z" fill="#FFBA00" fill-opacity="1.000000" fill-rule="nonzero"/>
		</g>
	</g>
</svg>
