<svg width="24.000000" height="24.000000" viewBox="0 0 24 24" fill="none" xmlns="http://www.w3.org/2000/svg" xmlns:xlink="http://www.w3.org/1999/xlink">
	<desc>
			Created with Pixso.
	</desc>
	<defs>
		<clipPath id="clip298_2925">
			<rect id="smartphone_outline_24" rx="-0.500000" width="23.000000" height="23.000000" transform="translate(0.500000 0.500000)" fill="white" fill-opacity="0"/>
		</clipPath>
	</defs>
	<g clip-path="url(#clip298_2925)">
		<path id="↳ Icon Color" d="M11.17 3.9L12.82 3.9C13.91 3.9 14.62 3.9 15.17 3.94C15.69 3.98 15.89 4.06 16 4.11C16.38 4.3 16.69 4.61 16.88 4.99C16.94 5.1 17.01 5.3 17.05 5.83C17.1 6.37 17.1 7.08 17.1 8.17L17.1 15.82C17.1 16.91 17.1 17.62 17.05 18.16C17.01 18.69 16.94 18.89 16.88 19C16.69 19.38 16.38 19.68 16 19.88C15.89 19.93 15.69 20.01 15.17 20.05C14.62 20.09 13.91 20.09 12.82 20.09L11.17 20.09C10.08 20.09 9.37 20.09 8.83 20.05C8.3 20.01 8.1 19.93 7.99 19.88C7.61 19.68 7.31 19.38 7.12 19C7.06 18.89 6.98 18.69 6.94 18.16C6.9 17.62 6.9 16.91 6.9 15.82L6.9 8.17C6.9 7.08 6.9 6.37 6.94 5.83C6.98 5.3 7.06 5.1 7.12 4.99C7.31 4.61 7.61 4.3 7.99 4.11C8.1 4.06 8.3 3.98 8.83 3.94C9.37 3.9 10.08 3.9 11.17 3.9ZM5.1 8.17C5.1 6.05 5.1 4.98 5.51 4.17C5.87 3.45 6.46 2.87 7.17 2.51C7.98 2.09 9.05 2.09 11.17 2.09L12.82 2.09C14.94 2.09 16.01 2.09 16.82 2.51C17.54 2.87 18.12 3.45 18.48 4.17C18.9 4.98 18.9 6.05 18.9 8.17L18.9 15.82C18.9 17.94 18.9 19.01 18.48 19.82C18.12 20.53 17.54 21.12 16.82 21.48C16.01 21.9 14.94 21.9 12.82 21.9L11.17 21.9C9.05 21.9 7.98 21.9 7.17 21.48C6.46 21.12 5.87 20.53 5.51 19.82C5.1 19.01 5.1 17.94 5.1 15.82L5.1 8.17ZM11.25 16.19C10.75 16.19 10.35 16.6 10.35 17.09C10.35 17.59 10.75 18 11.25 18L12.75 18C13.25 18 13.65 17.59 13.65 17.09C13.65 16.6 13.25 16.19 12.75 16.19L11.25 16.19Z" fill="#98A2B3" fill-opacity="1.000000" fill-rule="evenodd"/>
	</g>
</svg>
