<svg width="48.000000" height="48.000000" viewBox="0 0 48 48" fill="none" xmlns="http://www.w3.org/2000/svg" xmlns:xlink="http://www.w3.org/1999/xlink">
	<desc>
			Created with Pixso.
	</desc>
	<defs>
		<clipPath id="clip298_2772">
			<rect id="planing" rx="-0.500000" width="47.000000" height="47.000000" transform="translate(0.500000 0.500000)" fill="white" fill-opacity="0"/>
		</clipPath>
	</defs>
	<rect id="planing" rx="-0.500000" width="47.000000" height="47.000000" transform="translate(0.500000 0.500000)" fill="#FFFFFF" fill-opacity="0"/>
	<g clip-path="url(#clip298_2772)">
		<path id="Vector" d="M33.75 20.68L32.77 19.71L31.71 20.77L33.21 22.27C33.35 22.41 33.55 22.49 33.75 22.49C33.94 22.49 34.13 22.41 34.27 22.27L37.27 19.27L36.21 18.21L33.75 20.68Z" fill="#80A948" fill-opacity="1.000000" fill-rule="nonzero"/>
		<path id="Vector" d="M33.75 26.68L32.77 25.71L31.71 26.77L33.21 28.27C33.35 28.41 33.55 28.49 33.75 28.49C33.94 28.49 34.13 28.41 34.27 28.27L37.27 25.27L36.21 24.21L33.75 26.68Z" fill="#80A948" fill-opacity="1.000000" fill-rule="nonzero"/>
		<path id="Vector" d="M33.75 33.43L32.77 32.46L31.71 33.52L33.21 35.02C33.35 35.16 33.55 35.24 33.75 35.24C33.94 35.24 34.13 35.16 34.27 35.02L37.27 32.02L36.21 30.96L33.75 33.43Z" fill="#80A948" fill-opacity="1.000000" fill-rule="nonzero"/>
		<path id="Vector" d="M42.75 15.75L37.5 15.75L37.5 8.25C37.5 7.65 37.26 7.08 36.83 6.66C36.41 6.24 35.84 6 35.25 6L27.75 6L27.75 5.25C27.75 4.65 27.51 4.08 27.08 3.66C26.66 3.24 26.09 3 25.5 3L24 3L24 2.25C24 2.05 23.92 1.85 23.78 1.71C23.64 1.57 23.44 1.5 23.25 1.5L17.25 1.5C17.05 1.5 16.85 1.57 16.71 1.71C16.57 1.85 16.5 2.05 16.5 2.25L16.5 3L15 3C14.4 3 13.83 3.24 13.41 3.66C12.98 4.08 12.75 4.65 12.75 5.25L12.75 6L5.25 6C4.65 6 4.08 6.24 3.66 6.66C3.23 7.08 3 7.65 3 8.25L3 44.25C3 44.84 3.23 45.41 3.66 45.83C4.08 46.25 4.65 46.49 5.25 46.5L35.25 46.5C35.84 46.49 36.41 46.25 36.83 45.83C37.26 45.41 37.5 44.84 37.5 44.25L37.5 38.25L42.75 38.25C43.34 38.24 43.91 38 44.33 37.58C44.76 37.16 45 36.59 45 36L45 18C45 17.4 44.76 16.83 44.33 16.41C43.91 15.99 43.34 15.75 42.75 15.75ZM24 4.5L25.5 4.5C25.69 4.5 25.89 4.57 26.03 4.71C26.17 4.85 26.25 5.05 26.25 5.25L26.25 6L24 6L24 4.5ZM24 7.5L35.25 7.5C35.44 7.5 35.64 7.57 35.78 7.71C35.92 7.85 36 8.05 36 8.25L36 15.75L35.25 15.75L35.25 9C35.25 8.8 35.17 8.6 35.03 8.46C34.89 8.32 34.69 8.25 34.5 8.25L24 8.25L24 7.5ZM18 3L22.5 3L22.5 9C22.5 9.19 22.42 9.39 22.28 9.53C22.14 9.67 21.94 9.75 21.75 9.75L18.75 9.75C18.55 9.75 18.35 9.67 18.21 9.53C18.07 9.39 18 9.19 18 9L18 3ZM16.63 9.75C16.78 10.18 17.07 10.56 17.45 10.83C17.83 11.1 18.28 11.24 18.75 11.25L21.75 11.25C22.21 11.24 22.66 11.1 23.04 10.83C23.42 10.56 23.71 10.18 23.86 9.75L33.75 9.75L33.75 15.75L30.75 15.75C30.15 15.75 29.58 15.99 29.16 16.41C28.73 16.83 28.5 17.4 28.5 18L28.5 36C28.5 36.59 28.73 37.16 29.16 37.58C29.58 38 30.15 38.24 30.75 38.25L33.75 38.25L33.75 42.75L6.75 42.75L6.75 9.75L16.63 9.75ZM14.25 5.25C14.25 5.05 14.32 4.85 14.46 4.71C14.6 4.57 14.8 4.5 15 4.5L16.5 4.5L16.5 6L14.25 6L14.25 5.25ZM36 44.25C36 44.44 35.92 44.64 35.78 44.78C35.64 44.92 35.44 45 35.25 45L5.25 45C5.05 45 4.85 44.92 4.71 44.78C4.57 44.64 4.5 44.44 4.5 44.25L4.5 8.25C4.5 8.05 4.57 7.85 4.71 7.71C4.85 7.57 5.05 7.5 5.25 7.5L16.5 7.5L16.5 8.25L6 8.25C5.8 8.25 5.6 8.32 5.46 8.46C5.32 8.6 5.25 8.8 5.25 9L5.25 43.5C5.25 43.69 5.32 43.89 5.46 44.03C5.6 44.17 5.8 44.25 6 44.25L34.5 44.25C34.69 44.25 34.89 44.17 35.03 44.03C35.17 43.89 35.25 43.69 35.25 43.5L35.25 38.25L36 38.25L36 44.25ZM43.5 36C43.5 36.19 43.42 36.39 43.28 36.53C43.14 36.67 42.94 36.75 42.75 36.75L30.75 36.75C30.55 36.75 30.35 36.67 30.21 36.53C30.07 36.39 30 36.19 30 36L30 18C30 17.8 30.07 17.6 30.21 17.46C30.35 17.32 30.55 17.25 30.75 17.25L42.75 17.25C42.94 17.25 43.14 17.32 43.28 17.46C43.42 17.6 43.5 17.8 43.5 18L43.5 36Z" fill="#80A948" fill-opacity="1.000000" fill-rule="nonzero"/>
		<path id="Vector" d="M37.5 20.25L42 20.25L42 21.75L37.5 21.75L37.5 20.25Z" fill="#80A948" fill-opacity="1.000000" fill-rule="nonzero"/>
		<path id="Vector" d="M37.5 26.25L42 26.25L42 27.75L37.5 27.75L37.5 26.25Z" fill="#80A948" fill-opacity="1.000000" fill-rule="nonzero"/>
		<path id="Vector" d="M37.5 33L42 33L42 34.5L37.5 34.5L37.5 33Z" fill="#80A948" fill-opacity="1.000000" fill-rule="nonzero"/>
		<path id="Vector" d="M19.5 17.25L24 17.25C24.19 17.25 24.39 17.17 24.53 17.03C24.67 16.89 24.75 16.69 24.75 16.5L24.75 15.75L27 15.75L27 14.25L24.75 14.25L24.75 13.5C24.75 13.3 24.67 13.1 24.53 12.96C24.39 12.82 24.19 12.75 24 12.75L19.5 12.75C19.3 12.75 19.1 12.82 18.96 12.96C18.82 13.1 18.75 13.3 18.75 13.5L18.75 14.25L14.25 14.25L14.25 13.5C14.25 13.3 14.17 13.1 14.03 12.96C13.89 12.82 13.69 12.75 13.5 12.75L9 12.75C8.8 12.75 8.6 12.82 8.46 12.96C8.32 13.1 8.25 13.3 8.25 13.5L8.25 16.5C8.25 16.69 8.32 16.89 8.46 17.03C8.6 17.17 8.8 17.25 9 17.25L10.5 17.25L10.5 20.25L9 20.25C8.8 20.25 8.6 20.32 8.46 20.46C8.32 20.6 8.25 20.8 8.25 21L8.25 24C8.25 24.19 8.32 24.39 8.46 24.53C8.6 24.67 8.8 24.75 9 24.75L10.5 24.75L10.5 27.75L9 27.75C8.8 27.75 8.6 27.82 8.46 27.96C8.32 28.1 8.25 28.3 8.25 28.5L8.25 31.5C8.25 31.69 8.32 31.89 8.46 32.03C8.6 32.17 8.8 32.25 9 32.25L10.5 32.25L10.5 35.25L9 35.25C8.8 35.25 8.6 35.32 8.46 35.46C8.32 35.6 8.25 35.8 8.25 36L8.25 39C8.25 39.19 8.32 39.39 8.46 39.53C8.6 39.67 8.8 39.75 9 39.75L13.5 39.75C13.69 39.75 13.89 39.67 14.03 39.53C14.17 39.39 14.25 39.19 14.25 39L14.25 38.25L18.75 38.25L18.75 39C18.75 39.19 18.82 39.39 18.96 39.53C19.1 39.67 19.3 39.75 19.5 39.75L24 39.75C24.19 39.75 24.39 39.67 24.53 39.53C24.67 39.39 24.75 39.19 24.75 39L24.75 38.25L27 38.25L27 36.75L24.75 36.75L24.75 36C24.75 35.8 24.67 35.6 24.53 35.46C24.39 35.32 24.19 35.25 24 35.25L19.5 35.25C19.3 35.25 19.1 35.32 18.96 35.46C18.82 35.6 18.75 35.8 18.75 36L18.75 36.75L14.25 36.75L14.25 36C14.25 35.8 14.17 35.6 14.03 35.46C13.89 35.32 13.69 35.25 13.5 35.25L12 35.25L12 32.25L13.5 32.25C13.69 32.25 13.89 32.17 14.03 32.03C14.17 31.89 14.25 31.69 14.25 31.5L14.25 28.5C14.25 28.3 14.17 28.1 14.03 27.96C13.89 27.82 13.69 27.75 13.5 27.75L12 27.75L12 24.75L13.5 24.75C13.69 24.75 13.89 24.67 14.03 24.53C14.17 24.39 14.25 24.19 14.25 24L14.25 23.25L18.75 23.25L18.75 24C18.75 24.19 18.82 24.39 18.96 24.53C19.1 24.67 19.3 24.75 19.5 24.75L21 24.75L21 27.75L19.5 27.75C19.3 27.75 19.1 27.82 18.96 27.96C18.82 28.1 18.75 28.3 18.75 28.5L18.75 31.5C18.75 31.69 18.82 31.89 18.96 32.03C19.1 32.17 19.3 32.25 19.5 32.25L24 32.25C24.19 32.25 24.39 32.17 24.53 32.03C24.67 31.89 24.75 31.69 24.75 31.5L24.75 30.75L27 30.75L27 29.25L24.75 29.25L24.75 28.5C24.75 28.3 24.67 28.1 24.53 27.96C24.39 27.82 24.19 27.75 24 27.75L22.5 27.75L22.5 24.75L24 24.75C24.19 24.75 24.39 24.67 24.53 24.53C24.67 24.39 24.75 24.19 24.75 24L24.75 23.25L27 23.25L27 21.75L24.75 21.75L24.75 21C24.75 20.8 24.67 20.6 24.53 20.46C24.39 20.32 24.19 20.25 24 20.25L19.5 20.25C19.3 20.25 19.1 20.32 18.96 20.46C18.82 20.6 18.75 20.8 18.75 21L18.75 21.75L14.25 21.75L14.25 21C14.25 20.8 14.17 20.6 14.03 20.46C13.89 20.32 13.69 20.25 13.5 20.25L12 20.25L12 17.25L13.5 17.25C13.69 17.25 13.89 17.17 14.03 17.03C14.17 16.89 14.25 16.69 14.25 16.5L14.25 15.75L18.75 15.75L18.75 16.5C18.75 16.69 18.82 16.89 18.96 17.03C19.1 17.17 19.3 17.25 19.5 17.25ZM20.25 14.25L23.25 14.25L23.25 15.75L20.25 15.75L20.25 14.25ZM20.25 36.75L23.25 36.75L23.25 38.25L20.25 38.25L20.25 36.75ZM23.25 29.25L23.25 30.75L20.25 30.75L20.25 29.25L23.25 29.25ZM20.25 21.75L23.25 21.75L23.25 23.25L20.25 23.25L20.25 21.75ZM12.75 36.75L12.75 38.25L9.75 38.25L9.75 36.75L12.75 36.75ZM12.75 29.25L12.75 30.75L9.75 30.75L9.75 29.25L12.75 29.25ZM12.75 21.75L12.75 23.25L9.75 23.25L9.75 21.75L12.75 21.75ZM12.75 15.75L9.75 15.75L9.75 14.25L12.75 14.25L12.75 15.75Z" fill="#80A948" fill-opacity="1.000000" fill-rule="nonzero"/>
	</g>
</svg>
