<svg width="52.000000" height="52.000000" viewBox="0 0 52 52" fill="none" xmlns="http://www.w3.org/2000/svg" xmlns:xlink="http://www.w3.org/1999/xlink">
	<desc>
			Created with Pixso.
	</desc>
	<defs>
		<filter id="filter_298_2618_dd" x="0.000000" y="0.000000" width="52.000000" height="52.000000" filterUnits="userSpaceOnUse" color-interpolation-filters="sRGB">
			<feFlood flood-opacity="0" result="BackgroundImageFix"/>
			<feColorMatrix in="SourceAlpha" type="matrix" values="0 0 0 0 0 0 0 0 0 0 0 0 0 0 0 0 0 0 127 0" result="hardAlpha"/>
			<feOffset dx="0" dy="2"/>
			<feGaussianBlur stdDeviation="1.33333"/>
			<feComposite in2="hardAlpha" operator="out" k2="-1" k3="1"/>
			<feColorMatrix type="matrix" values="0 0 0 0 0 0 0 0 0 0 0 0 0 0 0 0 0 0 0.078 0"/>
			<feBlend mode="normal" in2="BackgroundImageFix" result="effect_dropShadow_1"/>
			<feBlend mode="normal" in="SourceGraphic" in2="effect_dropShadow_1" result="shape"/>
		</filter>
		<clipPath id="clip298_2619">
			<rect id="magic_wand_outline_24" rx="-0.500000" width="23.000000" height="23.000000" transform="translate(14.500000 12.500000)" fill="white" fill-opacity="0"/>
		</clipPath>
	</defs>
	<g filter="url(#filter_298_2618_dd)">
		<rect id="religions" rx="21.500000" width="43.000000" height="43.000000" transform="translate(4.500000 2.500000)" fill="#FFFFFF" fill-opacity="1.000000"/>
		<g clip-path="url(#clip298_2619)">
			<path id="↳ Icon Color" d="M29.37 19.89L31.25 18.9L33.12 19.89C33.3 19.99 33.48 19.8 33.39 19.62L32.4 17.75L33.39 15.87C33.48 15.7 33.3 15.51 33.12 15.6L31.25 16.59L29.37 15.6C29.2 15.51 29.01 15.7 29.1 15.87L30.09 17.75L29.1 19.62C29.01 19.8 29.2 19.99 29.37 19.89ZM19.1 20.12C19.01 20.3 19.2 20.49 19.37 20.39L21.25 19.4L23.12 20.39C23.3 20.49 23.48 20.3 23.39 20.12L22.4 18.25L23.39 16.37C23.48 16.2 23.3 16.01 23.12 16.1L21.25 17.09L19.37 16.1C19.2 16.01 19.01 16.2 19.1 16.37L20.09 18.25L19.1 20.12ZM27.13 23.63C27.48 23.28 27.48 22.71 27.13 22.36C26.78 22.01 26.21 22.01 25.86 22.36L16.36 31.86C16.01 32.21 16.01 32.78 16.36 33.13C16.71 33.48 17.28 33.48 17.63 33.13L27.13 23.63ZM29.37 29.39C29.2 29.49 29.01 29.3 29.1 29.12L30.09 27.25L29.1 25.37C29.01 25.2 29.2 25.01 29.37 25.1L31.25 26.09L33.12 25.1C33.3 25.01 33.48 25.2 33.39 25.37L32.4 27.25L33.39 29.12C33.48 29.3 33.3 29.49 33.12 29.39L31.25 28.4L29.37 29.39Z" fill="#FFBA00" fill-opacity="1.000000" fill-rule="evenodd"/>
		</g>
	</g>
</svg>
