<svg width="24.000000" height="24.000000" viewBox="0 0 24 24" fill="none" xmlns="http://www.w3.org/2000/svg" xmlns:xlink="http://www.w3.org/1999/xlink">
	<desc>
			Created with Pixso.
	</desc>
	<defs>
		<clipPath id="clip298_2954">
			<rect id="document_outline_24" rx="-0.500000" width="23.000000" height="23.000000" transform="translate(0.500000 0.500000)" fill="white" fill-opacity="0"/>
		</clipPath>
	</defs>
	<g clip-path="url(#clip298_2954)">
		<path id="↳ Icon Color" d="M13.1 3.9L10.6 3.9C9.6 3.9 8.91 3.9 8.37 3.94C7.84 3.98 7.54 4.06 7.32 4.18C6.83 4.43 6.43 4.83 6.18 5.32C6.07 5.54 5.98 5.84 5.94 6.37C5.9 6.91 5.9 7.6 5.9 8.59L5.9 15.4C5.9 16.39 5.9 17.08 5.94 17.62C5.98 18.15 6.07 18.45 6.18 18.67C6.43 19.16 6.83 19.56 7.32 19.81C7.54 19.93 7.84 20.01 8.37 20.05C8.91 20.09 9.6 20.09 10.6 20.09L14.4 20.09C15.39 20.09 16.08 20.09 16.62 20.05C17.15 20.01 17.45 19.93 17.68 19.81C18.17 19.56 18.57 19.16 18.81 18.67C18.93 18.45 19.01 18.15 19.05 17.62C19.1 17.08 19.1 16.39 19.1 15.4L19.1 9.9L17.2 9.9L17.16 9.9C16.63 9.9 16.18 9.9 15.81 9.86C15.42 9.83 15.04 9.76 14.68 9.58C14.14 9.3 13.69 8.86 13.41 8.31C13.23 7.95 13.16 7.57 13.13 7.18C13.1 6.81 13.1 6.36 13.1 5.83L13.1 5.79L13.1 3.9ZM18.32 8.09L14.9 4.67L14.9 5.79C14.9 6.37 14.9 6.75 14.92 7.03C14.94 7.31 14.98 7.43 15.01 7.5C15.12 7.7 15.29 7.87 15.5 7.98C15.56 8.01 15.68 8.05 15.96 8.07C16.25 8.09 16.62 8.09 17.2 8.09L18.32 8.09ZM14.44 2.16C14.16 2.09 13.87 2.09 13.57 2.09L13.5 2.09L10.6 2.09L10.56 2.09C9.61 2.09 8.85 2.09 8.23 2.15C7.58 2.2 7.02 2.31 6.5 2.58C5.67 3 5 3.67 4.58 4.5C4.31 5.02 4.2 5.58 4.15 6.22C4.1 6.84 4.1 7.61 4.1 8.56L4.1 8.59L4.1 15.4L4.1 15.43C4.1 16.38 4.1 17.15 4.15 17.77C4.2 18.41 4.31 18.97 4.58 19.49C5 20.32 5.67 20.99 6.5 21.41C7.02 21.68 7.58 21.79 8.23 21.84C8.85 21.9 9.61 21.9 10.56 21.9L10.6 21.9L14.4 21.9L14.44 21.9C15.38 21.9 16.15 21.9 16.77 21.84C17.41 21.79 17.97 21.68 18.5 21.41C19.32 20.99 20 20.32 20.42 19.49C20.68 18.97 20.79 18.41 20.85 17.77C20.9 17.15 20.9 16.38 20.9 15.43L20.9 15.4L20.9 9.49L20.9 9.42C20.9 9.12 20.9 8.83 20.83 8.56C20.77 8.31 20.67 8.08 20.54 7.86C20.39 7.62 20.19 7.41 19.98 7.2L19.93 7.16L15.83 3.06L15.79 3.01C15.58 2.8 15.37 2.6 15.13 2.45C14.91 2.32 14.68 2.22 14.44 2.16Z" fill="#98A2B3" fill-opacity="1.000000" fill-rule="evenodd"/>
	</g>
</svg>
