<svg width="52.000000" height="52.000000" viewBox="0 0 52 52" fill="none" xmlns="http://www.w3.org/2000/svg" xmlns:xlink="http://www.w3.org/1999/xlink">
	<desc>
			Created with Pixso.
	</desc>
	<defs>
		<filter id="filter_298_2597_dd" x="0.000000" y="0.000000" width="52.000000" height="52.000000" filterUnits="userSpaceOnUse" color-interpolation-filters="sRGB">
			<feFlood flood-opacity="0" result="BackgroundImageFix"/>
			<feColorMatrix in="SourceAlpha" type="matrix" values="0 0 0 0 0 0 0 0 0 0 0 0 0 0 0 0 0 0 127 0" result="hardAlpha"/>
			<feOffset dx="0" dy="2"/>
			<feGaussianBlur stdDeviation="1.33333"/>
			<feComposite in2="hardAlpha" operator="out" k2="-1" k3="1"/>
			<feColorMatrix type="matrix" values="0 0 0 0 0 0 0 0 0 0 0 0 0 0 0 0 0 0 0.078 0"/>
			<feBlend mode="normal" in2="BackgroundImageFix" result="effect_dropShadow_1"/>
			<feBlend mode="normal" in="SourceGraphic" in2="effect_dropShadow_1" result="shape"/>
		</filter>
		<clipPath id="clip298_2598">
			<rect id="bowl_sticks_outline_24" rx="-0.500000" width="23.000000" height="23.000000" transform="translate(14.500000 12.500000)" fill="white" fill-opacity="0"/>
		</clipPath>
	</defs>
	<g filter="url(#filter_298_2597_dd)">
		<rect id="resturant" rx="21.500000" width="43.000000" height="43.000000" transform="translate(4.500000 2.500000)" fill="#FFFFFF" fill-opacity="1.000000"/>
		<g clip-path="url(#clip298_2598)">
			<path id="↳ Icon Color" d="M19.62 14.73C19.98 14.38 20.55 14.38 20.9 14.73L27.21 21.05C27.23 21.06 27.25 21.08 27.26 21.09L33.66 21.09C33.69 21.09 33.71 21.09 33.73 21.09C33.97 21.09 34.24 21.09 34.49 21.16C35.14 21.34 35.66 21.85 35.83 22.5C35.9 22.75 35.9 23.02 35.9 23.26C35.9 23.28 35.9 23.31 35.9 23.33C35.9 23.38 35.9 23.43 35.9 23.48C35.9 24.89 35.9 25.77 35.69 26.52C35.18 28.43 33.75 29.95 31.9 30.58L31.9 31.01C31.9 31.04 31.9 31.07 31.9 31.1C31.9 31.46 31.9 31.79 31.82 32.09C31.6 32.94 30.94 33.6 30.09 33.82C29.8 33.9 29.46 33.9 29.1 33.9C29.07 33.9 29.05 33.9 29.02 33.9L22.98 33.9C22.95 33.9 22.92 33.9 22.89 33.9C22.53 33.9 22.2 33.9 21.9 33.82C21.05 33.6 20.39 32.94 20.17 32.09C20.1 31.79 20.1 31.46 20.1 31.1C20.1 31.07 20.1 31.04 20.1 31.01L20.1 30.58C18.24 29.95 16.81 28.43 16.3 26.52C16.1 25.77 16.1 24.89 16.1 23.48C16.1 23.43 16.1 23.38 16.1 23.33C16.1 23.31 16.1 23.28 16.1 23.26C16.1 23.02 16.1 22.75 16.16 22.5C16.34 21.85 16.85 21.34 17.51 21.16C17.75 21.09 18.03 21.09 18.26 21.09C18.29 21.09 18.31 21.09 18.33 21.09L20.48 21.09L17.5 18.12C17.15 17.77 17.15 17.2 17.5 16.85C17.85 16.5 18.42 16.5 18.77 16.85L23.02 21.09L24.72 21.09L19.62 16C19.27 15.65 19.27 15.08 19.62 14.73ZM23.66 29.09L28.33 29.09C29.94 29.09 30.57 29.09 31.06 28.96C32.47 28.58 33.58 27.47 33.96 26.06C34.09 25.56 34.1 24.94 34.1 23.33C34.1 23.16 34.1 23.07 34.09 23C34.09 22.98 34.09 22.97 34.09 22.96C34.08 22.93 34.06 22.91 34.03 22.9C34.02 22.9 34.01 22.9 33.99 22.9C33.92 22.9 33.83 22.9 33.66 22.9L18.33 22.9C18.17 22.9 18.07 22.9 18.01 22.9C17.98 22.9 17.97 22.9 17.96 22.9C17.94 22.91 17.91 22.93 17.9 22.96C17.9 22.97 17.9 22.98 17.9 23C17.9 23.07 17.9 23.16 17.9 23.33C17.9 24.94 17.91 25.56 18.04 26.06C18.42 27.47 19.52 28.58 20.94 28.96C21.43 29.09 22.06 29.09 23.66 29.09ZM21.9 30.9L21.9 31.01C21.9 31.52 21.91 31.6 21.92 31.65C21.97 31.86 22.14 32.02 22.35 32.08C22.39 32.09 22.48 32.09 22.98 32.09L29.02 32.09C29.52 32.09 29.6 32.09 29.65 32.08C29.86 32.02 30.02 31.86 30.08 31.65C30.09 31.6 30.1 31.52 30.1 31.01L30.1 30.9L28.78 30.9C28.68 30.9 28.58 30.9 28.48 30.9C28.43 30.9 28.38 30.9 28.33 30.9L23.66 30.9C23.61 30.9 23.56 30.9 23.51 30.9C23.41 30.9 23.31 30.9 23.22 30.9L21.9 30.9Z" fill="#FFBA00" fill-opacity="1.000000" fill-rule="evenodd"/>
		</g>
	</g>
</svg>
