<svg width="48.000000" height="48.000000" viewBox="0 0 48 48" fill="none" xmlns="http://www.w3.org/2000/svg" xmlns:xlink="http://www.w3.org/1999/xlink">
	<desc>
			Created with Pixso.
	</desc>
	<defs>
		<clipPath id="clip298_2819">
			<rect rx="-0.500000" width="47.000000" height="47.000000" transform="translate(0.500000 0.500000)" fill="white" fill-opacity="0"/>
		</clipPath>
	</defs>
	<rect rx="-0.500000" width="47.000000" height="47.000000" transform="translate(0.500000 0.500000)" fill="#FFFFFF" fill-opacity="0"/>
	<g clip-path="url(#clip298_2819)">
		<path d="M46.04 18.81L36 14.5L36 7.5C36 7.3 35.92 7.11 35.78 6.96L30.53 1.71C30.39 1.58 30.19 1.5 30 1.5L3.75 1.5C3.15 1.5 2.58 1.74 2.16 2.16C1.73 2.58 1.5 3.15 1.5 3.75L1.5 44.25C1.5 44.84 1.73 45.41 2.16 45.83C2.58 46.25 3.15 46.49 3.75 46.5L33.75 46.5C34.34 46.49 34.91 46.25 35.33 45.83C35.76 45.41 36 44.84 36 44.25L36 42.38L39.9 39.59C41.94 38.14 43.6 36.21 44.75 33.98C45.89 31.75 46.49 29.28 46.5 26.78L46.5 19.5C46.5 19.35 46.45 19.2 46.37 19.08C46.29 18.96 46.17 18.86 46.04 18.81ZM30.75 4.05L33.44 6.75L30.75 6.75L30.75 4.05ZM34.5 44.25C34.5 44.44 34.42 44.64 34.28 44.78C34.14 44.92 33.94 45 33.75 45L3.75 45C3.55 45 3.35 44.92 3.21 44.78C3.07 44.64 3 44.44 3 44.25L3 3.75C3 3.55 3.07 3.35 3.21 3.21C3.35 3.07 3.55 3 3.75 3L29.25 3L29.25 7.5C29.25 7.69 29.32 7.89 29.46 8.03C29.6 8.17 29.8 8.25 30 8.25L34.5 8.25L34.5 14.5L29.68 16.56L26.4 13.28C26.76 12.95 26.98 12.49 27 12C27 11.11 26.26 10.53 25.67 10.07C25.41 9.89 25.18 9.67 24.98 9.41C24.92 9.08 24.93 8.74 25 8.4C25.08 7.63 25.18 6.76 24.58 6.16C23.98 5.56 23.1 5.66 22.34 5.74C22.01 5.81 21.67 5.81 21.33 5.75C21.07 5.57 20.85 5.33 20.67 5.07C20.21 4.47 19.63 3.75 18.75 3.75C17.86 3.75 17.28 4.48 16.82 5.07C16.64 5.33 16.42 5.56 16.17 5.75C15.83 5.81 15.49 5.81 15.15 5.74C14.38 5.66 13.51 5.56 12.91 6.16C12.31 6.76 12.41 7.63 12.49 8.4C12.56 8.73 12.57 9.08 12.51 9.41C12.32 9.66 12.08 9.89 11.82 10.07C11.22 10.53 10.5 11.11 10.5 12C10.51 12.49 10.73 12.95 11.09 13.28L6.54 17.83C6.44 17.93 6.37 18.06 6.34 18.19C6.31 18.33 6.32 18.48 6.37 18.61C6.42 18.74 6.5 18.86 6.61 18.95C6.72 19.04 6.85 19.09 6.99 19.1L11.17 19.57L11.64 23.75C11.65 23.89 11.71 24.02 11.79 24.13C11.88 24.24 12 24.33 12.13 24.37C12.21 24.4 12.29 24.41 12.38 24.41C12.58 24.41 12.77 24.34 12.91 24.2L17.46 19.65C17.62 19.84 17.81 19.99 18.03 20.09C18.26 20.19 18.5 20.25 18.75 20.25C18.99 20.25 19.23 20.19 19.46 20.09C19.68 19.99 19.87 19.84 20.03 19.65L24 23.6L24 26.78C24 27.35 24.03 27.92 24.09 28.5L6 28.5L6 30L24.33 30C24.44 30.5 24.57 31 24.72 31.5L6 31.5L6 33L25.28 33C25.51 33.51 25.75 34.01 26.03 34.5L6 34.5L6 36L26.99 36C27.36 36.52 27.78 37.02 28.22 37.5L6 37.5L6 39L29.81 39C30.06 39.2 30.32 39.4 30.59 39.59L34.5 42.38L34.5 44.25ZM12.91 17.83C13.51 18.43 14.38 18.33 15.15 18.25C15.48 18.18 15.82 18.18 16.16 18.24C16.28 18.3 16.39 18.4 16.47 18.5L12.96 22.03L12.6 18.81C12.58 18.64 12.5 18.48 12.38 18.36C12.26 18.24 12.1 18.16 11.94 18.15L8.71 17.78L12.23 14.27C12.35 14.35 12.44 14.46 12.51 14.58C12.57 14.91 12.56 15.25 12.49 15.59C12.41 16.36 12.31 17.23 12.91 17.83ZM15.84 16.69C15.56 16.7 15.27 16.72 14.99 16.76C14.66 16.82 14.31 16.83 13.98 16.77C13.91 16.43 13.92 16.09 13.98 15.75C14.1 15.17 14.07 14.57 13.89 14C13.62 13.5 13.23 13.06 12.75 12.75C12.5 12.55 12 12.15 12 12C12 11.84 12.5 11.44 12.75 11.25C13.23 10.93 13.62 10.5 13.89 9.99C14.07 9.42 14.1 8.82 13.98 8.24C13.92 7.9 13.91 7.56 13.97 7.23C14.3 7.16 14.65 7.16 14.99 7.23C15.57 7.35 16.17 7.32 16.73 7.14C17.25 6.87 17.68 6.48 18 6C18.19 5.75 18.59 5.25 18.75 5.25C18.9 5.25 19.3 5.75 19.5 6C19.81 6.48 20.25 6.87 20.76 7.14C21.32 7.32 21.92 7.35 22.5 7.23C22.83 7.17 23.18 7.16 23.51 7.22C23.58 7.56 23.57 7.9 23.51 8.24C23.39 8.82 23.42 9.42 23.6 9.99C23.87 10.5 24.26 10.93 24.75 11.25C24.99 11.44 25.5 11.84 25.5 12C25.5 12.15 24.99 12.55 24.75 12.75C24.26 13.06 23.87 13.5 23.6 14C23.42 14.57 23.39 15.17 23.51 15.75C23.57 16.09 23.58 16.43 23.52 16.76C23.19 16.82 22.84 16.82 22.5 16.76C21.92 16.64 21.32 16.67 20.76 16.85C20.25 17.12 19.81 17.51 19.5 18C19.3 18.24 18.9 18.75 18.75 18.75C18.59 18.75 18.19 18.24 18 18C17.68 17.51 17.25 17.12 16.73 16.85C16.45 16.74 16.15 16.68 15.84 16.69ZM21.32 18.24C21.66 18.18 22 18.18 22.34 18.25C23.1 18.33 23.98 18.43 24.58 17.83C25.18 17.23 25.08 16.36 25 15.59C24.93 15.26 24.92 14.91 24.98 14.58C25.05 14.46 25.14 14.35 25.26 14.27L28.19 17.2L24.45 18.81C24.32 18.86 24.2 18.96 24.12 19.08C24.04 19.2 24 19.35 24 19.5L24 21.49L21.02 18.5C21.1 18.4 21.21 18.3 21.32 18.24ZM45 26.78C45 29.05 44.45 31.28 43.41 33.3C42.37 35.31 40.87 37.05 39.03 38.37L35.25 41.07L31.46 38.37C29.62 37.05 28.12 35.31 27.08 33.3C26.04 31.28 25.5 29.05 25.5 26.78L25.5 19.99L35.25 15.81L45 19.99L45 26.78Z" fill="#80A948" fill-opacity="1.000000" fill-rule="nonzero"/>
		<path d="M34.97 18.05L27.47 21.05C27.33 21.1 27.21 21.2 27.12 21.33C27.04 21.45 27 21.59 27 21.75L27 26.48C26.99 28.39 27.42 30.28 28.25 32C29.08 33.73 30.28 35.24 31.78 36.43L34.78 38.83C34.91 38.94 35.07 39 35.25 39C35.42 39 35.58 38.94 35.71 38.83L38.71 36.43C40.21 35.24 41.41 33.73 42.25 32C43.07 30.28 43.5 28.39 43.5 26.48L43.5 21.75C43.5 21.59 43.45 21.45 43.37 21.33C43.28 21.2 43.16 21.1 43.02 21.05L35.52 18.05C35.35 17.98 35.15 17.98 34.97 18.05ZM42 22.25L42 26.48C42 28.16 41.62 29.83 40.89 31.35C40.16 32.87 39.09 34.21 37.77 35.26L35.25 37.29L32.72 35.26C31.4 34.21 30.33 32.87 29.6 31.35C28.87 29.83 28.49 28.16 28.5 26.48L28.5 22.25L35.25 19.55L42 22.25Z" fill="#80A948" fill-opacity="1.000000" fill-rule="nonzero"/>
		<path d="M32.02 27.97L30.96 29.03L33.21 31.28C33.35 31.42 33.55 31.5 33.75 31.5L33.77 31.5C33.87 31.49 33.97 31.47 34.07 31.42C34.16 31.38 34.24 31.32 34.31 31.24L39.56 25.24L38.43 24.25L33.71 29.65L32.02 27.97Z" fill="#80A948" fill-opacity="1.000000" fill-rule="nonzero"/>
		<path d="M22.5 12C22.5 11.25 22.28 10.53 21.86 9.91C21.45 9.3 20.87 8.81 20.18 8.53C19.5 8.25 18.74 8.17 18.01 8.32C17.28 8.46 16.62 8.82 16.09 9.34C15.57 9.87 15.21 10.54 15.07 11.26C14.92 11.99 15 12.75 15.28 13.43C15.57 14.12 16.05 14.7 16.66 15.11C17.28 15.52 18 15.75 18.75 15.75C19.74 15.74 20.69 15.35 21.39 14.65C22.1 13.94 22.5 12.99 22.5 12ZM16.5 12C16.5 11.55 16.63 11.11 16.87 10.75C17.12 10.38 17.47 10.09 17.89 9.92C18.3 9.75 18.75 9.7 19.18 9.79C19.62 9.88 20.02 10.09 20.33 10.4C20.65 10.72 20.87 11.12 20.95 11.56C21.04 11.99 21 12.44 20.82 12.86C20.66 13.27 20.37 13.62 20 13.87C19.62 14.11 19.19 14.25 18.75 14.25C18.15 14.25 17.58 14.01 17.16 13.59C16.73 13.16 16.5 12.59 16.5 12Z" fill="#80A948" fill-opacity="1.000000" fill-rule="nonzero"/>
	</g>
</svg>
