<svg width="52.000000" height="52.000000" viewBox="0 0 52 52" fill="none" xmlns="http://www.w3.org/2000/svg" xmlns:xlink="http://www.w3.org/1999/xlink">
	<desc>
			Created with Pixso.
	</desc>
	<defs>
		<filter id="filter_298_2564_dd" x="0.000000" y="0.000000" width="52.000000" height="52.000000" filterUnits="userSpaceOnUse" color-interpolation-filters="sRGB">
			<feFlood flood-opacity="0" result="BackgroundImageFix"/>
			<feColorMatrix in="SourceAlpha" type="matrix" values="0 0 0 0 0 0 0 0 0 0 0 0 0 0 0 0 0 0 127 0" result="hardAlpha"/>
			<feOffset dx="0" dy="2"/>
			<feGaussianBlur stdDeviation="1.33333"/>
			<feComposite in2="hardAlpha" operator="out" k2="-1" k3="1"/>
			<feColorMatrix type="matrix" values="0 0 0 0 0 0 0 0 0 0 0 0 0 0 0 0 0 0 0.078 0"/>
			<feBlend mode="normal" in2="BackgroundImageFix" result="effect_dropShadow_1"/>
			<feBlend mode="normal" in="SourceGraphic" in2="effect_dropShadow_1" result="shape"/>
		</filter>
		<clipPath id="clip298_2565">
			<rect id="narrative_active_outline_24" rx="-0.500000" width="23.000000" height="23.000000" transform="translate(14.500000 12.500000)" fill="white" fill-opacity="0"/>
		</clipPath>
	</defs>
	<g filter="url(#filter_298_2564_dd)">
		<rect id="Frame 2" rx="21.500000" width="43.000000" height="43.000000" transform="translate(4.500000 2.500000)" fill="#FFFFFF" fill-opacity="1.000000"/>
		<g clip-path="url(#clip298_2565)">
			<path id="↳ Icon Color" d="M28.29 13.43C29.03 13.6 29.67 13.97 30.19 14.52C30.71 15.08 31.01 15.67 31.33 16.82L32.13 19.76C32.27 20.3 31.95 20.84 31.42 20.99C30.89 21.13 30.34 20.81 30.19 20.28L29.48 17.59L29.36 17.19C29.15 16.46 28.99 16.16 28.73 15.89C28.48 15.63 28.19 15.46 27.84 15.38C27.47 15.29 27.13 15.3 26.39 15.48L25.99 15.58L20.86 16.95C20.01 17.18 19.61 17.35 19.35 17.54L19.29 17.58L19.16 17.7C18.9 17.95 18.73 18.24 18.65 18.59C18.55 18.99 18.57 19.35 18.8 20.23L21.52 30.4L21.63 30.8C21.85 31.53 22.01 31.82 22.26 32.1C22.51 32.36 22.8 32.53 23.15 32.61C23.55 32.71 23.9 32.69 24.76 32.47C25.3 32.34 25.84 32.66 25.98 33.2C26.11 33.73 25.78 34.28 25.25 34.41C24.1 34.7 23.44 34.73 22.7 34.56C21.97 34.39 21.32 34.02 20.81 33.47C20.28 32.91 19.98 32.32 19.66 31.17L16.92 20.96C16.56 19.63 16.51 18.93 16.7 18.13C16.85 17.48 17.16 16.9 17.63 16.41L17.81 16.22L17.99 16.07C18.49 15.66 19.07 15.38 20.08 15.09L20.34 15.02L25.47 13.65C26.8 13.29 27.5 13.24 28.29 13.43ZM32.37 23C34.37 23 36 24.58 36 26.56C36 28.47 35.23 29.41 32.22 31.69L30.89 32.7C30.36 33.1 29.63 33.1 29.1 32.7L27.78 31.69C24.77 29.41 24 28.47 24 26.56C24 24.58 25.63 23 27.63 23C28.46 23 29.22 23.22 29.91 23.65L30 23.71L30.08 23.65C30.7 23.26 31.38 23.04 32.12 23L32.37 23Z" fill="#FFBA00" fill-opacity="1.000000" fill-rule="nonzero"/>
		</g>
	</g>
</svg>
