<svg width="52.000000" height="52.000000" viewBox="0 0 52 52" fill="none" xmlns="http://www.w3.org/2000/svg" xmlns:xlink="http://www.w3.org/1999/xlink">
	<desc>
			Created with Pixso.
	</desc>
	<defs>
		<filter id="filter_298_2568_dd" x="0.000000" y="0.000000" width="52.000000" height="52.000000" filterUnits="userSpaceOnUse" color-interpolation-filters="sRGB">
			<feFlood flood-opacity="0" result="BackgroundImageFix"/>
			<feColorMatrix in="SourceAlpha" type="matrix" values="0 0 0 0 0 0 0 0 0 0 0 0 0 0 0 0 0 0 127 0" result="hardAlpha"/>
			<feOffset dx="0" dy="2"/>
			<feGaussianBlur stdDeviation="1.33333"/>
			<feComposite in2="hardAlpha" operator="out" k2="-1" k3="1"/>
			<feColorMatrix type="matrix" values="0 0 0 0 0 0 0 0 0 0 0 0 0 0 0 0 0 0 0.078 0"/>
			<feBlend mode="normal" in2="BackgroundImageFix" result="effect_dropShadow_1"/>
			<feBlend mode="normal" in="SourceGraphic" in2="effect_dropShadow_1" result="shape"/>
		</filter>
		<clipPath id="clip298_2569">
			<rect id="ball_outline_24" rx="-0.500000" width="23.000000" height="23.000000" transform="translate(14.500000 12.500000)" fill="white" fill-opacity="0"/>
		</clipPath>
	</defs>
	<g filter="url(#filter_298_2568_dd)">
		<rect id="sport" rx="21.500000" width="43.000000" height="43.000000" transform="translate(4.500000 2.500000)" fill="#FFFFFF" fill-opacity="1.000000"/>
		<g clip-path="url(#clip298_2569)">
			<path id="↳ Icon Color" d="M19 17C20.79 15.2 23.26 14.09 26 14.09C28.73 14.09 31.21 15.2 33 17C34.79 18.78 35.9 21.26 35.9 24C35.9 26.73 34.79 29.2 33 31C31.21 32.79 28.73 33.9 26 33.9C23.26 33.9 20.79 32.79 19 31C17.21 29.2 16.1 26.73 16.1 24C16.1 21.26 17.21 18.78 19 17ZM26.9 32C26.9 29.86 26.15 27.9 24.89 26.37L26.5 24.77L31.58 29.86C30.33 31.05 28.71 31.84 26.9 32.05L26.9 32ZM25.1 32C25.1 30.36 24.54 28.85 23.61 27.65L20.94 30.32C22.1 31.26 23.53 31.87 25.1 32.05L25.1 32ZM18 24.9C19.63 24.9 21.14 25.45 22.34 26.38L19.67 29.05C18.73 27.89 18.12 26.46 17.94 24.9L18 24.9ZM26.5 22.22L28.1 20.62C27.03 19.31 26.32 17.68 26.14 15.9C26.09 15.9 26.05 15.9 26 15.9C24.34 15.9 22.8 16.39 21.52 17.24L26.5 22.22ZM31.05 17.66L29.38 19.34C28.67 18.42 28.18 17.33 27.99 16.14C29.12 16.43 30.16 16.96 31.05 17.66ZM33.85 22C32.66 21.81 31.57 21.32 30.65 20.61L32.33 18.94C33.03 19.83 33.56 20.87 33.85 22ZM27.77 23.5L29.37 21.89C30.69 22.97 32.31 23.67 34.1 23.85C34.1 23.9 34.1 23.95 34.1 24C34.1 25.65 33.6 27.19 32.75 28.47L27.77 23.5ZM23.62 25.1L25.23 23.5L20.14 18.41C18.94 19.66 18.15 21.28 17.94 23.09L18 23.09C20.13 23.09 22.09 23.84 23.62 25.1Z" fill="#FFBA00" fill-opacity="1.000000" fill-rule="evenodd"/>
		</g>
	</g>
</svg>
