<svg width="52.000000" height="52.000000" viewBox="0 0 52 52" fill="none" xmlns="http://www.w3.org/2000/svg" xmlns:xlink="http://www.w3.org/1999/xlink">
	<desc>
			Created with Pixso.
	</desc>
	<defs>
		<filter id="filter_298_2614_dd" x="0.000000" y="0.000000" width="52.000000" height="52.000000" filterUnits="userSpaceOnUse" color-interpolation-filters="sRGB">
			<feFlood flood-opacity="0" result="BackgroundImageFix"/>
			<feColorMatrix in="SourceAlpha" type="matrix" values="0 0 0 0 0 0 0 0 0 0 0 0 0 0 0 0 0 0 127 0" result="hardAlpha"/>
			<feOffset dx="0" dy="2"/>
			<feGaussianBlur stdDeviation="1.33333"/>
			<feComposite in2="hardAlpha" operator="out" k2="-1" k3="1"/>
			<feColorMatrix type="matrix" values="0 0 0 0 0 0 0 0 0 0 0 0 0 0 0 0 0 0 0.078 0"/>
			<feBlend mode="normal" in2="BackgroundImageFix" result="effect_dropShadow_1"/>
			<feBlend mode="normal" in="SourceGraphic" in2="effect_dropShadow_1" result="shape"/>
		</filter>
		<clipPath id="clip298_2615">
			<rect id="work_outline_24" rx="-0.428571" width="23.142857" height="23.142857" transform="translate(14.428572 12.428572)" fill="white" fill-opacity="0"/>
		</clipPath>
	</defs>
	<g filter="url(#filter_298_2614_dd)">
		<rect id="startup" rx="21.500000" width="43.000000" height="43.000000" transform="translate(4.500000 2.500000)" fill="#FFFFFF" fill-opacity="1.000000"/>
		<g clip-path="url(#clip298_2615)">
			<path id="↳ Icon Color" d="M25.16 15.09L25.2 15.09L26.8 15.09L26.83 15.09L26.83 15.09C27.36 15.09 27.81 15.09 28.18 15.12C28.57 15.16 28.95 15.23 29.31 15.41C29.86 15.69 30.3 16.13 30.58 16.68C30.76 17.04 30.83 17.42 30.87 17.81C30.89 18.16 30.9 18.59 30.9 19.09L31.8 19.09L31.83 19.09C32.36 19.09 32.81 19.09 33.18 19.12C33.57 19.16 33.95 19.23 34.31 19.41C34.86 19.69 35.3 20.13 35.58 20.68C35.76 21.04 35.83 21.42 35.87 21.81C35.9 22.18 35.9 22.63 35.9 23.16L35.9 23.16L35.9 23.16L35.9 23.19L35.9 24.59L35.9 24.63C35.9 25.02 35.9 25.37 35.87 25.65C35.85 25.96 35.79 26.28 35.64 26.58C35.41 27.04 35.04 27.4 34.58 27.63C34.36 27.75 34.12 27.81 33.9 27.84L33.9 28.4L33.9 28.43C33.9 29.03 33.9 29.53 33.86 29.95C33.83 30.38 33.75 30.79 33.55 31.17C33.25 31.77 32.77 32.25 32.17 32.55C31.79 32.75 31.38 32.83 30.95 32.86C30.53 32.9 30.03 32.9 29.43 32.9L29.43 32.9L29.4 32.9L22.6 32.9L22.56 32.9L22.56 32.9C21.96 32.9 21.46 32.9 21.05 32.86C20.62 32.83 20.21 32.75 19.82 32.55C19.23 32.25 18.74 31.77 18.44 31.17C18.24 30.79 18.17 30.38 18.13 29.95C18.1 29.53 18.1 29.03 18.1 28.43L18.1 28.4L18.1 27.84C17.87 27.81 17.64 27.75 17.41 27.63C16.96 27.4 16.59 27.04 16.36 26.58C16.2 26.28 16.14 25.96 16.12 25.65C16.1 25.37 16.1 25.02 16.1 24.63L16.1 24.63L16.1 24.59L16.1 23.19L16.1 23.16L16.1 23.16C16.1 22.63 16.1 22.18 16.13 21.81C16.16 21.42 16.23 21.04 16.41 20.68C16.69 20.13 17.14 19.69 17.68 19.41C18.04 19.23 18.42 19.16 18.81 19.12C19.18 19.09 19.63 19.09 20.16 19.09L20.2 19.09L21.1 19.09C21.1 18.59 21.1 18.16 21.13 17.81C21.16 17.42 21.23 17.04 21.41 16.68C21.69 16.13 22.14 15.69 22.68 15.41C23.04 15.23 23.42 15.16 23.81 15.12C24.18 15.09 24.63 15.09 25.16 15.09L25.16 15.09ZM19.4 26.09L32.6 26.09C33.03 26.09 33.3 26.09 33.51 26.08C33.7 26.06 33.76 26.04 33.77 26.03C33.88 25.97 33.98 25.88 34.03 25.77C34.04 25.75 34.06 25.7 34.08 25.51C34.1 25.3 34.1 25.03 34.1 24.59L34.1 23.19C34.1 22.62 34.1 22.24 34.07 21.95C34.05 21.68 34.01 21.56 33.98 21.5C33.87 21.29 33.7 21.12 33.5 21.01C33.43 20.98 33.32 20.94 33.04 20.92C32.75 20.9 32.37 20.9 31.8 20.9L30.9 20.9L30.9 20.9L30 20.9L22 20.9L21.1 20.9L21.1 20.9L20.2 20.9C19.62 20.9 19.25 20.9 18.96 20.92C18.68 20.94 18.56 20.98 18.5 21.01C18.29 21.12 18.12 21.29 18.01 21.5C17.98 21.56 17.94 21.68 17.92 21.95C17.9 22.24 17.9 22.62 17.9 23.19L17.9 24.59C17.9 25.03 17.9 25.3 17.91 25.51C17.93 25.7 17.96 25.75 17.96 25.77C18.02 25.88 18.11 25.97 18.23 26.03C18.24 26.04 18.29 26.06 18.48 26.08C18.69 26.09 18.96 26.09 19.4 26.09ZM19.9 27.9L19.9 28.4C19.9 29.04 19.9 29.47 19.92 29.8C19.95 30.12 20 30.26 20.04 30.36C20.17 30.61 20.38 30.82 20.64 30.95C20.73 31 20.87 31.04 21.19 31.07C21.52 31.09 21.95 31.09 22.6 31.09L29.4 31.09C30.04 31.09 30.47 31.09 30.8 31.07C31.12 31.04 31.27 31 31.36 30.95C31.61 30.82 31.82 30.61 31.95 30.36C32 30.26 32.04 30.12 32.07 29.8C32.1 29.47 32.1 29.04 32.1 28.4L32.1 27.9L19.9 27.9ZM29.07 17.95C29.09 18.23 29.1 18.58 29.1 19.09L22.9 19.09C22.9 18.58 22.9 18.23 22.92 17.95C22.94 17.68 22.98 17.56 23.01 17.5C23.12 17.29 23.29 17.12 23.5 17.01C23.56 16.98 23.68 16.94 23.96 16.92C24.25 16.9 24.62 16.9 25.2 16.9L26.8 16.9C27.37 16.9 27.75 16.9 28.04 16.92C28.32 16.94 28.43 16.98 28.5 17.01C28.7 17.12 28.87 17.29 28.98 17.5C29.01 17.56 29.05 17.68 29.07 17.95Z" fill="#FFBA00" fill-opacity="1.000000" fill-rule="evenodd"/>
		</g>
	</g>
</svg>
