<svg width="68.000000" height="68.000000" viewBox="0 0 68 68" fill="none" xmlns="http://www.w3.org/2000/svg" xmlns:xlink="http://www.w3.org/1999/xlink">
	<desc>
			Created with Pixso.
	</desc>
	<defs>
		<filter id="filter_298_2897_dd" x="0.000000" y="0.000000" width="68.000000" height="68.000000" filterUnits="userSpaceOnUse" color-interpolation-filters="sRGB">
			<feFlood flood-opacity="0" result="BackgroundImageFix"/>
			<feColorMatrix in="SourceAlpha" type="matrix" values="0 0 0 0 0 0 0 0 0 0 0 0 0 0 0 0 0 0 127 0" result="hardAlpha"/>
			<feOffset dx="0" dy="2"/>
			<feGaussianBlur stdDeviation="1.33333"/>
			<feComposite in2="hardAlpha" operator="out" k2="-1" k3="1"/>
			<feColorMatrix type="matrix" values="0 0 0 0 0 0 0 0 0 0 0 0 0 0 0 0 0 0 0.078 0"/>
			<feBlend mode="normal" in2="BackgroundImageFix" result="effect_dropShadow_1"/>
			<feBlend mode="normal" in="SourceGraphic" in2="effect_dropShadow_1" result="shape"/>
		</filter>
	</defs>
	<g filter="url(#filter_298_2897_dd)">
		<rect id="Frame 625869" rx="29.500000" width="59.000000" height="59.000000" transform="translate(4.500000 2.500000)" fill="#FFFFFF" fill-opacity="1.000000"/>
		<path id="↳ Icon Color" d="M35.5 33.5L35.5 42.5C35.5 43.32 34.82 44 34 44C33.17 44 32.5 43.32 32.5 42.5L32.5 33.5L23.5 33.5C22.67 33.5 22 32.82 22 32C22 31.17 22.67 30.5 23.5 30.5L32.5 30.5L32.5 21.5C32.5 20.67 33.17 20 34 20C34.82 20 35.5 20.67 35.5 21.5L35.5 30.5L44.5 30.5C45.32 30.5 46 31.17 46 32C46 32.82 45.32 33.5 44.5 33.5L35.5 33.5Z" fill="#80A948" fill-opacity="1.000000" fill-rule="nonzero"/>
	</g>
</svg>
