<svg width="52.000000" height="52.000000" viewBox="0 0 52 52" fill="none" xmlns="http://www.w3.org/2000/svg" xmlns:xlink="http://www.w3.org/1999/xlink">
	<desc>
			Created with Pixso.
	</desc>
	<defs>
		<filter id="filter_298_2589_dd" x="0.000000" y="0.000000" width="52.000000" height="52.000000" filterUnits="userSpaceOnUse" color-interpolation-filters="sRGB">
			<feFlood flood-opacity="0" result="BackgroundImageFix"/>
			<feColorMatrix in="SourceAlpha" type="matrix" values="0 0 0 0 0 0 0 0 0 0 0 0 0 0 0 0 0 0 127 0" result="hardAlpha"/>
			<feOffset dx="0" dy="2"/>
			<feGaussianBlur stdDeviation="1.33333"/>
			<feComposite in2="hardAlpha" operator="out" k2="-1" k3="1"/>
			<feColorMatrix type="matrix" values="0 0 0 0 0 0 0 0 0 0 0 0 0 0 0 0 0 0 0.078 0"/>
			<feBlend mode="normal" in2="BackgroundImageFix" result="effect_dropShadow_1"/>
			<feBlend mode="normal" in="SourceGraphic" in2="effect_dropShadow_1" result="shape"/>
		</filter>
		<clipPath id="clip298_2590">
			<rect id="car_outline_24" rx="-0.500000" width="23.000000" height="23.000000" transform="translate(14.500000 12.500000)" fill="white" fill-opacity="0"/>
		</clipPath>
	</defs>
	<g filter="url(#filter_298_2589_dd)">
		<rect id="transport" rx="21.500000" width="43.000000" height="43.000000" transform="translate(4.500000 2.500000)" fill="#FFFFFF" fill-opacity="1.000000"/>
		<g clip-path="url(#clip298_2590)">
			<path id="↳ Icon Color" d="M23.66 16.09L28.33 16.09C29.19 16.09 29.91 16.09 30.5 16.16C31.12 16.22 31.67 16.36 32.19 16.68C32.71 17 33.08 17.43 33.41 17.96C33.73 18.46 34.05 19.1 34.44 19.87L35.25 21.5L36.11 21.5C36.6 21.5 37 21.89 37 22.38L37 22.61C37 23.34 36.52 23.93 35.89 24.14L35.89 31.19L35.89 31.22L35.89 31.22L35.89 31.24C35.89 31.35 35.89 31.48 35.89 31.6C35.87 31.74 35.85 31.93 35.74 32.13C35.61 32.39 35.39 32.61 35.13 32.74C34.93 32.84 34.74 32.87 34.6 32.89C34.48 32.9 34.34 32.9 34.22 32.9L34.22 32.9L34.19 32.9L33.8 32.9L33.77 32.9L33.77 32.9C33.65 32.9 33.51 32.9 33.39 32.89C33.25 32.87 33.06 32.84 32.86 32.74C32.6 32.61 32.38 32.39 32.25 32.13C32.14 31.93 32.12 31.74 32.1 31.6C32.1 31.48 32.1 31.35 32.1 31.24L32.1 31.22L32.1 31.22L32.1 31.19L32.1 30.9L19.89 30.9L19.89 31.19L19.89 31.22L19.89 31.24C19.89 31.35 19.89 31.48 19.89 31.6C19.87 31.74 19.85 31.93 19.74 32.13C19.61 32.39 19.39 32.61 19.13 32.74C18.93 32.84 18.74 32.87 18.6 32.89C18.48 32.9 18.34 32.9 18.22 32.9L18.22 32.9L18.19 32.9L17.8 32.9L17.77 32.9L17.77 32.9C17.65 32.9 17.51 32.9 17.39 32.89C17.25 32.87 17.06 32.84 16.86 32.74C16.6 32.61 16.38 32.39 16.25 32.13C16.14 31.93 16.12 31.74 16.1 31.6C16.1 31.48 16.1 31.35 16.1 31.24L16.1 31.22L16.1 31.19L16.1 30.9L16.1 28.5L16.1 24.14C15.47 23.93 15 23.34 15 22.61L15 22.38C15 21.89 15.39 21.5 15.88 21.5L16.74 21.5L17.55 19.87C17.94 19.1 18.26 18.46 18.58 17.96C18.91 17.43 19.28 17 19.8 16.68C20.32 16.36 20.87 16.22 21.49 16.16C22.08 16.09 22.8 16.09 23.66 16.09L23.66 16.09ZM21.67 17.95C21.21 17.99 20.95 18.08 20.75 18.21C20.54 18.33 20.35 18.53 20.09 18.92C19.83 19.33 19.55 19.89 19.14 20.71L18.42 22.17C18.49 22.18 18.59 22.2 18.71 22.23C19.06 22.3 19.57 22.39 20.24 22.48C21.58 22.66 23.54 22.84 26 22.84C28.45 22.84 30.41 22.66 31.75 22.48C32.42 22.39 32.93 22.3 33.28 22.23C33.4 22.2 33.5 22.18 33.57 22.17L32.85 20.71C32.44 19.89 32.16 19.33 31.9 18.92C31.64 18.53 31.45 18.33 31.25 18.21C31.04 18.08 30.78 17.99 30.32 17.95C29.83 17.9 29.21 17.9 28.29 17.9L23.7 17.9C22.78 17.9 22.16 17.9 21.67 17.95ZM17.99 23.02L17.99 23.02C17.95 23.17 17.92 23.29 17.89 23.4L17.89 23.4L17.99 23.02ZM17.89 23.9L17.89 28.5C17.89 28.83 18.16 29.09 18.5 29.09L19.89 29.09L32.1 29.09L33.5 29.09C33.83 29.09 34.1 28.83 34.1 28.5L34.1 23.9C34.08 23.9 34.07 23.9 34.05 23.91C33.95 23.93 33.81 23.96 33.62 24C33.25 24.07 32.7 24.16 31.99 24.26C30.58 24.45 28.54 24.65 26 24.65C23.45 24.65 21.41 24.45 20 24.26C19.29 24.16 18.75 24.07 18.37 24C18.18 23.96 18.04 23.93 17.94 23.91C17.92 23.9 17.91 23.9 17.89 23.9ZM34.1 23.4L34.1 23.4C34.07 23.29 34.04 23.17 34 23.02L34.1 23.4ZM19.1 26.38C19.16 25.89 19.61 25.54 20.11 25.6L22.11 25.85C22.56 25.91 22.89 26.3 22.89 26.74C22.89 26.78 22.89 26.82 22.89 26.86C22.83 27.35 22.38 27.7 21.88 27.64L19.88 27.39C19.43 27.33 19.1 26.94 19.1 26.5C19.1 26.46 19.1 26.42 19.1 26.38ZM31.88 25.6C32.38 25.54 32.83 25.89 32.89 26.38C32.89 26.42 32.89 26.46 32.89 26.5C32.89 26.94 32.56 27.33 32.11 27.39L30.11 27.64C29.61 27.7 29.16 27.35 29.1 26.86C29.1 26.82 29.1 26.78 29.1 26.74C29.1 26.3 29.43 25.91 29.88 25.85L31.88 25.6Z" fill="#FFBA00" fill-opacity="1.000000" fill-rule="evenodd"/>
		</g>
	</g>
</svg>
