<svg width="52.000000" height="52.000000" viewBox="0 0 52 52" fill="none" xmlns="http://www.w3.org/2000/svg" xmlns:xlink="http://www.w3.org/1999/xlink">
	<desc>
			Created with Pixso.
	</desc>
	<defs>
		<filter id="filter_298_2610_dd" x="0.000000" y="0.000000" width="52.000000" height="52.000000" filterUnits="userSpaceOnUse" color-interpolation-filters="sRGB">
			<feFlood flood-opacity="0" result="BackgroundImageFix"/>
			<feColorMatrix in="SourceAlpha" type="matrix" values="0 0 0 0 0 0 0 0 0 0 0 0 0 0 0 0 0 0 127 0" result="hardAlpha"/>
			<feOffset dx="0" dy="2"/>
			<feGaussianBlur stdDeviation="1.33333"/>
			<feComposite in2="hardAlpha" operator="out" k2="-1" k3="1"/>
			<feColorMatrix type="matrix" values="0 0 0 0 0 0 0 0 0 0 0 0 0 0 0 0 0 0 0.078 0"/>
			<feBlend mode="normal" in2="BackgroundImageFix" result="effect_dropShadow_1"/>
			<feBlend mode="normal" in="SourceGraphic" in2="effect_dropShadow_1" result="shape"/>
		</filter>
		<clipPath id="clip298_2611">
			<rect id="video_outline_24" rx="-0.500000" width="23.000000" height="23.000000" transform="translate(14.500000 12.500000)" fill="white" fill-opacity="0"/>
		</clipPath>
	</defs>
	<g filter="url(#filter_298_2610_dd)">
		<rect id="tv" rx="21.500000" width="43.000000" height="43.000000" transform="translate(4.500000 2.500000)" fill="#FFFFFF" fill-opacity="1.000000"/>
		<g clip-path="url(#clip298_2611)">
			<path id="↳ Icon Color" d="M23.46 14.09L28.53 14.09C29.55 14.09 30.37 14.09 31.03 14.15C31.71 14.2 32.31 14.32 32.86 14.6C33.73 15.05 34.44 15.76 34.89 16.63C35.17 17.18 35.29 17.78 35.34 18.46C35.4 19.11 35.4 19.92 35.4 20.91L35.4 27.07C35.4 28.07 35.4 28.88 35.34 29.53C35.29 30.21 35.17 30.81 34.89 31.36C34.44 32.23 33.73 32.94 32.86 33.39C32.31 33.67 31.71 33.78 31.03 33.84C30.37 33.9 29.55 33.9 28.53 33.9L23.46 33.9C22.44 33.9 21.62 33.9 20.96 33.84C20.28 33.78 19.69 33.67 19.14 33.39C18.26 32.94 17.55 32.23 17.1 31.36C16.82 30.81 16.71 30.21 16.65 29.53C16.6 28.88 16.6 28.07 16.6 27.07L16.6 20.92C16.6 19.92 16.6 19.11 16.65 18.46C16.71 17.78 16.82 17.18 17.1 16.63C17.55 15.76 18.26 15.05 19.14 14.6C19.69 14.32 20.28 14.2 20.96 14.15C21.62 14.09 22.44 14.09 23.46 14.09L23.46 14.09ZM21.11 15.94C20.54 15.99 20.21 16.08 19.95 16.21C19.42 16.48 18.98 16.91 18.71 17.45C18.58 17.7 18.49 18.04 18.44 18.6C18.4 19.18 18.4 19.93 18.4 21L18.4 27C18.4 28.06 18.4 28.8 18.44 29.38C18.49 29.95 18.58 30.29 18.71 30.54C18.98 31.08 19.42 31.51 19.95 31.78C20.21 31.91 20.54 32 21.11 32.05C21.69 32.09 22.43 32.09 23.5 32.09L28.5 32.09C29.56 32.09 30.31 32.09 30.89 32.05C31.46 32 31.79 31.91 32.04 31.78C32.58 31.51 33.01 31.08 33.28 30.54C33.41 30.29 33.5 29.95 33.55 29.38C33.6 28.8 33.6 28.06 33.6 27L33.6 21C33.6 19.93 33.6 19.18 33.55 18.6C33.5 18.04 33.41 17.7 33.28 17.45C33.01 16.91 32.58 16.48 32.04 16.21C31.79 16.08 31.46 15.99 30.89 15.94C30.31 15.9 29.56 15.9 28.5 15.9L23.5 15.9C22.43 15.9 21.69 15.9 21.11 15.94ZM21.25 17.75L22.25 17.75C22.66 17.75 23 18.08 23 18.5L23 19.5C23 19.91 22.66 20.25 22.25 20.25L21.25 20.25C20.83 20.25 20.5 19.91 20.5 19.5L20.5 18.5C20.5 18.08 20.83 17.75 21.25 17.75ZM29.75 17.75L30.75 17.75C31.16 17.75 31.5 18.08 31.5 18.5L31.5 19.5C31.5 19.91 31.16 20.25 30.75 20.25L29.75 20.25C29.33 20.25 29 19.91 29 19.5L29 18.5C29 18.08 29.33 17.75 29.75 17.75ZM21.25 22.75L22.25 22.75C22.66 22.75 23 23.08 23 23.5L23 24.5C23 24.91 22.66 25.25 22.25 25.25L21.25 25.25C20.83 25.25 20.5 24.91 20.5 24.5L20.5 23.5C20.5 23.08 20.83 22.75 21.25 22.75ZM29.75 22.75L30.75 22.75C31.16 22.75 31.5 23.08 31.5 23.5L31.5 24.5C31.5 24.91 31.16 25.25 30.75 25.25L29.75 25.25C29.33 25.25 29 24.91 29 24.5L29 23.5C29 23.08 29.33 22.75 29.75 22.75ZM21.25 27.75L22.25 27.75C22.66 27.75 23 28.08 23 28.5L23 29.5C23 29.91 22.66 30.25 22.25 30.25L21.25 30.25C20.83 30.25 20.5 29.91 20.5 29.5L20.5 28.5C20.5 28.08 20.83 27.75 21.25 27.75ZM29.75 27.75L30.75 27.75C31.16 27.75 31.5 28.08 31.5 28.5L31.5 29.5C31.5 29.91 31.16 30.25 30.75 30.25L29.75 30.25C29.33 30.25 29 29.91 29 29.5L29 28.5C29 28.08 29.33 27.75 29.75 27.75Z" fill="#FFBA00" fill-opacity="1.000000" fill-rule="evenodd"/>
		</g>
	</g>
</svg>
